<svg width="1402" height="118" viewBox="0 0 1402 118" fill="none" xmlns="http://www.w3.org/2000/svg">
<g filter="url(#filter0_i)">
<path fill-rule="evenodd" clip-rule="evenodd" d="M-21.1174 81.1678L-39.9624 70.2917L-39.9582 48.5436L-21.1111 37.6716L-2.264 48.5477L-2.26816 70.2979L-21.1174 81.1678Z" fill="#EFEFEF"/>
<path fill-rule="evenodd" clip-rule="evenodd" d="M0.362549 44.0313L-18.4825 33.1552L-18.4783 11.4071L0.368786 0.535156L19.2159 11.4113L19.2118 33.1614L0.362549 44.0313Z" fill="#EFEFEF"/>
<path fill-rule="evenodd" clip-rule="evenodd" d="M0.362549 117.487L-18.4825 106.611L-18.4783 84.8627L0.368786 73.9908L19.2159 84.8669L19.2118 106.617L0.362549 117.487Z" fill="#EFEFEF"/>
<path fill-rule="evenodd" clip-rule="evenodd" d="M42.5562 117.487L23.7111 106.611L23.7153 84.8627L42.5624 73.9908L61.4095 84.8669L61.4054 106.617L42.5562 117.487Z" fill="#EFEFEF"/>
<path fill-rule="evenodd" clip-rule="evenodd" d="M127.199 117.487L108.354 106.611L108.358 84.8627L127.205 73.9908L146.052 84.8669L146.048 106.617L127.199 117.487Z" fill="#EFEFEF"/>
<path fill-rule="evenodd" clip-rule="evenodd" d="M169.903 44.0313L151.058 33.1552L151.062 11.4071L169.909 0.535156L188.757 11.4113L188.752 33.1614L169.903 44.0313Z" fill="#EFEFEF"/>
<path fill-rule="evenodd" clip-rule="evenodd" d="M318.73 80.7591L299.885 69.883L299.889 48.1349L318.736 37.263L337.583 48.1391L337.579 69.8892L318.73 80.7591Z" fill="#EFEFEF"/>
<path fill-rule="evenodd" clip-rule="evenodd" d="M148.423 81.1678L129.578 70.2917L129.582 48.5436L148.43 37.6716L167.277 48.5477L167.272 70.2979L148.423 81.1678Z" fill="#EFEFEF"/>
<path fill-rule="evenodd" clip-rule="evenodd" d="M254.546 117.487L235.701 106.611L235.705 84.8627L254.552 73.9908L273.399 84.8669L273.395 106.617L254.546 117.487Z" fill="#EFEFEF"/>
<path fill-rule="evenodd" clip-rule="evenodd" d="M21.3317 81.1678L2.48661 70.2917L2.49076 48.5436L21.3379 37.6716L40.185 48.5477L40.1809 70.2979L21.3317 81.1678Z" fill="#EFEFEF"/>
<path fill-rule="evenodd" clip-rule="evenodd" d="M63.7807 81.1678L44.9356 70.2917L44.9398 48.5436L63.7869 37.6716L82.634 48.5477L82.6299 70.2979L63.7807 81.1678Z" fill="#EFEFEF"/>
<path fill-rule="evenodd" clip-rule="evenodd" d="M106.23 81.1678L87.3846 70.2917L87.3888 48.5436L106.236 37.6716L125.083 48.5477L125.079 70.2979L106.23 81.1678Z" fill="#EFEFEF"/>
<path fill-rule="evenodd" clip-rule="evenodd" d="M191.128 81.1678L172.283 70.2917L172.287 48.5436L191.134 37.6716L209.981 48.5477L209.977 70.2979L191.128 81.1678Z" fill="#EFEFEF"/>
<path fill-rule="evenodd" clip-rule="evenodd" d="M828.637 81.1678L847.483 70.2917L847.478 48.5436L828.631 37.6716L809.784 48.5477L809.788 70.2979L828.637 81.1678Z" fill="#EFEFEF"/>
<path fill-rule="evenodd" clip-rule="evenodd" d="M1042.16 81.1678L1061 70.2917L1061 48.5436L1042.15 37.6716L1023.31 48.5477L1023.31 70.2979L1042.16 81.1678Z" fill="#EFEFEF"/>
<path fill-rule="evenodd" clip-rule="evenodd" d="M807.158 44.0313L826.003 33.1552L825.998 11.4071L807.151 0.535156L788.304 11.4113L788.308 33.1614L807.158 44.0313Z" fill="#EFEFEF"/>
<path fill-rule="evenodd" clip-rule="evenodd" d="M978.231 117.487L997.076 106.611L997.072 84.8627L978.224 73.9908L959.377 84.8669L959.381 106.617L978.231 117.487Z" fill="#EFEFEF"/>
<path fill-rule="evenodd" clip-rule="evenodd" d="M978.231 44.0313L997.076 33.1552L997.072 11.4071L978.224 0.535156L959.377 11.4113L959.381 33.1614L978.231 44.0313Z" fill="#EFEFEF"/>
<path fill-rule="evenodd" clip-rule="evenodd" d="M999.71 81.1678L1018.56 70.2917L1018.55 48.5436L999.704 37.6716L980.857 48.5477L980.861 70.2979L999.71 81.1678Z" fill="#EFEFEF"/>
<path fill-rule="evenodd" clip-rule="evenodd" d="M807.158 117.487L826.003 106.611L825.998 84.8627L807.151 73.9908L788.304 84.8669L788.308 106.617L807.158 117.487Z" fill="#EFEFEF"/>
<path fill-rule="evenodd" clip-rule="evenodd" d="M935.526 44.0313L954.371 33.1552L954.367 11.4071L935.52 0.535156L916.673 11.4113L916.677 33.1614L935.526 44.0313Z" fill="#EFEFEF"/>
<path fill-rule="evenodd" clip-rule="evenodd" d="M764.708 44.0313L783.553 33.1552L783.549 11.4071L764.702 0.535156L745.855 11.4113L745.859 33.1614L764.708 44.0313Z" fill="#EFEFEF"/>
<path fill-rule="evenodd" clip-rule="evenodd" d="M956.495 81.1678L975.34 70.2917L975.336 48.5436L956.489 37.6716L937.642 48.5477L937.646 70.2979L956.495 81.1678Z" fill="#EFEFEF"/>
<path fill-rule="evenodd" clip-rule="evenodd" d="M935.526 117.487L954.371 106.611L954.367 84.8627L935.52 73.9908L916.673 84.8669L916.677 106.617L935.526 117.487Z" fill="#EFEFEF"/>
<path fill-rule="evenodd" clip-rule="evenodd" d="M680.321 117.487L699.166 106.611L699.162 84.8627L680.315 73.9908L661.468 84.8669L661.472 106.617L680.321 117.487Z" fill="#EFEFEF"/>
<path fill-rule="evenodd" clip-rule="evenodd" d="M637.617 44.0313L656.462 33.1552L656.458 11.4071L637.611 0.535156L618.763 11.4113L618.768 33.1614L637.617 44.0313Z" fill="#EFEFEF"/>
<path fill-rule="evenodd" clip-rule="evenodd" d="M659.097 81.1678L677.942 70.2917L677.938 48.5436L659.091 37.6716L640.243 48.5477L640.248 70.2979L659.097 81.1678Z" fill="#EFEFEF"/>
<path fill-rule="evenodd" clip-rule="evenodd" d="M786.188 81.1678L805.033 70.2917L805.029 48.5436L786.182 37.6716L767.335 48.5477L767.339 70.2979L786.188 81.1678Z" fill="#EFEFEF"/>
<path fill-rule="evenodd" clip-rule="evenodd" d="M743.739 81.1678L762.584 70.2917L762.58 48.5436L743.733 37.6716L724.886 48.5477L724.89 70.2979L743.739 81.1678Z" fill="#EFEFEF"/>
<path fill-rule="evenodd" clip-rule="evenodd" d="M701.29 81.1678L720.135 70.2917L720.131 48.5436L701.284 37.6716L682.437 48.5477L682.441 70.2979L701.29 81.1678Z" fill="#EFEFEF"/>
<path fill-rule="evenodd" clip-rule="evenodd" d="M616.392 81.1678L635.237 70.2917L635.233 48.5436L616.386 37.6716L597.539 48.5477L597.543 70.2979L616.392 81.1678Z" fill="#EFEFEF"/>
<path fill-rule="evenodd" clip-rule="evenodd" d="M573.688 81.1678L592.533 70.2917L592.529 48.5436L573.682 37.6716L554.835 48.5477L554.839 70.2979L573.688 81.1678Z" fill="#EFEFEF"/>
<path fill-rule="evenodd" clip-rule="evenodd" d="M552.208 44.0313L571.053 33.1552L571.049 11.4071L552.202 0.535156L533.355 11.4113L533.359 33.1614L552.208 44.0313Z" fill="#EFEFEF"/>
<path fill-rule="evenodd" clip-rule="evenodd" d="M552.208 117.487L571.053 106.611L571.049 84.8627L552.202 73.9908L533.355 84.8669L533.359 106.617L552.208 117.487Z" fill="#EFEFEF"/>
<path fill-rule="evenodd" clip-rule="evenodd" d="M722.515 117.487L741.36 106.611L741.356 84.8627L722.509 73.9908L703.661 84.8669L703.666 106.617L722.515 117.487Z" fill="#EFEFEF"/>
<path fill-rule="evenodd" clip-rule="evenodd" d="M382.54 117.487L401.385 106.611L401.381 84.8627L382.533 73.9908L363.686 84.8669L363.69 106.617L382.54 117.487Z" fill="#EFEFEF"/>
<path fill-rule="evenodd" clip-rule="evenodd" d="M382.667 44.0313L401.512 33.1552L401.508 11.4071L382.661 0.535156L363.814 11.4113L363.818 33.1614L382.667 44.0313Z" fill="#EFEFEF"/>
<path fill-rule="evenodd" clip-rule="evenodd" d="M404.147 81.1678L422.992 70.2917L422.988 48.5436L404.141 37.6716L385.294 48.5477L385.298 70.2979L404.147 81.1678Z" fill="#EFEFEF"/>
<path fill-rule="evenodd" clip-rule="evenodd" d="M531.239 81.1678L550.084 70.2917L550.08 48.5436L531.233 37.6716L512.385 48.5477L512.39 70.2979L531.239 81.1678Z" fill="#EFEFEF"/>
<path fill-rule="evenodd" clip-rule="evenodd" d="M1085.62 37.2374L1066.78 48.1136L1066.78 69.8616L1085.63 80.7336L1104.48 69.8575L1104.47 48.1073L1085.62 37.2374Z" fill="#EFEFEF"/>
<path fill-rule="evenodd" clip-rule="evenodd" d="M1107.1 74.3739L1088.26 85.25L1088.26 106.998L1107.11 117.87L1125.96 106.994L1125.95 85.2438L1107.1 74.3739Z" fill="#EFEFEF"/>
<path fill-rule="evenodd" clip-rule="evenodd" d="M1107.1 0.918266L1088.26 11.7944L1088.26 33.5425L1107.11 44.4144L1125.96 33.5383L1125.95 11.7882L1107.1 0.918266Z" fill="#EFEFEF"/>
<path fill-rule="evenodd" clip-rule="evenodd" d="M1149.55 74.3739L1130.71 85.25L1130.71 106.998L1149.56 117.87L1168.4 106.994L1168.4 85.2438L1149.55 74.3739Z" fill="#EFEFEF"/>
<path fill-rule="evenodd" clip-rule="evenodd" d="M1233.94 0.918266L1215.09 11.7944L1215.1 33.5425L1233.94 44.4144L1252.79 33.5383L1252.79 11.7882L1233.94 0.918266Z" fill="#EFEFEF"/>
<path fill-rule="evenodd" clip-rule="evenodd" d="M1276.64 74.3739L1257.8 85.25L1257.8 106.998L1276.65 117.87L1295.5 106.994L1295.49 85.2438L1276.64 74.3739Z" fill="#EFEFEF"/>
<path fill-rule="evenodd" clip-rule="evenodd" d="M1255.16 37.2374L1236.32 48.1136L1236.32 69.8616L1255.17 80.7336L1274.02 69.8575L1274.01 48.1073L1255.16 37.2374Z" fill="#EFEFEF"/>
<path fill-rule="evenodd" clip-rule="evenodd" d="M1128.07 37.2374L1109.23 48.1136L1109.23 69.8616L1128.08 80.7336L1146.92 69.8575L1146.92 48.1073L1128.07 37.2374Z" fill="#EFEFEF"/>
<path fill-rule="evenodd" clip-rule="evenodd" d="M1170.52 37.2374L1151.67 48.1136L1151.68 69.8616L1170.53 80.7336L1189.37 69.8575L1189.37 48.1073L1170.52 37.2374Z" fill="#EFEFEF"/>
<path fill-rule="evenodd" clip-rule="evenodd" d="M1212.97 37.2374L1194.12 48.1136L1194.13 69.8616L1212.98 80.7336L1231.82 69.8575L1231.82 48.1073L1212.97 37.2374Z" fill="#EFEFEF"/>
<path fill-rule="evenodd" clip-rule="evenodd" d="M1297.87 37.2374L1279.02 48.1136L1279.03 69.8616L1297.87 80.7336L1316.72 69.8575L1316.72 48.1073L1297.87 37.2374Z" fill="#EFEFEF"/>
<path fill-rule="evenodd" clip-rule="evenodd" d="M1340.57 37.2374L1321.73 48.1136L1321.73 69.8616L1340.58 80.7336L1359.42 69.8575L1359.42 48.1073L1340.57 37.2374Z" fill="#EFEFEF"/>
<path fill-rule="evenodd" clip-rule="evenodd" d="M1362.05 74.3739L1343.21 85.25L1343.21 106.998L1362.06 117.87L1380.9 106.994L1380.9 85.2438L1362.05 74.3739Z" fill="#EFEFEF"/>
<path fill-rule="evenodd" clip-rule="evenodd" d="M1362.05 0.918266L1343.21 11.7944L1343.21 33.5425L1362.06 44.4144L1380.9 33.5383L1380.9 11.7882L1362.05 0.918266Z" fill="#EFEFEF"/>
<path fill-rule="evenodd" clip-rule="evenodd" d="M1191.74 0.918266L1172.9 11.7944L1172.9 33.5425L1191.75 44.4144L1210.6 33.5383L1210.59 11.7882L1191.74 0.918266Z" fill="#EFEFEF"/>
<path fill-rule="evenodd" clip-rule="evenodd" d="M1383.02 37.2374L1364.18 48.1136L1364.18 69.8616L1383.03 80.7336L1401.87 69.8575L1401.87 48.1073L1383.02 37.2374Z" fill="#EFEFEF"/>
<path fill-rule="evenodd" clip-rule="evenodd" d="M488.79 81.1678L507.635 70.2917L507.631 48.5436L488.784 37.6716L469.936 48.5477L469.941 70.2979L488.79 81.1678Z" fill="#EFEFEF"/>
<path fill-rule="evenodd" clip-rule="evenodd" d="M446.341 81.1678L465.186 70.2917L465.182 48.5436L446.335 37.6716L427.488 48.5477L427.492 70.2979L446.341 81.1678Z" fill="#EFEFEF"/>
<path fill-rule="evenodd" clip-rule="evenodd" d="M913.791 81.1678L932.636 70.2917L932.632 48.5436L913.785 37.6716L894.938 48.5477L894.942 70.2979L913.791 81.1678Z" fill="#EFEFEF"/>
<path fill-rule="evenodd" clip-rule="evenodd" d="M871.342 81.1678L890.187 70.2917L890.183 48.5436L871.336 37.6716L852.488 48.5477L852.493 70.2979L871.342 81.1678Z" fill="#EFEFEF"/>
<path fill-rule="evenodd" clip-rule="evenodd" d="M361.443 81.1678L380.288 70.2917L380.284 48.5436L361.437 37.6716L342.59 48.5477L342.594 70.2979L361.443 81.1678Z" fill="#EFEFEF"/>
<path fill-rule="evenodd" clip-rule="evenodd" d="M233.577 81.1678L214.732 70.2917L214.736 48.5436L233.583 37.6716L252.43 48.5477L252.426 70.2979L233.577 81.1678Z" fill="#EFEFEF"/>
<path fill-rule="evenodd" clip-rule="evenodd" d="M276.026 81.1678L257.181 70.2917L257.185 48.5436L276.032 37.6716L294.879 48.5477L294.875 70.2979L276.026 81.1678Z" fill="#EFEFEF"/>
</g>
<defs>
<filter id="filter0_i" x="-39.9624" y="0.535156" width="1441.84" height="121.335" filterUnits="userSpaceOnUse" color-interpolation-filters="sRGB">
<feFlood flood-opacity="0" result="BackgroundImageFix"/>
<feBlend mode="normal" in="SourceGraphic" in2="BackgroundImageFix" result="shape"/>
<feColorMatrix in="SourceAlpha" type="matrix" values="0 0 0 0 0 0 0 0 0 0 0 0 0 0 0 0 0 0 127 0" result="hardAlpha"/>
<feOffset dy="4"/>
<feGaussianBlur stdDeviation="2"/>
<feComposite in2="hardAlpha" operator="arithmetic" k2="-1" k3="1"/>
<feColorMatrix type="matrix" values="0 0 0 0 0 0 0 0 0 0 0 0 0 0 0 0 0 0 0.25 0"/>
<feBlend mode="normal" in2="shape" result="effect1_innerShadow"/>
</filter>
</defs>
</svg>
