<svg viewBox="0 0 1440 192" fill="none" xmlns="http://www.w3.org/2000/svg">
<g filter="url(#filter0_i)">
<path fill-rule="evenodd" clip-rule="evenodd" d="M71.009 108.969L52.1639 119.845L52.1681 141.593L71.0152 152.465L89.8623 141.589L89.8582 119.839L71.009 108.969Z" fill="white" fill-opacity="0.5"/>
<path fill-rule="evenodd" clip-rule="evenodd" d="M92.4889 146.106L73.6438 156.982L73.648 178.73L92.4951 189.602L111.342 178.726L111.338 156.976L92.4889 146.106Z" fill="white" fill-opacity="0.5"/>
<path fill-rule="evenodd" clip-rule="evenodd" d="M92.4889 72.6502L73.6438 83.5263L73.648 105.274L92.4951 116.146L111.342 105.27L111.338 83.5201L92.4889 72.6502Z" fill="white" fill-opacity="0.5"/>
<path fill-rule="evenodd" clip-rule="evenodd" d="M134.682 72.6502L115.837 83.5263L115.842 105.274L134.689 116.146L153.536 105.27L153.532 83.5201L134.682 72.6502Z" fill="white" fill-opacity="0.5"/>
<path fill-rule="evenodd" clip-rule="evenodd" d="M262.029 146.106L243.184 156.982L243.189 178.73L262.036 189.602L280.883 178.726L280.879 156.976L262.029 146.106Z" fill="white" fill-opacity="0.5"/>
<path fill-rule="evenodd" clip-rule="evenodd" d="M410.856 109.378L392.011 120.254L392.015 142.002L410.863 152.874L429.71 141.998L429.706 120.248L410.856 109.378Z" fill="white" fill-opacity="0.5"/>
<path fill-rule="evenodd" clip-rule="evenodd" d="M240.55 108.969L221.705 119.845L221.709 141.593L240.556 152.465L259.403 141.589L259.399 119.839L240.55 108.969Z" fill="white" fill-opacity="0.5"/>
<path fill-rule="evenodd" clip-rule="evenodd" d="M346.672 72.6502L327.827 83.5263L327.831 105.274L346.678 116.146L365.525 105.27L365.521 83.5201L346.672 72.6502Z" fill="white" fill-opacity="0.5"/>
<path fill-rule="evenodd" clip-rule="evenodd" d="M113.458 108.969L94.6129 119.845L94.6171 141.593L113.464 152.465L132.311 141.589L132.307 119.839L113.458 108.969Z" fill="white" fill-opacity="0.5"/>
<path fill-rule="evenodd" clip-rule="evenodd" d="M155.907 108.969L137.062 119.845L137.066 141.593L155.913 152.465L174.76 141.589L174.756 119.839L155.907 108.969Z" fill="white" fill-opacity="0.5"/>
<path fill-rule="evenodd" clip-rule="evenodd" d="M198.356 108.969L179.511 119.845L179.515 141.593L198.362 152.465L217.209 141.589L217.205 119.839L198.356 108.969Z" fill="white" fill-opacity="0.5"/>
<path fill-rule="evenodd" clip-rule="evenodd" d="M283.254 108.969L264.409 119.845L264.413 141.593L283.26 152.465L302.107 141.589L302.103 119.839L283.254 108.969Z" fill="white" fill-opacity="0.5"/>
<path fill-rule="evenodd" clip-rule="evenodd" d="M920.764 108.969L939.609 119.845L939.604 141.593L920.758 152.465L901.91 141.589L901.915 119.839L920.764 108.969Z" fill="white" fill-opacity="0.5"/>
<path fill-rule="evenodd" clip-rule="evenodd" d="M1134.29 108.969L1153.13 119.845L1153.13 141.593L1134.28 152.465L1115.43 141.589L1115.44 119.839L1134.29 108.969Z" fill="white" fill-opacity="0.5"/>
<path fill-rule="evenodd" clip-rule="evenodd" d="M899.284 146.106L918.129 156.982L918.125 178.73L899.277 189.602L880.43 178.726L880.434 156.976L899.284 146.106Z" fill="white" fill-opacity="0.5"/>
<path fill-rule="evenodd" clip-rule="evenodd" d="M1070.36 72.6502L1089.2 83.5263L1089.2 105.274L1070.35 116.146L1051.5 105.27L1051.51 83.5201L1070.36 72.6502Z" fill="white" fill-opacity="0.5"/>
<path fill-rule="evenodd" clip-rule="evenodd" d="M1070.36 146.106L1089.2 156.982L1089.2 178.73L1070.35 189.602L1051.5 178.726L1051.51 156.976L1070.36 146.106Z" fill="white" fill-opacity="0.5"/>
<path fill-rule="evenodd" clip-rule="evenodd" d="M1091.84 108.969L1110.68 119.845L1110.68 141.593L1091.83 152.465L1072.98 141.589L1072.99 119.839L1091.84 108.969Z" fill="white" fill-opacity="0.5"/>
<path fill-rule="evenodd" clip-rule="evenodd" d="M899.284 72.6502L918.129 83.5263L918.125 105.274L899.277 116.146L880.43 105.27L880.434 83.5201L899.284 72.6502Z" fill="white" fill-opacity="0.5"/>
<path fill-rule="evenodd" clip-rule="evenodd" d="M1027.65 146.106L1046.5 156.982L1046.49 178.73L1027.65 189.602L1008.8 178.726L1008.8 156.976L1027.65 146.106Z" fill="white" fill-opacity="0.5"/>
<path fill-rule="evenodd" clip-rule="evenodd" d="M856.835 146.106L875.68 156.982L875.675 178.73L856.828 189.602L837.981 178.726L837.985 156.976L856.835 146.106Z" fill="white" fill-opacity="0.5"/>
<path fill-rule="evenodd" clip-rule="evenodd" d="M1048.62 108.969L1067.47 119.845L1067.46 141.593L1048.62 152.465L1029.77 141.589L1029.77 119.839L1048.62 108.969Z" fill="white" fill-opacity="0.5"/>
<path fill-rule="evenodd" clip-rule="evenodd" d="M1027.65 72.6502L1046.5 83.5263L1046.49 105.274L1027.65 116.146L1008.8 105.27L1008.8 83.5201L1027.65 72.6502Z" fill="white" fill-opacity="0.5"/>
<path fill-rule="evenodd" clip-rule="evenodd" d="M772.448 72.6502L791.293 83.5263L791.288 105.274L772.441 116.146L753.594 105.27L753.598 83.5201L772.448 72.6502Z" fill="white" fill-opacity="0.5"/>
<path fill-rule="evenodd" clip-rule="evenodd" d="M729.743 146.106L748.588 156.982L748.584 178.73L729.737 189.602L710.89 178.726L710.894 156.976L729.743 146.106Z" fill="white" fill-opacity="0.5"/>
<path fill-rule="evenodd" clip-rule="evenodd" d="M751.223 108.969L770.068 119.845L770.064 141.593L751.217 152.465L732.37 141.589L732.374 119.839L751.223 108.969Z" fill="white" fill-opacity="0.5"/>
<path fill-rule="evenodd" clip-rule="evenodd" d="M878.315 108.969L897.16 119.845L897.156 141.593L878.308 152.465L859.461 141.589L859.465 119.839L878.315 108.969Z" fill="white" fill-opacity="0.5"/>
<path fill-rule="evenodd" clip-rule="evenodd" d="M835.866 108.969L854.711 119.845L854.706 141.593L835.859 152.465L817.012 141.589L817.016 119.839L835.866 108.969Z" fill="white" fill-opacity="0.5"/>
<path fill-rule="evenodd" clip-rule="evenodd" d="M793.417 108.969L812.262 119.845L812.258 141.593L793.41 152.465L774.563 141.589L774.567 119.839L793.417 108.969Z" fill="white" fill-opacity="0.5"/>
<path fill-rule="evenodd" clip-rule="evenodd" d="M708.518 108.969L727.364 119.845L727.359 141.593L708.512 152.465L689.665 141.589L689.669 119.839L708.518 108.969Z" fill="white" fill-opacity="0.5"/>
<path fill-rule="evenodd" clip-rule="evenodd" d="M665.814 108.969L684.659 119.845L684.655 141.593L665.808 152.465L646.961 141.589L646.965 119.839L665.814 108.969Z" fill="white" fill-opacity="0.5"/>
<path fill-rule="evenodd" clip-rule="evenodd" d="M644.334 146.106L663.179 156.982L663.175 178.73L644.328 189.602L625.481 178.726L625.485 156.976L644.334 146.106Z" fill="white" fill-opacity="0.5"/>
<path fill-rule="evenodd" clip-rule="evenodd" d="M644.334 72.6502L663.179 83.5263L663.175 105.274L644.328 116.146L625.481 105.27L625.485 83.5201L644.334 72.6502Z" fill="white" fill-opacity="0.5"/>
<path fill-rule="evenodd" clip-rule="evenodd" d="M814.641 72.6502L833.486 83.5263L833.482 105.274L814.635 116.146L795.788 105.27L795.792 83.5201L814.641 72.6502Z" fill="white" fill-opacity="0.5"/>
<path fill-rule="evenodd" clip-rule="evenodd" d="M474.666 72.6502L493.511 83.5263L493.507 105.274L474.66 116.146L455.813 105.27L455.817 83.5201L474.666 72.6502Z" fill="white" fill-opacity="0.5"/>
<path fill-rule="evenodd" clip-rule="evenodd" d="M474.794 146.106L493.639 156.982L493.635 178.73L474.787 189.602L455.94 178.726L455.944 156.976L474.794 146.106Z" fill="white" fill-opacity="0.5"/>
<path fill-rule="evenodd" clip-rule="evenodd" d="M496.274 108.969L515.119 119.845L515.114 141.593L496.267 152.465L477.42 141.589L477.424 119.839L496.274 108.969Z" fill="white" fill-opacity="0.5"/>
<path fill-rule="evenodd" clip-rule="evenodd" d="M623.365 108.969L642.21 119.845L642.206 141.593L623.359 152.465L604.512 141.589L604.516 119.839L623.365 108.969Z" fill="white" fill-opacity="0.5"/>
<path fill-rule="evenodd" clip-rule="evenodd" d="M1177.75 152.9L1158.9 142.024L1158.91 120.276L1177.75 109.404L1196.6 120.28L1196.6 142.03L1177.75 152.9Z" fill="white" fill-opacity="0.5"/>
<path fill-rule="evenodd" clip-rule="evenodd" d="M1199.23 115.763L1180.38 104.887L1180.39 83.139L1199.23 72.2671L1218.08 83.1432L1218.08 104.893L1199.23 115.763Z" fill="white" fill-opacity="0.5"/>
<path fill-rule="evenodd" clip-rule="evenodd" d="M1199.23 189.219L1180.38 178.343L1180.39 156.595L1199.23 145.723L1218.08 156.599L1218.08 178.349L1199.23 189.219Z" fill="white" fill-opacity="0.5"/>
<path fill-rule="evenodd" clip-rule="evenodd" d="M1241.68 115.763L1222.83 104.887L1222.84 83.139L1241.68 72.2671L1260.53 83.1432L1260.53 104.893L1241.68 115.763Z" fill="white" fill-opacity="0.5"/>
<path fill-rule="evenodd" clip-rule="evenodd" d="M1326.06 189.219L1307.22 178.343L1307.22 156.595L1326.07 145.723L1344.92 156.599L1344.91 178.349L1326.06 189.219Z" fill="white" fill-opacity="0.5"/>
<path fill-rule="evenodd" clip-rule="evenodd" d="M1368.77 115.763L1349.92 104.887L1349.93 83.139L1368.77 72.2671L1387.62 83.1432L1387.62 104.893L1368.77 115.763Z" fill="white" fill-opacity="0.5"/>
<path fill-rule="evenodd" clip-rule="evenodd" d="M1347.29 152.9L1328.44 142.024L1328.45 120.276L1347.29 109.404L1366.14 120.28L1366.14 142.03L1347.29 152.9Z" fill="white" fill-opacity="0.5"/>
<path fill-rule="evenodd" clip-rule="evenodd" d="M1220.2 152.9L1201.35 142.024L1201.36 120.276L1220.2 109.404L1239.05 120.28L1239.05 142.03L1220.2 152.9Z" fill="white" fill-opacity="0.5"/>
<path fill-rule="evenodd" clip-rule="evenodd" d="M1262.65 152.9L1243.8 142.024L1243.81 120.276L1262.65 109.404L1281.5 120.28L1281.5 142.03L1262.65 152.9Z" fill="white" fill-opacity="0.5"/>
<path fill-rule="evenodd" clip-rule="evenodd" d="M1305.1 152.9L1286.25 142.024L1286.25 120.276L1305.1 109.404L1323.95 120.28L1323.94 142.03L1305.1 152.9Z" fill="white" fill-opacity="0.5"/>
<path fill-rule="evenodd" clip-rule="evenodd" d="M1389.99 152.9L1371.15 142.024L1371.15 120.276L1390 109.404L1408.85 120.28L1408.84 142.03L1389.99 152.9Z" fill="white" fill-opacity="0.5"/>
<path fill-rule="evenodd" clip-rule="evenodd" d="M1432.7 152.9L1413.85 142.024L1413.86 120.276L1432.7 109.404L1451.55 120.28L1451.55 142.03L1432.7 152.9Z" fill="white" fill-opacity="0.5"/>
<path fill-rule="evenodd" clip-rule="evenodd" d="M1454.18 115.763L1435.33 104.887L1435.34 83.139L1454.18 72.2671L1473.03 83.1432L1473.03 104.893L1454.18 115.763Z" fill="white" fill-opacity="0.5"/>
<path fill-rule="evenodd" clip-rule="evenodd" d="M1454.18 189.219L1435.33 178.343L1435.34 156.595L1454.18 145.723L1473.03 156.599L1473.03 178.349L1454.18 189.219Z" fill="white" fill-opacity="0.5"/>
<path fill-rule="evenodd" clip-rule="evenodd" d="M1283.87 189.219L1265.03 178.343L1265.03 156.595L1283.88 145.723L1302.72 156.599L1302.72 178.349L1283.87 189.219Z" fill="white" fill-opacity="0.5"/>
<path fill-rule="evenodd" clip-rule="evenodd" d="M1475.15 152.9L1456.3 142.024L1456.31 120.276L1475.15 109.404L1494 120.28L1494 142.03L1475.15 152.9Z" fill="white" fill-opacity="0.5"/>
<path fill-rule="evenodd" clip-rule="evenodd" d="M580.916 108.969L599.761 119.845L599.757 141.593L580.91 152.465L562.063 141.589L562.067 119.839L580.916 108.969Z" fill="white" fill-opacity="0.5"/>
<path fill-rule="evenodd" clip-rule="evenodd" d="M538.467 108.969L557.312 119.845L557.308 141.593L538.461 152.465L519.614 141.589L519.618 119.839L538.467 108.969Z" fill="white" fill-opacity="0.5"/>
<path fill-rule="evenodd" clip-rule="evenodd" d="M1005.92 108.969L1024.76 119.845L1024.76 141.593L1005.91 152.465L987.064 141.589L987.068 119.839L1005.92 108.969Z" fill="white" fill-opacity="0.5"/>
<path fill-rule="evenodd" clip-rule="evenodd" d="M963.468 108.969L982.313 119.845L982.309 141.593L963.462 152.465L944.615 141.589L944.619 119.839L963.468 108.969Z" fill="white" fill-opacity="0.5"/>
<path fill-rule="evenodd" clip-rule="evenodd" d="M453.569 108.969L472.414 119.845L472.41 141.593L453.563 152.465L434.716 141.589L434.72 119.839L453.569 108.969Z" fill="white" fill-opacity="0.5"/>
<path fill-rule="evenodd" clip-rule="evenodd" d="M325.703 108.969L306.858 119.845L306.862 141.593L325.709 152.465L344.556 141.589L344.552 119.839L325.703 108.969Z" fill="white" fill-opacity="0.5"/>
<path fill-rule="evenodd" clip-rule="evenodd" d="M368.152 108.969L349.307 119.845L349.311 141.593L368.158 152.465L387.005 141.589L387.001 119.839L368.152 108.969Z" fill="white" fill-opacity="0.5"/>
<path fill-rule="evenodd" clip-rule="evenodd" d="M6.84505 73.0589L-12 83.935L-11.9958 105.683L6.85127 116.555L25.6984 105.679L25.6943 83.9287L6.84505 73.0589Z" fill="white" fill-opacity="0.5"/>
<path fill-rule="evenodd" clip-rule="evenodd" d="M27.4867 110.759L8.64169 121.635L8.64585 143.383L27.493 154.255L46.3401 143.379L46.336 121.628L27.4867 110.759Z" fill="white" fill-opacity="0.5"/>
<path fill-rule="evenodd" clip-rule="evenodd" d="M50.3735 146.074L31.5285 156.95L31.5326 178.698L50.3797 189.57L69.2268 178.694L69.2227 156.944L50.3735 146.074Z" fill="white" fill-opacity="0.5"/>
<path fill-rule="evenodd" clip-rule="evenodd" d="M7.38375 148.374L-11.4613 159.25L-11.4571 180.998L7.38998 191.87L26.2371 180.994L26.233 159.244L7.38375 148.374Z" fill="white" fill-opacity="0.5"/>
</g>
<g filter="url(#filter1_i)">
<path fill-rule="evenodd" clip-rule="evenodd" d="M27.8826 36.7023L9.0376 47.5785L9.04175 69.3265L27.8889 80.1985L46.736 69.3224L46.7318 47.5722L27.8826 36.7023Z" fill="#EFEFEF"/>
<path fill-rule="evenodd" clip-rule="evenodd" d="M49.3625 73.8388L30.5175 84.7149L30.5217 106.463L49.3688 117.335L68.2159 106.459L68.2118 84.7087L49.3625 73.8388Z" fill="#EFEFEF"/>
<path fill-rule="evenodd" clip-rule="evenodd" d="M49.3625 0.383186L30.5175 11.2593L30.5217 33.0074L49.3688 43.8793L68.2159 33.0032L68.2118 11.2531L49.3625 0.383186Z" fill="#EFEFEF"/>
<path fill-rule="evenodd" clip-rule="evenodd" d="M91.5562 0.383186L72.7111 11.2593L72.7153 33.0074L91.5624 43.8793L110.41 33.0032L110.405 11.2531L91.5562 0.383186Z" fill="#EFEFEF"/>
<path fill-rule="evenodd" clip-rule="evenodd" d="M176.199 0.383186L157.354 11.2593L157.358 33.0074L176.205 43.8793L195.052 33.0032L195.048 11.2531L176.199 0.383186Z" fill="#EFEFEF"/>
<path fill-rule="evenodd" clip-rule="evenodd" d="M218.903 73.8388L200.058 84.7149L200.062 106.463L218.909 117.335L237.757 106.459L237.752 84.7087L218.903 73.8388Z" fill="#EFEFEF"/>
<path fill-rule="evenodd" clip-rule="evenodd" d="M367.73 37.111L348.885 47.9871L348.889 69.7352L367.736 80.6071L386.583 69.731L386.579 47.9809L367.73 37.111Z" fill="#EFEFEF"/>
<path fill-rule="evenodd" clip-rule="evenodd" d="M197.423 36.7023L178.578 47.5785L178.582 69.3265L197.43 80.1985L216.277 69.3224L216.272 47.5722L197.423 36.7023Z" fill="#EFEFEF"/>
<path fill-rule="evenodd" clip-rule="evenodd" d="M303.546 0.383186L284.701 11.2593L284.705 33.0074L303.552 43.8793L322.399 33.0032L322.395 11.2531L303.546 0.383186Z" fill="#EFEFEF"/>
<path fill-rule="evenodd" clip-rule="evenodd" d="M70.3317 36.7023L51.4866 47.5785L51.4908 69.3265L70.3379 80.1985L89.185 69.3224L89.1809 47.5722L70.3317 36.7023Z" fill="#EFEFEF"/>
<path fill-rule="evenodd" clip-rule="evenodd" d="M112.781 36.7023L93.9356 47.5785L93.9398 69.3265L112.787 80.1985L131.634 69.3224L131.63 47.5722L112.781 36.7023Z" fill="#EFEFEF"/>
<path fill-rule="evenodd" clip-rule="evenodd" d="M155.23 36.7023L136.385 47.5785L136.389 69.3265L155.236 80.1985L174.083 69.3224L174.079 47.5722L155.23 36.7023Z" fill="#EFEFEF"/>
<path fill-rule="evenodd" clip-rule="evenodd" d="M240.128 36.7023L221.283 47.5785L221.287 69.3265L240.134 80.1985L258.981 69.3224L258.977 47.5722L240.128 36.7023Z" fill="#EFEFEF"/>
<path fill-rule="evenodd" clip-rule="evenodd" d="M877.637 36.7023L896.483 47.5785L896.478 69.3265L877.631 80.1985L858.784 69.3224L858.788 47.5722L877.637 36.7023Z" fill="#EFEFEF"/>
<path fill-rule="evenodd" clip-rule="evenodd" d="M1091.16 36.7023L1110 47.5785L1110 69.3265L1091.15 80.1985L1072.31 69.3224L1072.31 47.5722L1091.16 36.7023Z" fill="#EFEFEF"/>
<path fill-rule="evenodd" clip-rule="evenodd" d="M856.158 73.8388L875.003 84.7149L874.998 106.463L856.151 117.335L837.304 106.459L837.308 84.7087L856.158 73.8388Z" fill="#EFEFEF"/>
<path fill-rule="evenodd" clip-rule="evenodd" d="M1027.23 0.383186L1046.08 11.2593L1046.07 33.0074L1027.22 43.8793L1008.38 33.0032L1008.38 11.2531L1027.23 0.383186Z" fill="#EFEFEF"/>
<path fill-rule="evenodd" clip-rule="evenodd" d="M1027.23 73.8388L1046.08 84.7149L1046.07 106.463L1027.22 117.335L1008.38 106.459L1008.38 84.7087L1027.23 73.8388Z" fill="#EFEFEF"/>
<path fill-rule="evenodd" clip-rule="evenodd" d="M1048.71 36.7023L1067.56 47.5785L1067.55 69.3265L1048.7 80.1985L1029.86 69.3224L1029.86 47.5722L1048.71 36.7023Z" fill="#EFEFEF"/>
<path fill-rule="evenodd" clip-rule="evenodd" d="M856.158 0.383186L875.003 11.2593L874.998 33.0074L856.151 43.8793L837.304 33.0032L837.308 11.2531L856.158 0.383186Z" fill="#EFEFEF"/>
<path fill-rule="evenodd" clip-rule="evenodd" d="M984.526 73.8388L1003.37 84.7149L1003.37 106.463L984.52 117.335L965.673 106.459L965.677 84.7087L984.526 73.8388Z" fill="#EFEFEF"/>
<path fill-rule="evenodd" clip-rule="evenodd" d="M813.708 73.8388L832.553 84.7149L832.549 106.463L813.702 117.335L794.855 106.459L794.859 84.7087L813.708 73.8388Z" fill="#EFEFEF"/>
<path fill-rule="evenodd" clip-rule="evenodd" d="M1005.5 36.7023L1024.34 47.5785L1024.34 69.3265L1005.49 80.1985L986.642 69.3224L986.646 47.5722L1005.5 36.7023Z" fill="#EFEFEF"/>
<path fill-rule="evenodd" clip-rule="evenodd" d="M984.526 0.383186L1003.37 11.2593L1003.37 33.0074L984.52 43.8793L965.673 33.0032L965.677 11.2531L984.526 0.383186Z" fill="#EFEFEF"/>
<path fill-rule="evenodd" clip-rule="evenodd" d="M729.321 0.383186L748.166 11.2593L748.162 33.0074L729.315 43.8793L710.468 33.0032L710.472 11.2531L729.321 0.383186Z" fill="#EFEFEF"/>
<path fill-rule="evenodd" clip-rule="evenodd" d="M686.617 73.8388L705.462 84.7149L705.458 106.463L686.611 117.335L667.763 106.459L667.768 84.7087L686.617 73.8388Z" fill="#EFEFEF"/>
<path fill-rule="evenodd" clip-rule="evenodd" d="M708.097 36.7023L726.942 47.5785L726.938 69.3265L708.091 80.1985L689.243 69.3224L689.248 47.5722L708.097 36.7023Z" fill="#EFEFEF"/>
<path fill-rule="evenodd" clip-rule="evenodd" d="M835.188 36.7023L854.033 47.5785L854.029 69.3265L835.182 80.1985L816.335 69.3224L816.339 47.5722L835.188 36.7023Z" fill="#EFEFEF"/>
<path fill-rule="evenodd" clip-rule="evenodd" d="M792.739 36.7023L811.584 47.5785L811.58 69.3265L792.733 80.1985L773.886 69.3224L773.89 47.5722L792.739 36.7023Z" fill="#EFEFEF"/>
<path fill-rule="evenodd" clip-rule="evenodd" d="M750.29 36.7023L769.135 47.5785L769.131 69.3265L750.284 80.1985L731.437 69.3224L731.441 47.5722L750.29 36.7023Z" fill="#EFEFEF"/>
<path fill-rule="evenodd" clip-rule="evenodd" d="M665.392 36.7023L684.237 47.5785L684.233 69.3265L665.386 80.1985L646.539 69.3224L646.543 47.5722L665.392 36.7023Z" fill="#EFEFEF"/>
<path fill-rule="evenodd" clip-rule="evenodd" d="M622.688 36.7023L641.533 47.5785L641.529 69.3265L622.682 80.1985L603.835 69.3224L603.839 47.5722L622.688 36.7023Z" fill="#EFEFEF"/>
<path fill-rule="evenodd" clip-rule="evenodd" d="M601.208 73.8388L620.053 84.7149L620.049 106.463L601.202 117.335L582.355 106.459L582.359 84.7087L601.208 73.8388Z" fill="#EFEFEF"/>
<path fill-rule="evenodd" clip-rule="evenodd" d="M601.208 0.383186L620.053 11.2593L620.049 33.0074L601.202 43.8793L582.355 33.0032L582.359 11.2531L601.208 0.383186Z" fill="#EFEFEF"/>
<path fill-rule="evenodd" clip-rule="evenodd" d="M771.515 0.383186L790.36 11.2593L790.356 33.0074L771.509 43.8793L752.661 33.0032L752.666 11.2531L771.515 0.383186Z" fill="#EFEFEF"/>
<path fill-rule="evenodd" clip-rule="evenodd" d="M431.54 0.383186L450.385 11.2593L450.381 33.0074L431.533 43.8793L412.686 33.0032L412.69 11.2531L431.54 0.383186Z" fill="#EFEFEF"/>
<path fill-rule="evenodd" clip-rule="evenodd" d="M431.667 73.8388L450.512 84.7149L450.508 106.463L431.661 117.335L412.814 106.459L412.818 84.7087L431.667 73.8388Z" fill="#EFEFEF"/>
<path fill-rule="evenodd" clip-rule="evenodd" d="M453.147 36.7023L471.992 47.5785L471.988 69.3265L453.141 80.1985L434.294 69.3224L434.298 47.5722L453.147 36.7023Z" fill="#EFEFEF"/>
<path fill-rule="evenodd" clip-rule="evenodd" d="M580.239 36.7023L599.084 47.5785L599.08 69.3265L580.233 80.1985L561.385 69.3224L561.39 47.5722L580.239 36.7023Z" fill="#EFEFEF"/>
<path fill-rule="evenodd" clip-rule="evenodd" d="M1134.62 80.6327L1115.78 69.7566L1115.78 48.0085L1134.63 37.1365L1153.48 48.0126L1153.47 69.7628L1134.62 80.6327Z" fill="#EFEFEF"/>
<path fill-rule="evenodd" clip-rule="evenodd" d="M1156.1 43.4962L1137.26 32.6201L1137.26 10.872L1156.11 6.10352e-05L1174.96 10.8762L1174.95 32.6263L1156.1 43.4962Z" fill="#EFEFEF"/>
<path fill-rule="evenodd" clip-rule="evenodd" d="M1156.1 116.952L1137.26 106.076L1137.26 84.3277L1156.11 73.4557L1174.96 84.3318L1174.95 106.082L1156.1 116.952Z" fill="#EFEFEF"/>
<path fill-rule="evenodd" clip-rule="evenodd" d="M1198.55 43.4962L1179.71 32.6201L1179.71 10.872L1198.56 6.10352e-05L1217.4 10.8762L1217.4 32.6263L1198.55 43.4962Z" fill="#EFEFEF"/>
<path fill-rule="evenodd" clip-rule="evenodd" d="M1282.94 116.952L1264.09 106.076L1264.1 84.3277L1282.94 73.4557L1301.79 84.3318L1301.79 106.082L1282.94 116.952Z" fill="#EFEFEF"/>
<path fill-rule="evenodd" clip-rule="evenodd" d="M1325.64 43.4962L1306.8 32.6201L1306.8 10.872L1325.65 6.10352e-05L1344.5 10.8762L1344.49 32.6263L1325.64 43.4962Z" fill="#EFEFEF"/>
<path fill-rule="evenodd" clip-rule="evenodd" d="M1304.16 80.6327L1285.32 69.7566L1285.32 48.0085L1304.17 37.1365L1323.02 48.0126L1323.01 69.7628L1304.16 80.6327Z" fill="#EFEFEF"/>
<path fill-rule="evenodd" clip-rule="evenodd" d="M1177.07 80.6327L1158.23 69.7566L1158.23 48.0085L1177.08 37.1365L1195.92 48.0126L1195.92 69.7628L1177.07 80.6327Z" fill="#EFEFEF"/>
<path fill-rule="evenodd" clip-rule="evenodd" d="M1219.52 80.6327L1200.67 69.7566L1200.68 48.0085L1219.53 37.1365L1238.37 48.0126L1238.37 69.7628L1219.52 80.6327Z" fill="#EFEFEF"/>
<path fill-rule="evenodd" clip-rule="evenodd" d="M1261.97 80.6327L1243.12 69.7566L1243.13 48.0085L1261.98 37.1365L1280.82 48.0126L1280.82 69.7628L1261.97 80.6327Z" fill="#EFEFEF"/>
<path fill-rule="evenodd" clip-rule="evenodd" d="M1346.87 80.6327L1328.02 69.7566L1328.03 48.0085L1346.87 37.1365L1365.72 48.0126L1365.72 69.7628L1346.87 80.6327Z" fill="#EFEFEF"/>
<path fill-rule="evenodd" clip-rule="evenodd" d="M1389.57 80.6327L1370.73 69.7566L1370.73 48.0085L1389.58 37.1365L1408.42 48.0126L1408.42 69.7628L1389.57 80.6327Z" fill="#EFEFEF"/>
<path fill-rule="evenodd" clip-rule="evenodd" d="M1411.05 43.4962L1392.21 32.6201L1392.21 10.872L1411.06 6.10352e-05L1429.9 10.8762L1429.9 32.6263L1411.05 43.4962Z" fill="#EFEFEF"/>
<path fill-rule="evenodd" clip-rule="evenodd" d="M1411.05 116.952L1392.21 106.076L1392.21 84.3277L1411.06 73.4557L1429.9 84.3318L1429.9 106.082L1411.05 116.952Z" fill="#EFEFEF"/>
<path fill-rule="evenodd" clip-rule="evenodd" d="M1240.74 116.952L1221.9 106.076L1221.9 84.3277L1240.75 73.4557L1259.6 84.3318L1259.59 106.082L1240.74 116.952Z" fill="#EFEFEF"/>
<path fill-rule="evenodd" clip-rule="evenodd" d="M1432.02 80.6327L1413.18 69.7566L1413.18 48.0085L1432.03 37.1365L1450.87 48.0126L1450.87 69.7628L1432.02 80.6327Z" fill="#EFEFEF"/>
<path fill-rule="evenodd" clip-rule="evenodd" d="M537.79 36.7023L556.635 47.5785L556.631 69.3265L537.784 80.1985L518.936 69.3224L518.941 47.5722L537.79 36.7023Z" fill="#EFEFEF"/>
<path fill-rule="evenodd" clip-rule="evenodd" d="M495.341 36.7023L514.186 47.5785L514.182 69.3265L495.335 80.1985L476.488 69.3224L476.492 47.5722L495.341 36.7023Z" fill="#EFEFEF"/>
<path fill-rule="evenodd" clip-rule="evenodd" d="M962.791 36.7023L981.636 47.5785L981.632 69.3265L962.785 80.1985L943.938 69.3224L943.942 47.5722L962.791 36.7023Z" fill="#EFEFEF"/>
<path fill-rule="evenodd" clip-rule="evenodd" d="M920.342 36.7023L939.187 47.5785L939.183 69.3265L920.336 80.1985L901.488 69.3224L901.493 47.5722L920.342 36.7023Z" fill="#EFEFEF"/>
<path fill-rule="evenodd" clip-rule="evenodd" d="M410.443 36.7023L429.288 47.5785L429.284 69.3265L410.437 80.1985L391.59 69.3224L391.594 47.5722L410.443 36.7023Z" fill="#EFEFEF"/>
<path fill-rule="evenodd" clip-rule="evenodd" d="M282.577 36.7023L263.732 47.5785L263.736 69.3265L282.583 80.1985L301.43 69.3224L301.426 47.5722L282.577 36.7023Z" fill="#EFEFEF"/>
<path fill-rule="evenodd" clip-rule="evenodd" d="M325.026 36.7023L306.181 47.5785L306.185 69.3265L325.032 80.1985L343.879 69.3224L343.875 47.5722L325.026 36.7023Z" fill="#EFEFEF"/>
</g>
<defs>
<filter id="filter0_i" x="-12" y="72.2671" width="1506" height="123.603" filterUnits="userSpaceOnUse" color-interpolation-filters="sRGB">
<feFlood flood-opacity="0" result="BackgroundImageFix"/>
<feBlend mode="normal" in="SourceGraphic" in2="BackgroundImageFix" result="shape"/>
<feColorMatrix in="SourceAlpha" type="matrix" values="0 0 0 0 0 0 0 0 0 0 0 0 0 0 0 0 0 0 127 0" result="hardAlpha"/>
<feOffset dy="4"/>
<feGaussianBlur stdDeviation="2"/>
<feComposite in2="hardAlpha" operator="arithmetic" k2="-1" k3="1"/>
<feColorMatrix type="matrix" values="0 0 0 0 0 0 0 0 0 0 0 0 0 0 0 0 0 0 0.25 0"/>
<feBlend mode="normal" in2="shape" result="effect1_innerShadow"/>
</filter>
<filter id="filter1_i" x="9.0376" y="0" width="1441.84" height="121.335" filterUnits="userSpaceOnUse" color-interpolation-filters="sRGB">
<feFlood flood-opacity="0" result="BackgroundImageFix"/>
<feBlend mode="normal" in="SourceGraphic" in2="BackgroundImageFix" result="shape"/>
<feColorMatrix in="SourceAlpha" type="matrix" values="0 0 0 0 0 0 0 0 0 0 0 0 0 0 0 0 0 0 127 0" result="hardAlpha"/>
<feOffset dy="4"/>
<feGaussianBlur stdDeviation="2"/>
<feComposite in2="hardAlpha" operator="arithmetic" k2="-1" k3="1"/>
<feColorMatrix type="matrix" values="0 0 0 0 0 0 0 0 0 0 0 0 0 0 0 0 0 0 0.25 0"/>
<feBlend mode="normal" in2="shape" result="effect1_innerShadow"/>
</filter>
</defs>
</svg>
