<svg viewBox="0 0 1440 120" fill="none" xmlns="http://www.w3.org/2000/svg">
<g filter="url(#filter0_i)">
<path fill-rule="evenodd" clip-rule="evenodd" d="M22.009 82.9007L3.16392 72.0246L3.16807 50.2766L22.0152 39.4047L40.8623 50.2808L40.8582 72.0309L22.009 82.9007Z" fill="white" fill-opacity="0.5"/>
<path fill-rule="evenodd" clip-rule="evenodd" d="M43.4889 45.7643L24.6438 34.8882L24.648 13.1402L43.4951 2.26821L62.3422 13.1443L62.3381 34.8945L43.4889 45.7643Z" fill="white" fill-opacity="0.5"/>
<path fill-rule="evenodd" clip-rule="evenodd" d="M43.4889 119.22L24.6438 108.344L24.648 86.5957L43.4951 75.7238L62.3422 86.5999L62.3381 108.35L43.4889 119.22Z" fill="white" fill-opacity="0.5"/>
<path fill-rule="evenodd" clip-rule="evenodd" d="M85.6824 119.22L66.8374 108.344L66.8416 86.5957L85.6887 75.7238L104.536 86.5999L104.532 108.35L85.6824 119.22Z" fill="white" fill-opacity="0.5"/>
<path fill-rule="evenodd" clip-rule="evenodd" d="M213.029 45.7643L194.184 34.8882L194.189 13.1402L213.036 2.26821L231.883 13.1443L231.879 34.8945L213.029 45.7643Z" fill="white" fill-opacity="0.5"/>
<path fill-rule="evenodd" clip-rule="evenodd" d="M361.856 82.4921L343.011 71.616L343.015 49.868L361.863 38.996L380.71 49.8721L380.706 71.6222L361.856 82.4921Z" fill="white" fill-opacity="0.5"/>
<path fill-rule="evenodd" clip-rule="evenodd" d="M191.55 82.9007L172.705 72.0246L172.709 50.2766L191.556 39.4047L210.403 50.2808L210.399 72.0309L191.55 82.9007Z" fill="white" fill-opacity="0.5"/>
<path fill-rule="evenodd" clip-rule="evenodd" d="M297.672 119.22L278.827 108.344L278.831 86.5957L297.678 75.7238L316.525 86.5999L316.521 108.35L297.672 119.22Z" fill="white" fill-opacity="0.5"/>
<path fill-rule="evenodd" clip-rule="evenodd" d="M64.458 82.9007L45.6129 72.0246L45.6171 50.2766L64.4642 39.4047L83.3113 50.2808L83.3072 72.0309L64.458 82.9007Z" fill="white" fill-opacity="0.5"/>
<path fill-rule="evenodd" clip-rule="evenodd" d="M106.907 82.9007L88.0619 72.0246L88.0661 50.2766L106.913 39.4047L125.76 50.2808L125.756 72.0309L106.907 82.9007Z" fill="white" fill-opacity="0.5"/>
<path fill-rule="evenodd" clip-rule="evenodd" d="M149.356 82.9007L130.511 72.0246L130.515 50.2766L149.362 39.4047L168.209 50.2808L168.205 72.0309L149.356 82.9007Z" fill="white" fill-opacity="0.5"/>
<path fill-rule="evenodd" clip-rule="evenodd" d="M234.254 82.9007L215.409 72.0246L215.413 50.2766L234.26 39.4047L253.107 50.2808L253.103 72.0309L234.254 82.9007Z" fill="white" fill-opacity="0.5"/>
<path fill-rule="evenodd" clip-rule="evenodd" d="M871.764 82.9007L890.609 72.0246L890.604 50.2766L871.758 39.4047L852.91 50.2808L852.915 72.0309L871.764 82.9007Z" fill="white" fill-opacity="0.5"/>
<path fill-rule="evenodd" clip-rule="evenodd" d="M1085.29 82.9007L1104.13 72.0246L1104.13 50.2766L1085.28 39.4047L1066.43 50.2808L1066.44 72.0309L1085.29 82.9007Z" fill="white" fill-opacity="0.5"/>
<path fill-rule="evenodd" clip-rule="evenodd" d="M850.284 45.7643L869.129 34.8882L869.125 13.1402L850.277 2.26821L831.43 13.1443L831.434 34.8945L850.284 45.7643Z" fill="white" fill-opacity="0.5"/>
<path fill-rule="evenodd" clip-rule="evenodd" d="M1021.36 119.22L1040.2 108.344L1040.2 86.5957L1021.35 75.7238L1002.5 86.5999L1002.51 108.35L1021.36 119.22Z" fill="white" fill-opacity="0.5"/>
<path fill-rule="evenodd" clip-rule="evenodd" d="M1021.36 45.7643L1040.2 34.8882L1040.2 13.1402L1021.35 2.26821L1002.5 13.1443L1002.51 34.8945L1021.36 45.7643Z" fill="white" fill-opacity="0.5"/>
<path fill-rule="evenodd" clip-rule="evenodd" d="M1042.84 82.9007L1061.68 72.0246L1061.68 50.2766L1042.83 39.4047L1023.98 50.2808L1023.99 72.0309L1042.84 82.9007Z" fill="white" fill-opacity="0.5"/>
<path fill-rule="evenodd" clip-rule="evenodd" d="M850.284 119.22L869.129 108.344L869.125 86.5957L850.277 75.7238L831.43 86.5999L831.434 108.35L850.284 119.22Z" fill="white" fill-opacity="0.5"/>
<path fill-rule="evenodd" clip-rule="evenodd" d="M978.652 45.7643L997.497 34.8882L997.493 13.1402L978.646 2.26821L959.799 13.1443L959.803 34.8945L978.652 45.7643Z" fill="white" fill-opacity="0.5"/>
<path fill-rule="evenodd" clip-rule="evenodd" d="M807.835 45.7643L826.68 34.8882L826.675 13.1402L807.828 2.26821L788.981 13.1443L788.985 34.8945L807.835 45.7643Z" fill="white" fill-opacity="0.5"/>
<path fill-rule="evenodd" clip-rule="evenodd" d="M999.621 82.9007L1018.47 72.0246L1018.46 50.2766L999.615 39.4047L980.768 50.2808L980.772 72.0309L999.621 82.9007Z" fill="white" fill-opacity="0.5"/>
<path fill-rule="evenodd" clip-rule="evenodd" d="M978.652 119.22L997.497 108.344L997.493 86.5957L978.646 75.7238L959.799 86.5999L959.803 108.35L978.652 119.22Z" fill="white" fill-opacity="0.5"/>
<path fill-rule="evenodd" clip-rule="evenodd" d="M723.448 119.22L742.293 108.344L742.288 86.5957L723.441 75.7238L704.594 86.5999L704.598 108.35L723.448 119.22Z" fill="white" fill-opacity="0.5"/>
<path fill-rule="evenodd" clip-rule="evenodd" d="M680.743 45.7643L699.588 34.8882L699.584 13.1402L680.737 2.26821L661.89 13.1443L661.894 34.8945L680.743 45.7643Z" fill="white" fill-opacity="0.5"/>
<path fill-rule="evenodd" clip-rule="evenodd" d="M702.223 82.9007L721.068 72.0246L721.064 50.2766L702.217 39.4047L683.37 50.2808L683.374 72.0309L702.223 82.9007Z" fill="white" fill-opacity="0.5"/>
<path fill-rule="evenodd" clip-rule="evenodd" d="M829.315 82.9007L848.16 72.0246L848.156 50.2766L829.308 39.4047L810.461 50.2808L810.465 72.0309L829.315 82.9007Z" fill="white" fill-opacity="0.5"/>
<path fill-rule="evenodd" clip-rule="evenodd" d="M786.866 82.9007L805.711 72.0246L805.706 50.2766L786.859 39.4047L768.012 50.2808L768.016 72.0309L786.866 82.9007Z" fill="white" fill-opacity="0.5"/>
<path fill-rule="evenodd" clip-rule="evenodd" d="M744.417 82.9007L763.262 72.0246L763.258 50.2766L744.41 39.4047L725.563 50.2808L725.567 72.0309L744.417 82.9007Z" fill="white" fill-opacity="0.5"/>
<path fill-rule="evenodd" clip-rule="evenodd" d="M659.518 82.9007L678.364 72.0246L678.359 50.2766L659.512 39.4047L640.665 50.2808L640.669 72.0309L659.518 82.9007Z" fill="white" fill-opacity="0.5"/>
<path fill-rule="evenodd" clip-rule="evenodd" d="M616.814 82.9007L635.659 72.0246L635.655 50.2766L616.808 39.4047L597.961 50.2808L597.965 72.0309L616.814 82.9007Z" fill="white" fill-opacity="0.5"/>
<path fill-rule="evenodd" clip-rule="evenodd" d="M595.334 45.7643L614.179 34.8882L614.175 13.1402L595.328 2.26821L576.481 13.1443L576.485 34.8945L595.334 45.7643Z" fill="white" fill-opacity="0.5"/>
<path fill-rule="evenodd" clip-rule="evenodd" d="M595.334 119.22L614.179 108.344L614.175 86.5957L595.328 75.7238L576.481 86.5999L576.485 108.35L595.334 119.22Z" fill="white" fill-opacity="0.5"/>
<path fill-rule="evenodd" clip-rule="evenodd" d="M765.641 119.22L784.486 108.344L784.482 86.5957L765.635 75.7238L746.788 86.5999L746.792 108.35L765.641 119.22Z" fill="white" fill-opacity="0.5"/>
<path fill-rule="evenodd" clip-rule="evenodd" d="M425.666 119.22L444.511 108.344L444.507 86.5957L425.66 75.7238L406.813 86.5999L406.817 108.35L425.666 119.22Z" fill="white" fill-opacity="0.5"/>
<path fill-rule="evenodd" clip-rule="evenodd" d="M425.794 45.7643L444.639 34.8882L444.635 13.1402L425.787 2.26821L406.94 13.1443L406.944 34.8945L425.794 45.7643Z" fill="white" fill-opacity="0.5"/>
<path fill-rule="evenodd" clip-rule="evenodd" d="M447.274 82.9007L466.119 72.0246L466.114 50.2766L447.267 39.4047L428.42 50.2808L428.424 72.0309L447.274 82.9007Z" fill="white" fill-opacity="0.5"/>
<path fill-rule="evenodd" clip-rule="evenodd" d="M574.365 82.9007L593.21 72.0246L593.206 50.2766L574.359 39.4047L555.512 50.2808L555.516 72.0309L574.365 82.9007Z" fill="white" fill-opacity="0.5"/>
<path fill-rule="evenodd" clip-rule="evenodd" d="M1128.75 38.9705L1109.9 49.8466L1109.91 71.5946L1128.75 82.4666L1147.6 71.5905L1147.6 49.8404L1128.75 38.9705Z" fill="white" fill-opacity="0.5"/>
<path fill-rule="evenodd" clip-rule="evenodd" d="M1150.23 76.1069L1131.38 86.983L1131.39 108.731L1150.23 119.603L1169.08 108.727L1169.08 86.9768L1150.23 76.1069Z" fill="white" fill-opacity="0.5"/>
<path fill-rule="evenodd" clip-rule="evenodd" d="M1150.23 2.65132L1131.38 13.5274L1131.39 35.2755L1150.23 46.1475L1169.08 35.2714L1169.08 13.5212L1150.23 2.65132Z" fill="white" fill-opacity="0.5"/>
<path fill-rule="evenodd" clip-rule="evenodd" d="M1192.68 76.1069L1173.83 86.983L1173.84 108.731L1192.68 119.603L1211.53 108.727L1211.53 86.9768L1192.68 76.1069Z" fill="white" fill-opacity="0.5"/>
<path fill-rule="evenodd" clip-rule="evenodd" d="M1277.06 2.65132L1258.22 13.5274L1258.22 35.2755L1277.07 46.1475L1295.92 35.2714L1295.91 13.5212L1277.06 2.65132Z" fill="white" fill-opacity="0.5"/>
<path fill-rule="evenodd" clip-rule="evenodd" d="M1319.77 76.1069L1300.92 86.983L1300.93 108.731L1319.77 119.603L1338.62 108.727L1338.62 86.9768L1319.77 76.1069Z" fill="white" fill-opacity="0.5"/>
<path fill-rule="evenodd" clip-rule="evenodd" d="M1298.29 38.9705L1279.44 49.8466L1279.45 71.5946L1298.29 82.4666L1317.14 71.5905L1317.14 49.8404L1298.29 38.9705Z" fill="white" fill-opacity="0.5"/>
<path fill-rule="evenodd" clip-rule="evenodd" d="M1171.2 38.9705L1152.35 49.8466L1152.36 71.5946L1171.2 82.4666L1190.05 71.5905L1190.05 49.8404L1171.2 38.9705Z" fill="white" fill-opacity="0.5"/>
<path fill-rule="evenodd" clip-rule="evenodd" d="M1213.65 38.9705L1194.8 49.8466L1194.81 71.5946L1213.65 82.4666L1232.5 71.5905L1232.5 49.8404L1213.65 38.9705Z" fill="white" fill-opacity="0.5"/>
<path fill-rule="evenodd" clip-rule="evenodd" d="M1256.1 38.9705L1237.25 49.8466L1237.25 71.5946L1256.1 82.4666L1274.95 71.5905L1274.94 49.8404L1256.1 38.9705Z" fill="white" fill-opacity="0.5"/>
<path fill-rule="evenodd" clip-rule="evenodd" d="M1340.99 38.9705L1322.15 49.8466L1322.15 71.5946L1341 82.4666L1359.85 71.5905L1359.84 49.8404L1340.99 38.9705Z" fill="white" fill-opacity="0.5"/>
<path fill-rule="evenodd" clip-rule="evenodd" d="M1383.7 38.9705L1364.85 49.8466L1364.86 71.5946L1383.7 82.4666L1402.55 71.5905L1402.55 49.8404L1383.7 38.9705Z" fill="white" fill-opacity="0.5"/>
<path fill-rule="evenodd" clip-rule="evenodd" d="M1405.18 76.1069L1386.33 86.983L1386.34 108.731L1405.18 119.603L1424.03 108.727L1424.03 86.9768L1405.18 76.1069Z" fill="white" fill-opacity="0.5"/>
<path fill-rule="evenodd" clip-rule="evenodd" d="M1405.18 2.65132L1386.33 13.5274L1386.34 35.2755L1405.18 46.1475L1424.03 35.2714L1424.03 13.5212L1405.18 2.65132Z" fill="white" fill-opacity="0.5"/>
<path fill-rule="evenodd" clip-rule="evenodd" d="M1234.87 2.65132L1216.03 13.5274L1216.03 35.2755L1234.88 46.1475L1253.72 35.2714L1253.72 13.5212L1234.87 2.65132Z" fill="white" fill-opacity="0.5"/>
<path fill-rule="evenodd" clip-rule="evenodd" d="M1426.15 38.9705L1407.3 49.8466L1407.31 71.5946L1426.15 82.4666L1445 71.5905L1445 49.8404L1426.15 38.9705Z" fill="white" fill-opacity="0.5"/>
<path fill-rule="evenodd" clip-rule="evenodd" d="M531.916 82.9007L550.761 72.0246L550.757 50.2766L531.91 39.4047L513.063 50.2808L513.067 72.0309L531.916 82.9007Z" fill="white" fill-opacity="0.5"/>
<path fill-rule="evenodd" clip-rule="evenodd" d="M489.467 82.9007L508.312 72.0246L508.308 50.2766L489.461 39.4047L470.614 50.2808L470.618 72.0309L489.467 82.9007Z" fill="white" fill-opacity="0.5"/>
<path fill-rule="evenodd" clip-rule="evenodd" d="M956.917 82.9007L975.762 72.0246L975.758 50.2766L956.911 39.4047L938.064 50.2808L938.068 72.0309L956.917 82.9007Z" fill="white" fill-opacity="0.5"/>
<path fill-rule="evenodd" clip-rule="evenodd" d="M914.468 82.9007L933.313 72.0246L933.309 50.2766L914.462 39.4047L895.615 50.2808L895.619 72.0309L914.468 82.9007Z" fill="white" fill-opacity="0.5"/>
<path fill-rule="evenodd" clip-rule="evenodd" d="M404.569 82.9007L423.414 72.0246L423.41 50.2766L404.563 39.4047L385.716 50.2808L385.72 72.0309L404.569 82.9007Z" fill="white" fill-opacity="0.5"/>
<path fill-rule="evenodd" clip-rule="evenodd" d="M276.703 82.9007L257.858 72.0246L257.862 50.2766L276.709 39.4047L295.556 50.2808L295.552 72.0309L276.703 82.9007Z" fill="white" fill-opacity="0.5"/>
<path fill-rule="evenodd" clip-rule="evenodd" d="M319.152 82.9007L300.307 72.0246L300.311 50.2766L319.158 39.4047L338.005 50.2808L338.001 72.0309L319.152 82.9007Z" fill="white" fill-opacity="0.5"/>
<path fill-rule="evenodd" clip-rule="evenodd" d="M-42.1549 118.811L-61 107.935L-60.9958 86.1871L-42.1487 75.3151L-23.3016 86.1912L-23.3057 107.941L-42.1549 118.811Z" fill="white" fill-opacity="0.5"/>
<path fill-rule="evenodd" clip-rule="evenodd" d="M-21.5133 81.1116L-40.3583 70.2355L-40.3541 48.4874L-21.507 37.6155L-2.65992 48.4916L-2.66404 70.2417L-21.5133 81.1116Z" fill="white" fill-opacity="0.5"/>
<path fill-rule="evenodd" clip-rule="evenodd" d="M1.3735 45.7958L-17.4715 34.9197L-17.4674 13.1716L1.37973 2.2997L20.2268 13.1758L20.2227 34.926L1.3735 45.7958Z" fill="white" fill-opacity="0.5"/>
<path fill-rule="evenodd" clip-rule="evenodd" d="M-41.6162 43.4961L-60.4613 32.62L-60.4571 10.8719L-41.61 0L-22.7629 10.8761L-22.767 32.6263L-41.6162 43.4961Z" fill="white" fill-opacity="0.5"/>
</g>
<defs>
<filter id="filter0_i" x="-61" y="0" width="1506" height="123.603" filterUnits="userSpaceOnUse" color-interpolation-filters="sRGB">
<feFlood flood-opacity="0" result="BackgroundImageFix"/>
<feBlend mode="normal" in="SourceGraphic" in2="BackgroundImageFix" result="shape"/>
<feColorMatrix in="SourceAlpha" type="matrix" values="0 0 0 0 0 0 0 0 0 0 0 0 0 0 0 0 0 0 127 0" result="hardAlpha"/>
<feOffset dy="4"/>
<feGaussianBlur stdDeviation="2"/>
<feComposite in2="hardAlpha" operator="arithmetic" k2="-1" k3="1"/>
<feColorMatrix type="matrix" values="0 0 0 0 0 0 0 0 0 0 0 0 0 0 0 0 0 0 0.25 0"/>
<feBlend mode="normal" in2="shape" result="effect1_innerShadow"/>
</filter>
</defs>
</svg>
