<svg viewBox="0 0 288 265" fill="none" xmlns="http://www.w3.org/2000/svg">
<path d="M107.896 21.9843C108.463 21.7712 109.446 21.9843 109.446 21.9843H109.704L109.962 21.7253C109.962 21.7253 109.315 19.3816 109.188 17.8393C109.096 16.7302 109.087 16.0013 109.188 14.9896L109.446 12.3989C109.446 12.3989 109.929 11.457 110.22 10.8445C110.648 9.94523 111.253 8.51291 111.253 8.51291C111.253 8.51291 111.504 7.12663 112.028 6.44038C112.555 5.74946 113.835 5.14505 113.835 5.14505L115.643 3.84973L116.675 2.29533L119.257 2.03626C119.946 1.86355 121.84 1.51813 121.84 1.51813H123.647C123.647 1.51813 124.229 1 124.68 1C125.131 1 125.309 1.31579 125.713 1.51813C125.713 1.51813 126.308 1.92653 126.745 2.03626C127.235 2.15895 127.532 2.03626 128.036 2.03626H129.327C129.327 2.03626 131.135 2.81346 131.393 3.33159C131.796 4.14096 132.733 3.83048 133.459 4.36786C134.676 5.26907 135.783 7.47665 135.783 7.47665L136.815 9.03104C137.418 9.98095 138.623 12.658 138.623 12.658V14.7305V17.0621C138.623 17.0621 138.645 18.0099 138.623 18.6165C138.585 19.6325 138.365 21.2071 138.365 21.2071C138.365 21.2071 139.069 21.2099 139.397 21.4662C139.96 21.9058 139.914 22.7615 139.914 23.2797C139.914 23.7978 139.656 24.8859 139.656 25.0931C139.656 25.3522 138.881 27.9429 138.881 27.9429C138.881 27.9429 138.278 28.8928 138.106 29.2382C137.934 29.5836 138.365 31.3107 138.365 31.3107L138.881 30.5335C138.881 30.5335 140.063 29.6797 140.947 29.4972L140.95 29.4965C141.64 29.354 142.201 29.2382 143.012 29.2382C143.825 29.2382 145.078 29.4972 145.078 29.4972C145.078 29.4972 146.455 29.67 147.144 30.0154C147.832 30.3608 149.261 31.1035 149.467 31.3107L151.017 32.8651C151.017 32.8651 152.308 33.1242 152.566 33.3832C152.772 33.5905 154.201 33.6423 154.89 33.6423C155.578 33.6423 155.988 33.708 156.439 34.1604C156.758 34.4804 156.955 35.1967 156.955 35.1967L157.472 34.9376H159.279V33.9014L159.537 32.8651C159.537 32.8651 159.748 32.1616 160.054 31.8288C160.684 31.1428 162.378 31.3107 162.378 31.3107C162.378 31.3107 162.345 30.5202 162.378 30.0154C162.444 28.9858 162.658 28.429 162.894 27.4247C162.989 27.0187 163.152 26.3885 163.152 26.3885V25.6113C163.066 25.2658 162.842 24.5232 162.636 24.3159C162.429 24.1087 162.205 23.7114 162.119 23.5387C162.119 23.5387 161.781 22.753 161.861 22.2434C161.931 21.7964 162.029 21.4948 162.378 21.2071C162.922 20.7569 164.185 21.2071 164.185 21.2071L165.476 21.9843L165.992 21.7253V20.9481L165.734 19.6527C165.734 19.6527 165.725 18.9355 165.992 18.6165C166.388 18.1458 166.951 18.1924 167.542 18.3574C168.229 18.5493 168.833 19.6527 168.833 19.6527L169.607 21.4662L170.382 20.9481V19.9118L170.64 18.6165C170.64 18.6165 170.003 17.7298 170.124 17.0621C170.214 16.5644 170.211 16.2911 170.64 16.0258C170.994 15.8071 171.278 15.6348 171.673 15.7668C172.448 16.0258 172.593 16.9603 172.964 17.8393C173.25 18.5176 173.416 18.919 173.48 19.6527C173.551 20.4653 173.016 20.9362 173.222 21.7253C173.336 22.163 173.739 22.7615 173.739 22.7615C173.739 22.7615 174.579 22.9878 175.03 22.7615C175.48 22.5353 175.804 21.7253 175.804 21.7253V20.689V19.9118C175.804 19.9118 175.577 17.6851 175.804 17.3212C176.031 16.9572 176.164 16.6481 176.579 16.544C177.136 16.4043 177.484 16.8398 177.843 17.2882L177.87 17.3212C178.238 17.7808 178.128 19.6527 178.128 19.6527L177.87 22.2434C177.87 22.2434 178.271 24.6027 178.386 26.1294C178.538 28.1471 179.048 29.3992 178.386 31.3107C177.817 32.955 175.804 34.9376 175.804 34.9376C175.804 34.9376 175.679 38.5661 174.771 40.6371C173.789 42.8791 172.811 44.0374 170.898 45.5593C169.379 46.7687 166.509 47.8909 166.509 47.8909C166.509 47.8909 165.792 50.6073 164.443 51.5179C163.408 52.2163 162.569 52.3172 161.345 52.5541C159.552 52.901 156.697 52.8132 156.697 52.8132V56.9582L155.406 60.5852L153.082 64.2121L152.049 68.0981C152.049 68.0981 151.183 73.4468 151.017 76.9063C150.9 79.3316 151.017 83.1239 151.017 83.1239C150.758 85.4555 150.242 90.2223 150.242 90.6368V95.3C150.242 96.6817 148.575 98.8482 147.918 101.259C146.955 104.793 146.885 110.585 146.885 110.585C146.885 110.585 147.064 112.336 146.885 113.435C146.659 114.825 145.594 116.802 145.594 116.802L146.885 123.538L145.594 125.352L144.045 126.388C144.045 126.388 144.255 128.121 144.303 129.238C144.347 130.248 144.141 130.83 144.303 131.828C144.421 132.555 144.82 133.642 144.82 133.642C144.82 133.642 145.413 134.376 145.594 134.937C145.843 135.707 145.994 136.307 145.594 137.01C145.382 137.382 145.064 137.435 144.82 137.787C144.288 138.552 144.303 140.118 144.303 140.118C144.303 140.464 144.386 141.228 144.303 141.932C144.181 142.981 143.787 144.263 143.529 144.523C143.322 144.73 143.098 145.472 143.012 145.818V153.849C143.012 153.849 143.79 152.58 144.303 151.776C146.022 149.082 146.736 147.342 148.951 145.041C150.242 143.699 150.894 142.747 152.566 141.932C153.426 141.512 153.933 141.155 154.89 141.155C155.846 141.155 156.4 141.427 157.213 141.932C158.5 142.731 159.056 143.602 159.537 145.041C159.892 146.1 159.748 146.774 159.796 147.89C159.887 150.015 159.709 151.751 159.358 153.849L159.796 155.086L159.358 156.749L158.529 156.729C157.956 157.781 157.213 158.771 157.213 158.771L155.406 161.362C155.406 161.362 153.902 163.623 153.34 165.248C152.705 167.087 152.566 170.17 152.566 170.17V173.279C152.566 173.279 152.975 176.323 152.566 178.201C152.362 179.139 152.216 179.678 151.896 180.583C151.607 181.397 151.557 181.932 151.017 182.605C150.194 183.63 149.206 183.653 147.918 183.901C146.73 184.129 145.985 184.228 144.82 183.901C143.82 183.619 143.24 183.331 142.496 182.605C141.814 181.94 141.614 181.394 141.205 180.533C140.363 178.759 140.172 175.61 140.172 175.61L139.397 174.833L138.106 173.797C138.106 173.797 135.848 173.142 134.492 172.502C133.552 172.058 133.139 171.834 132.168 171.465C131.39 171.17 130.951 170.837 130.102 170.688C129.307 170.549 128.036 170.688 128.036 170.688C128.036 170.688 127.05 172.658 126.229 173.797C124.893 175.652 123.635 176.25 122.098 177.942C118.797 181.576 114.61 188.046 114.61 188.046C114.61 188.046 113.374 191.847 111.77 193.745C111.216 194.4 110.805 194.672 110.22 195.299C108.65 196.985 107.887 198.564 107.122 200.74C106.647 202.089 106.089 203.59 106.089 203.59C106.089 203.59 105.743 205.701 105.573 206.698C105.133 209.272 103.732 210.276 102.216 212.398C98.0089 218.286 96.0027 221.835 91.3714 227.424C87.211 232.444 79.7523 239.6 79.7523 239.6L74.33 246.076V247.89V249.703V254.107C74.33 254.107 77.3095 255.121 78.4612 255.921C79.9899 256.983 81.4225 259.843 81.4225 259.843L81.9752 262.891L76.7242 264L69.1398 263.446L61.678 259.843L54.9647 258.512C54.9647 258.512 54.3261 257.456 54.19 256.698C53.9517 255.37 54.5518 254.615 54.9647 253.33C55.3669 252.078 55.6255 251.375 56.2557 250.221C57.3915 248.143 60.1287 245.558 60.1287 245.558H61.678L68.6495 234.159C68.6495 234.159 74.5247 226.128 75.8792 218.874C76.2524 216.876 77.7087 214.37 78.203 212.398C79.4869 207.276 86.2074 201.517 86.2074 201.517L86.4656 200.74C86.982 199.185 88.5312 197.113 88.5312 197.113L90.5968 194.781L92.9207 191.413L93.4371 185.714L96.0191 177.942L99.1176 173.279L102.216 167.838C101.958 167.407 101.493 166.491 101.7 166.284C101.906 166.077 102.991 163.952 103.507 162.916C104.023 161.88 104.564 161.266 104.798 160.066C104.991 159.074 104.798 157.476 104.798 157.476L103.507 156.18C103.507 156.18 101.883 156.107 100.925 156.44C100.157 156.706 99.1176 157.476 99.1176 157.476L96.5355 158.253C96.5355 158.253 95.7151 158.202 95.2445 157.994C93.9624 157.428 93.8919 156.215 93.4371 154.885C92.6841 152.684 93.4371 151.254 93.4371 148.927C93.4371 148.32 93.4924 147.977 93.4371 147.372C93.3319 146.224 93.1169 145.582 92.6625 144.523C92.1428 143.311 90.855 141.673 90.855 141.673L87.4984 135.455C87.4984 135.455 84.284 129.364 83.6253 125.093C83.2703 122.791 83.3671 119.134 83.3671 119.134C83.3671 119.134 86.7809 114.678 88.0148 111.362C89.0938 108.462 88.8943 106.612 89.564 103.59C89.9463 101.865 90.5968 99.186 90.5968 99.186L92.6625 96.0772L93.4371 94.2637L94.4699 92.1912L94.2117 88.8233L95.2445 86.4918C95.2445 86.4918 95.3881 84.9828 94.9863 84.1602C94.7644 83.7059 94.4748 83.5554 94.2117 83.1239C93.8109 82.4666 93.6497 82.0508 93.4371 81.3104C92.9625 79.6578 93.4371 76.9063 93.4371 76.9063L92.6625 75.3519C92.6625 75.3519 92.4328 72.4521 91.8878 70.6887C91.5662 69.648 91.2781 69.1016 90.855 68.0981C90.4681 67.1804 89.8222 65.7665 89.8222 65.7665C89.8222 65.7665 88.9939 66.1798 88.5312 66.5437C87.7995 67.1191 86.982 68.3571 86.982 68.3571L84.9163 68.0981L76.912 74.8338L71.7479 78.9788C71.7479 78.9788 69.1472 80.2659 67.6167 81.3104C66.7829 81.8794 65.551 82.8648 65.551 82.8648C65.551 82.8648 62.3289 89.5138 58.5795 91.9321C54.9647 94.2637 29.1443 112.657 29.1443 112.657L26.304 115.766C26.304 115.766 24.1 118.279 22.1727 118.875C20.9163 119.263 18.8161 119.134 18.8161 119.134L14.1684 117.321L11.5864 117.839L12.8774 119.393C12.8774 119.393 16.279 119.343 16.4922 119.911C16.7055 120.479 16.6936 120.634 16.4922 121.207C16.2909 121.779 14.2135 121.786 12.6192 121.466C11.2926 121.199 9.26253 120.17 9.26253 120.17C9.4642 121.283 9.26253 123.279 9.26253 123.279C9.26253 123.279 10.2886 125.557 10.2953 126.647C10.3013 127.607 10.2953 128.201 9.77894 128.201C7.98362 128.201 7.6828 126.214 6.93869 124.574C6.05213 122.621 6.16408 119.134 6.16408 119.134L3.32384 123.797C3.32384 123.797 2.41047 124.806 1.77461 124.574C1.22191 124.373 0.999962 123.869 1 123.279C1.00005 122.502 3.84024 116.025 3.84024 116.025C3.84024 116.025 1.9997 116.55 1.77461 115.766C1.62427 115.243 2.29102 114.471 2.29102 114.471L8.22972 111.103C8.22972 111.103 9.14534 110.425 9.77894 110.067C11.0028 109.375 13.1356 108.771 13.1356 108.771C13.1356 108.771 18.2116 109.869 21.1399 108.771C22.3235 108.328 23.9802 107.217 23.9802 107.217C23.9802 107.217 48.7447 74.5401 51.0916 73.2794C53.4385 72.0187 57.2885 70.4297 57.2885 70.4297C62.6327 64.4814 65.7837 61.5794 71.7479 57.4764L71.2315 57.2173C72.1367 55.6225 72.5285 54.7549 73.8136 53.0723C73.811 52.8245 75.8469 52.5032 76.1374 52.5541C76.4279 52.605 76.6095 52.2383 76.912 52.036C79.9614 48.5699 81.532 45.9415 84.6581 44.0049C87.7843 42.0684 90.4988 42.0876 90.3386 41.1552V38.3055C90.3386 38.3055 91.6783 37.3418 92.6625 37.0102C94.3831 36.4304 97.3101 37.0102 97.3101 37.0102L100.925 38.3055L102.474 37.0102L102.732 35.1967C103.644 34.2099 105.546 34.1032 107.896 34.1604C107.896 34.1604 107.762 33.5058 107.896 33.1242C108.139 32.4362 109.446 32.0879 109.446 32.0879C109.446 32.0879 109.135 30.8236 108.929 30.0154C108.541 28.4938 108.103 27.6863 107.896 26.1294C107.684 24.5248 107.33 22.1975 107.896 21.9843Z" fill="#3CB5FE" fill-opacity="0.2"/>
<path d="M274.955 26.6475C277.445 26.6475 278.711 26.4796 280.893 27.6838C286.057 30.5335 287.296 38.3348 286.574 46.8547C286.074 52.7543 284.167 57.2134 280.893 62.1396C277.687 66.964 275.113 69.4486 270.049 72.2431C264.885 75.0929 260.314 75.3451 255.589 72.2431C251.769 69.7352 250.888 65.8856 250.167 61.3624C249.134 54.8857 251.858 44.3307 255.967 38.8439C261.924 30.8881 270.565 26.6475 274.955 26.6475Z" fill="#3CB5FE" fill-opacity="0.2"/>
<path d="M107.896 21.9843C108.463 21.7712 109.446 21.9843 109.446 21.9843H109.704L109.962 21.7253C109.962 21.7253 109.315 19.3816 109.188 17.8393C109.096 16.7302 109.087 16.0013 109.188 14.9896L109.446 12.3989C109.446 12.3989 109.929 11.457 110.22 10.8445C110.648 9.94523 111.253 8.51291 111.253 8.51291C111.253 8.51291 111.504 7.12663 112.028 6.44038C112.555 5.74946 113.835 5.14505 113.835 5.14505L115.643 3.84973L116.675 2.29533L119.257 2.03626C119.946 1.86355 121.84 1.51813 121.84 1.51813H123.647C123.647 1.51813 124.229 1 124.68 1C125.131 1 125.309 1.31579 125.713 1.51813C125.713 1.51813 126.308 1.92653 126.745 2.03626C127.235 2.15895 127.532 2.03626 128.036 2.03626H129.327C129.327 2.03626 131.135 2.81346 131.393 3.33159C131.796 4.14096 132.733 3.83048 133.459 4.36786C134.676 5.26907 135.783 7.47665 135.783 7.47665L136.815 9.03104C137.418 9.98095 138.623 12.658 138.623 12.658V14.7305V17.0621C138.623 17.0621 138.645 18.0099 138.623 18.6165C138.585 19.6325 138.365 21.2071 138.365 21.2071C138.365 21.2071 139.069 21.2099 139.397 21.4662C139.96 21.9058 139.914 22.7615 139.914 23.2797C139.914 23.7978 139.656 24.8859 139.656 25.0931C139.656 25.3522 138.881 27.9429 138.881 27.9429C138.881 27.9429 138.278 28.8928 138.106 29.2382C137.934 29.5836 138.365 31.3107 138.365 31.3107L138.881 30.5335C138.881 30.5335 140.063 29.6797 140.947 29.4972L140.95 29.4965C141.64 29.354 142.201 29.2382 143.012 29.2382C143.825 29.2382 145.078 29.4972 145.078 29.4972C145.078 29.4972 146.455 29.67 147.144 30.0154C147.832 30.3608 149.261 31.1035 149.467 31.3107L151.017 32.8651C151.017 32.8651 152.308 33.1242 152.566 33.3832C152.772 33.5905 154.201 33.6423 154.89 33.6423C155.578 33.6423 155.988 33.708 156.439 34.1604C156.758 34.4804 156.955 35.1967 156.955 35.1967L157.472 34.9376H159.279V33.9014L159.537 32.8651C159.537 32.8651 159.748 32.1616 160.054 31.8288C160.684 31.1428 162.378 31.3107 162.378 31.3107C162.378 31.3107 162.345 30.5202 162.378 30.0154C162.444 28.9858 162.658 28.429 162.894 27.4247C162.989 27.0187 163.152 26.3885 163.152 26.3885V25.6113C163.066 25.2658 162.842 24.5232 162.636 24.3159C162.429 24.1087 162.205 23.7114 162.119 23.5387C162.119 23.5387 161.781 22.753 161.861 22.2434C161.931 21.7964 162.029 21.4948 162.378 21.2071C162.922 20.7569 164.185 21.2071 164.185 21.2071L165.476 21.9843L165.992 21.7253V20.9481L165.734 19.6527C165.734 19.6527 165.725 18.9355 165.992 18.6165C166.388 18.1458 166.951 18.1924 167.542 18.3574C168.229 18.5493 168.833 19.6527 168.833 19.6527L169.607 21.4662L170.382 20.9481V19.9118L170.64 18.6165C170.64 18.6165 170.003 17.7298 170.124 17.0621C170.214 16.5644 170.211 16.2911 170.64 16.0258C170.994 15.8071 171.278 15.6348 171.673 15.7668C172.448 16.0258 172.593 16.9603 172.964 17.8393C173.25 18.5176 173.416 18.919 173.48 19.6527C173.551 20.4653 173.016 20.9362 173.222 21.7253C173.336 22.163 173.739 22.7615 173.739 22.7615C173.739 22.7615 174.579 22.9878 175.03 22.7615C175.48 22.5353 175.804 21.7253 175.804 21.7253V20.689V19.9118C175.804 19.9118 175.577 17.6851 175.804 17.3212C176.031 16.9572 176.164 16.6481 176.579 16.544C177.136 16.4043 177.484 16.8398 177.843 17.2882L177.87 17.3212C178.238 17.7808 178.128 19.6527 178.128 19.6527L177.87 22.2434C177.87 22.2434 178.271 24.6027 178.386 26.1294C178.538 28.1471 179.048 29.3992 178.386 31.3107C177.817 32.955 175.804 34.9376 175.804 34.9376C175.804 34.9376 175.679 38.5661 174.771 40.6371C173.789 42.8791 172.811 44.0374 170.898 45.5593C169.379 46.7687 166.509 47.8909 166.509 47.8909C166.509 47.8909 165.792 50.6073 164.443 51.5179C163.408 52.2163 162.569 52.3172 161.345 52.5541C159.552 52.901 156.697 52.8132 156.697 52.8132V56.9582L155.406 60.5852L153.082 64.2121L152.049 68.0981C152.049 68.0981 151.183 73.4468 151.017 76.9063C150.9 79.3316 151.017 83.1239 151.017 83.1239C150.758 85.4555 150.242 90.2223 150.242 90.6368V95.3C150.242 96.6817 148.575 98.8482 147.918 101.259C146.955 104.793 146.885 110.585 146.885 110.585C146.885 110.585 147.064 112.336 146.885 113.435C146.659 114.825 145.594 116.802 145.594 116.802L146.885 123.538L145.594 125.352L144.045 126.388C144.045 126.388 144.255 128.121 144.303 129.238C144.347 130.248 144.141 130.83 144.303 131.828C144.421 132.555 144.82 133.642 144.82 133.642C144.82 133.642 145.413 134.376 145.594 134.937C145.843 135.707 145.994 136.307 145.594 137.01C145.382 137.382 145.064 137.435 144.82 137.787C144.288 138.552 144.303 140.118 144.303 140.118C144.303 140.464 144.386 141.228 144.303 141.932C144.181 142.981 143.787 144.263 143.529 144.523C143.322 144.73 143.098 145.472 143.012 145.818V153.849C143.012 153.849 143.79 152.58 144.303 151.776C146.022 149.082 146.736 147.342 148.951 145.041C150.242 143.699 150.894 142.747 152.566 141.932C153.426 141.512 153.933 141.155 154.89 141.155C155.846 141.155 156.4 141.427 157.213 141.932C158.5 142.731 159.056 143.602 159.537 145.041C159.892 146.1 159.748 146.774 159.796 147.89C159.887 150.015 159.709 151.751 159.358 153.849L159.796 155.086L159.358 156.749L158.529 156.729C157.956 157.781 157.213 158.771 157.213 158.771L155.406 161.362C155.406 161.362 153.902 163.623 153.34 165.248C152.705 167.087 152.566 170.17 152.566 170.17V173.279C152.566 173.279 152.975 176.323 152.566 178.201C152.362 179.139 152.216 179.678 151.896 180.583C151.607 181.397 151.557 181.932 151.017 182.605C150.194 183.63 149.206 183.653 147.918 183.901C146.73 184.129 145.985 184.228 144.82 183.901C143.82 183.619 143.24 183.331 142.496 182.605C141.814 181.94 141.614 181.394 141.205 180.533C140.363 178.759 140.172 175.61 140.172 175.61L139.397 174.833L138.106 173.797C138.106 173.797 135.848 173.142 134.492 172.502C133.552 172.058 133.139 171.834 132.168 171.465C131.39 171.17 130.951 170.837 130.102 170.688C129.307 170.549 128.036 170.688 128.036 170.688C128.036 170.688 127.05 172.658 126.229 173.797C124.893 175.652 123.635 176.25 122.098 177.942C118.797 181.576 114.61 188.046 114.61 188.046C114.61 188.046 113.374 191.847 111.77 193.745C111.216 194.4 110.805 194.672 110.22 195.299C108.65 196.985 107.887 198.564 107.122 200.74C106.647 202.089 106.089 203.59 106.089 203.59C106.089 203.59 105.743 205.701 105.573 206.698C105.133 209.272 103.732 210.276 102.216 212.398C98.0089 218.286 96.0027 221.835 91.3714 227.424C87.211 232.444 79.7523 239.6 79.7523 239.6L74.33 246.076V247.89V249.703V254.107C74.33 254.107 77.3095 255.121 78.4612 255.921C79.9899 256.983 81.4225 259.843 81.4225 259.843L81.9752 262.891L76.7242 264L69.1398 263.446L61.678 259.843L54.9647 258.512C54.9647 258.512 54.3261 257.456 54.19 256.698C53.9517 255.37 54.5518 254.615 54.9647 253.33C55.3669 252.078 55.6255 251.375 56.2557 250.221C57.3915 248.143 60.1287 245.558 60.1287 245.558H61.678L68.6495 234.159C68.6495 234.159 74.5247 226.128 75.8792 218.874C76.2524 216.876 77.7087 214.37 78.203 212.398C79.4869 207.276 86.2074 201.517 86.2074 201.517L86.4656 200.74C86.982 199.185 88.5312 197.113 88.5312 197.113L90.5968 194.781L92.9207 191.413L93.4371 185.714L96.0191 177.942L99.1176 173.279L102.216 167.838C101.958 167.407 101.493 166.491 101.7 166.284C101.906 166.077 102.991 163.952 103.507 162.916C104.023 161.88 104.564 161.266 104.798 160.066C104.991 159.074 104.798 157.476 104.798 157.476L103.507 156.18C103.507 156.18 101.883 156.107 100.925 156.44C100.157 156.706 99.1176 157.476 99.1176 157.476L96.5355 158.253C96.5355 158.253 95.7151 158.202 95.2445 157.994C93.9624 157.428 93.8919 156.215 93.4371 154.885C92.6841 152.684 93.4371 151.254 93.4371 148.927C93.4371 148.32 93.4924 147.977 93.4371 147.372C93.3319 146.224 93.1169 145.582 92.6625 144.523C92.1428 143.311 90.855 141.673 90.855 141.673L87.4984 135.455C87.4984 135.455 84.284 129.364 83.6253 125.093C83.2703 122.791 83.3671 119.134 83.3671 119.134C83.3671 119.134 86.7809 114.678 88.0148 111.362C89.0938 108.462 88.8943 106.612 89.564 103.59C89.9463 101.865 90.5968 99.186 90.5968 99.186L92.6625 96.0772L93.4371 94.2637L94.4699 92.1912L94.2117 88.8233L95.2445 86.4918C95.2445 86.4918 95.3881 84.9828 94.9863 84.1602C94.7644 83.7059 94.4748 83.5554 94.2117 83.1239C93.8109 82.4666 93.6497 82.0508 93.4371 81.3104C92.9625 79.6578 93.4371 76.9063 93.4371 76.9063L92.6625 75.3519C92.6625 75.3519 92.4328 72.4521 91.8878 70.6887C91.5662 69.648 91.2781 69.1016 90.855 68.0981C90.4681 67.1804 89.8222 65.7665 89.8222 65.7665C89.8222 65.7665 88.9939 66.1798 88.5312 66.5437C87.7995 67.1191 86.982 68.3571 86.982 68.3571L84.9163 68.0981L76.912 74.8338L71.7479 78.9788C71.7479 78.9788 69.1472 80.2659 67.6167 81.3104C66.7829 81.8794 65.551 82.8648 65.551 82.8648C65.551 82.8648 62.3289 89.5138 58.5795 91.9321C54.9647 94.2637 29.1443 112.657 29.1443 112.657L26.304 115.766C26.304 115.766 24.1 118.279 22.1727 118.875C20.9163 119.263 18.8161 119.134 18.8161 119.134L14.1684 117.321L11.5864 117.839L12.8774 119.393C12.8774 119.393 16.279 119.343 16.4922 119.911C16.7055 120.479 16.6936 120.634 16.4922 121.207C16.2909 121.779 14.2135 121.786 12.6192 121.466C11.2926 121.199 9.26253 120.17 9.26253 120.17C9.4642 121.283 9.26253 123.279 9.26253 123.279C9.26253 123.279 10.2886 125.557 10.2953 126.647C10.3013 127.607 10.2953 128.201 9.77894 128.201C7.98362 128.201 7.6828 126.214 6.93869 124.574C6.05213 122.621 6.16408 119.134 6.16408 119.134L3.32384 123.797C3.32384 123.797 2.41047 124.806 1.77461 124.574C1.22191 124.373 0.999962 123.869 1 123.279C1.00005 122.502 3.84024 116.025 3.84024 116.025C3.84024 116.025 1.9997 116.55 1.77461 115.766C1.62427 115.243 2.29102 114.471 2.29102 114.471L8.22972 111.103C8.22972 111.103 9.14534 110.425 9.77894 110.067C11.0028 109.375 13.1356 108.771 13.1356 108.771C13.1356 108.771 18.2116 109.869 21.1399 108.771C22.3235 108.328 23.9802 107.217 23.9802 107.217C23.9802 107.217 48.7447 74.5401 51.0916 73.2794C53.4385 72.0187 57.2885 70.4297 57.2885 70.4297C62.6327 64.4814 65.7837 61.5794 71.7479 57.4764L71.2315 57.2173C72.1367 55.6225 72.5285 54.7549 73.8136 53.0723C73.811 52.8245 75.8469 52.5032 76.1374 52.5541C76.4279 52.605 76.6095 52.2383 76.912 52.036C79.9614 48.5699 81.532 45.9415 84.6581 44.0049C87.7843 42.0684 90.4988 42.0876 90.3386 41.1552V38.3055C90.3386 38.3055 91.6783 37.3418 92.6625 37.0102C94.3831 36.4304 97.3101 37.0102 97.3101 37.0102L100.925 38.3055L102.474 37.0102L102.732 35.1967C103.644 34.2099 105.546 34.1032 107.896 34.1604C107.896 34.1604 107.762 33.5058 107.896 33.1242C108.139 32.4362 109.446 32.0879 109.446 32.0879C109.446 32.0879 109.135 30.8236 108.929 30.0154C108.541 28.4938 108.103 27.6863 107.896 26.1294C107.684 24.5248 107.33 22.1975 107.896 21.9843Z" stroke="#3CB5FE" stroke-opacity="0.2" stroke-linejoin="round"/>
<path d="M274.955 26.6475C277.445 26.6475 278.711 26.4796 280.893 27.6838C286.057 30.5335 287.296 38.3348 286.574 46.8547C286.074 52.7543 284.167 57.2134 280.893 62.1396C277.687 66.964 275.113 69.4486 270.049 72.2431C264.885 75.0929 260.314 75.3451 255.589 72.2431C251.769 69.7352 250.888 65.8856 250.167 61.3624C249.134 54.8857 251.858 44.3307 255.967 38.8439C261.924 30.8881 270.565 26.6475 274.955 26.6475Z" stroke="#3CB5FE" stroke-opacity="0.2" stroke-linejoin="round"/>
</svg>
