<svg viewBox="0 0 521 296" fill="none" xmlns="http://www.w3.org/2000/svg">
<path d="M101.23 54H90.7305V19.6875C95.3555 19.4688 98.5977 19.3594 100.457 19.3594C104.02 19.3594 106.801 20.125 108.801 21.6562C110.816 23.1719 111.824 25.3438 111.824 28.1719C111.824 30.8906 110.387 33.0391 107.512 34.6172C111.777 36.1016 113.91 39.1641 113.91 43.8047C113.91 46.9297 112.73 49.4141 110.371 51.2578C108.012 53.0859 104.965 54 101.23 54ZM96.8242 24.5625V32.7891C97.7617 32.8516 98.7461 32.8828 99.7773 32.8828C103.746 32.8828 105.73 31.3906 105.73 28.4062C105.73 25.7656 103.926 24.4453 100.316 24.4453C99.3633 24.4453 98.1992 24.4844 96.8242 24.5625ZM96.8242 37.5469V48.8906C98.0586 49 99.0586 49.0547 99.8242 49.0547C102.543 49.0547 104.512 48.5938 105.73 47.6719C106.965 46.75 107.582 45.2188 107.582 43.0781C107.582 41.125 107.012 39.7031 105.871 38.8125C104.73 37.9219 102.738 37.4766 99.8945 37.4766C99.3008 37.4766 98.2773 37.5 96.8242 37.5469ZM119.98 19.5469L125.84 18.1406V46.3594C125.84 49.4531 126.762 51.2969 128.605 51.8906C127.699 53.6094 126.152 54.4688 123.965 54.4688C121.309 54.4688 119.98 52.625 119.98 48.9375V19.5469ZM131.488 41.3906C131.488 37.5625 132.59 34.4453 134.793 32.0391C137.012 29.6328 139.934 28.4297 143.559 28.4297C147.371 28.4297 150.332 29.5859 152.441 31.8984C154.551 34.2109 155.605 37.375 155.605 41.3906C155.605 45.3906 154.527 48.5703 152.371 50.9297C150.23 53.2891 147.293 54.4688 143.559 54.4688C139.746 54.4688 136.777 53.2812 134.652 50.9062C132.543 48.5156 131.488 45.3438 131.488 41.3906ZM137.582 41.3906C137.582 46.9219 139.574 49.6875 143.559 49.6875C145.387 49.6875 146.832 48.9688 147.895 47.5312C148.973 46.0938 149.512 44.0469 149.512 41.3906C149.512 35.9375 147.527 33.2109 143.559 33.2109C141.73 33.2109 140.277 33.9297 139.199 35.3672C138.121 36.8047 137.582 38.8125 137.582 41.3906ZM158.676 41.3906C158.676 37.5625 159.777 34.4453 161.98 32.0391C164.199 29.6328 167.121 28.4297 170.746 28.4297C174.559 28.4297 177.52 29.5859 179.629 31.8984C181.738 34.2109 182.793 37.375 182.793 41.3906C182.793 45.3906 181.715 48.5703 179.559 50.9297C177.418 53.2891 174.48 54.4688 170.746 54.4688C166.934 54.4688 163.965 53.2812 161.84 50.9062C159.73 48.5156 158.676 45.3438 158.676 41.3906ZM164.77 41.3906C164.77 46.9219 166.762 49.6875 170.746 49.6875C172.574 49.6875 174.02 48.9688 175.082 47.5312C176.16 46.0938 176.699 44.0469 176.699 41.3906C176.699 35.9375 174.715 33.2109 170.746 33.2109C168.918 33.2109 167.465 33.9297 166.387 35.3672C165.309 36.8047 164.77 38.8125 164.77 41.3906ZM216.566 54V38.2734C216.566 34.9766 215.09 33.3281 212.137 33.3281C211.262 33.3281 210.418 33.5859 209.605 34.1016C208.793 34.6172 208.223 35.2109 207.895 35.8828V54H202.035V37.3594C202.035 36.125 201.652 35.1484 200.887 34.4297C200.121 33.6953 199.043 33.3281 197.652 33.3281C196.918 33.3281 196.113 33.6016 195.238 34.1484C194.379 34.6953 193.754 35.2969 193.363 35.9531V54H187.504V28.8984H191.535L192.73 31.1016C194.355 29.3203 196.457 28.4297 199.035 28.4297C202.363 28.4297 204.871 29.3359 206.559 31.1484C207.293 30.3203 208.316 29.6641 209.629 29.1797C210.941 28.6797 212.254 28.4297 213.566 28.4297C216.363 28.4297 218.535 29.2344 220.082 30.8438C221.645 32.4375 222.426 34.6328 222.426 37.4297V54H216.566ZM271.27 54.4688H268.762L261.262 32.8125L253.973 54.4688H251.465L240.191 19.6641H246.543L252.988 40.3828L259.949 19.6641H262.621L269.605 40.3828L276.027 19.6641H282.379L271.27 54.4688ZM307.176 43.2422H289.246C289.355 45.2422 290.043 46.7969 291.309 47.9062C292.574 49.0156 294.277 49.5703 296.418 49.5703C299.09 49.5703 301.121 48.875 302.512 47.4844L304.785 51.9609C302.723 53.6328 299.645 54.4688 295.551 54.4688C291.723 54.4688 288.691 53.3516 286.457 51.1172C284.238 48.8672 283.129 45.7344 283.129 41.7188C283.129 37.7656 284.348 34.5625 286.785 32.1094C289.238 29.6562 292.176 28.4297 295.598 28.4297C299.238 28.4297 302.16 29.5156 304.363 31.6875C306.566 33.8594 307.668 36.625 307.668 39.9844C307.668 40.7031 307.504 41.7891 307.176 43.2422ZM289.457 38.8359H301.785C301.379 35.1641 299.348 33.3281 295.691 33.3281C292.348 33.3281 290.27 35.1641 289.457 38.8359ZM328.527 54V52.4766C328.043 53.0078 327.223 53.4766 326.066 53.8828C324.91 54.2734 323.715 54.4688 322.48 54.4688C318.98 54.4688 316.223 53.3594 314.207 51.1406C312.207 48.9219 311.207 45.8281 311.207 41.8594C311.207 37.8906 312.355 34.6641 314.652 32.1797C316.965 29.6797 319.855 28.4297 323.324 28.4297C325.23 28.4297 326.965 28.8203 328.527 29.6016V19.5469L334.387 18.1406V54H328.527ZM328.527 34.8984C327.277 33.8984 325.973 33.3984 324.613 33.3984C322.27 33.3984 320.465 34.1172 319.199 35.5547C317.934 36.9766 317.301 39.0234 317.301 41.6953C317.301 46.9141 319.816 49.5234 324.848 49.5234C325.41 49.5234 326.098 49.3594 326.91 49.0312C327.738 48.6875 328.277 48.3438 328.527 48V34.8984ZM356.418 54V52.4766C355.934 53.0078 355.113 53.4766 353.957 53.8828C352.801 54.2734 351.605 54.4688 350.371 54.4688C346.871 54.4688 344.113 53.3594 342.098 51.1406C340.098 48.9219 339.098 45.8281 339.098 41.8594C339.098 37.8906 340.246 34.6641 342.543 32.1797C344.855 29.6797 347.746 28.4297 351.215 28.4297C353.121 28.4297 354.855 28.8203 356.418 29.6016V19.5469L362.277 18.1406V54H356.418ZM356.418 34.8984C355.168 33.8984 353.863 33.3984 352.504 33.3984C350.16 33.3984 348.355 34.1172 347.09 35.5547C345.824 36.9766 345.191 39.0234 345.191 41.6953C345.191 46.9141 347.707 49.5234 352.738 49.5234C353.301 49.5234 353.988 49.3594 354.801 49.0312C355.629 48.6875 356.168 48.3438 356.418 48V34.8984ZM372.754 19.1719C373.691 19.1719 374.488 19.5078 375.145 20.1797C375.816 20.8359 376.152 21.6328 376.152 22.5703C376.152 23.5078 375.816 24.3125 375.145 24.9844C374.488 25.6406 373.691 25.9688 372.754 25.9688C371.816 25.9688 371.012 25.6406 370.34 24.9844C369.684 24.3125 369.355 23.5078 369.355 22.5703C369.355 21.6328 369.684 20.8359 370.34 20.1797C371.012 19.5078 371.816 19.1719 372.754 19.1719ZM369.73 54V33.7031H366.52V28.8984H375.66V54H369.73ZM398.652 54V39.4922C398.652 37.3516 398.238 35.7891 397.41 34.8047C396.598 33.8203 395.262 33.3281 393.402 33.3281C392.543 33.3281 391.621 33.5703 390.637 34.0547C389.668 34.5391 388.91 35.1406 388.363 35.8594V54H382.504V28.8984H386.723L387.801 31.2422C389.395 29.3672 391.746 28.4297 394.855 28.4297C397.84 28.4297 400.191 29.3281 401.91 31.125C403.645 32.9062 404.512 35.3984 404.512 38.6016V54H398.652ZM408.988 60.4453L412.691 55.875C414.738 57.75 417.02 58.6875 419.535 58.6875C421.223 58.6875 422.613 58.4375 423.707 57.9375C424.801 57.4375 425.348 56.75 425.348 55.875C425.348 54.3906 424.137 53.6484 421.715 53.6484C421.059 53.6484 420.082 53.7266 418.785 53.8828C417.488 54.0391 416.512 54.1172 415.855 54.1172C411.824 54.1172 409.809 52.6719 409.809 49.7812C409.809 48.9531 410.145 48.1406 410.816 47.3438C411.488 46.5469 412.27 45.9609 413.16 45.5859C410.301 43.7266 408.871 41.0938 408.871 37.6875C408.871 35 409.855 32.7812 411.824 31.0312C413.793 29.2656 416.215 28.3828 419.09 28.3828C421.34 28.3828 423.223 28.8047 424.738 29.6484L427.035 26.9766L431.09 30.6562L428.301 32.6953C429.27 34.1641 429.754 35.8984 429.754 37.8984C429.754 40.7578 428.879 43.0469 427.129 44.7656C425.395 46.4688 423.199 47.3203 420.543 47.3203C420.121 47.3203 419.559 47.2812 418.855 47.2031L417.895 47.0625C417.785 47.0625 417.363 47.2344 416.629 47.5781C415.91 47.9062 415.551 48.25 415.551 48.6094C415.551 49.2344 416.09 49.5469 417.168 49.5469C417.652 49.5469 418.465 49.4297 419.605 49.1953C420.746 48.9609 421.723 48.8438 422.535 48.8438C428.238 48.8438 431.09 51.1328 431.09 55.7109C431.09 58.2422 429.949 60.2266 427.668 61.6641C425.387 63.1172 422.637 63.8438 419.418 63.8438C415.574 63.8438 412.098 62.7109 408.988 60.4453ZM414.848 37.7109C414.848 39.1953 415.254 40.3906 416.066 41.2969C416.895 42.1875 418.004 42.6328 419.395 42.6328C420.785 42.6328 421.855 42.1953 422.605 41.3203C423.355 40.4453 423.73 39.2422 423.73 37.7109C423.73 36.4453 423.324 35.375 422.512 34.5C421.715 33.625 420.676 33.1875 419.395 33.1875C418.051 33.1875 416.957 33.6094 416.113 34.4531C415.27 35.2969 414.848 36.3828 414.848 37.7109ZM433.41 52.3828L435.496 47.7188C437.246 49.1094 439.223 49.8047 441.426 49.8047C443.707 49.8047 444.848 48.9922 444.848 47.3672C444.848 46.4141 444.504 45.6328 443.816 45.0234C443.129 44.4141 441.793 43.6953 439.809 42.8672C435.48 41.0703 433.316 38.5547 433.316 35.3203C433.316 33.1484 434.145 31.4609 435.801 30.2578C437.457 29.0391 439.574 28.4297 442.152 28.4297C444.762 28.4297 447.215 29.0156 449.512 30.1875L447.824 34.7344C446.543 33.6406 444.762 33.0938 442.48 33.0938C440.434 33.0938 439.41 33.9062 439.41 35.5312C439.41 36.1719 439.746 36.75 440.418 37.2656C441.09 37.7812 442.527 38.4766 444.73 39.3516C446.934 40.2109 448.52 41.2578 449.488 42.4922C450.457 43.7266 450.941 45.2188 450.941 46.9688C450.941 49.2969 450.074 51.1328 448.34 52.4766C446.621 53.8047 444.277 54.4688 441.309 54.4688C439.637 54.4688 438.293 54.3281 437.277 54.0469C436.277 53.7812 434.988 53.2266 433.41 52.3828Z" fill="#F8BBD0"/>
<path fill-rule="evenodd" clip-rule="evenodd" d="M18.2625 0L19.7513 0.345715C28.0491 2.27254 35.8327 6.94887 40.1868 14.2517C44.3047 21.1582 45.1871 30.1304 40.9551 40.7362C46.3657 41.7761 49.9415 43.1777 54.1704 46.7645L51.7432 49.6262C48.1791 46.6031 45.2781 45.394 40.3276 44.4364C40.412 49.927 38.5891 54.7222 35.3324 58.575C31.6224 62.9641 26.1397 66.0333 19.7369 67.6334L18.2699 68L17.6 66.6444C16.1494 63.7093 15.3596 59.3845 15.4764 54.9676C15.5725 51.3302 16.288 47.4464 17.9092 44.063C13.1564 42.4026 8.27383 39.4364 2.57028 34.9769L0.919922 33.6865L2.38381 32.1878C5.71892 28.7736 9.71925 25.516 14.4041 24.1514C12.9178 17.7561 13.6162 10.0845 17.6229 1.38816L18.2625 0ZM15.5114 27.7374C12.3393 28.6464 9.37401 30.7113 6.58318 33.3239C12.2295 37.5529 16.8009 39.99 21.1533 41.1357C23.7145 41.8098 26.2521 42.0504 28.9545 41.9076C23.32 39.3359 18.1486 34.5064 15.5114 27.7374ZM37.0973 40.2504C41.4029 30.1193 40.4896 22.0867 36.9639 16.1733C33.5052 10.3724 27.3638 6.32664 20.4016 4.38375C16.9114 12.6526 16.8099 19.5576 18.5173 24.9804C21.4588 34.323 29.9103 39.7026 37.0973 40.2504ZM36.5764 44.539C31.2081 45.7854 26.4471 46.1168 21.5908 45.0943C20.0607 47.9801 19.3205 51.546 19.2274 55.0667C19.1415 58.3155 19.611 61.3462 20.38 63.5671C25.4941 62.036 29.6559 59.4779 32.4666 56.1527C35.1219 53.0113 36.6367 49.1138 36.5764 44.539Z" fill="#F8BBD0"/>
</svg>
