<svg viewBox="0 0 973 402" fill="none" xmlns="http://www.w3.org/2000/svg">
<g filter="url(#filter0_i)">
<path fill-rule="evenodd" clip-rule="evenodd" d="M576.477 325.175L616.147 302.28L616.138 256.499L576.464 233.612L536.789 256.507L536.798 302.293L576.477 325.175Z" fill="#FAED5B"/>
<path fill-rule="evenodd" clip-rule="evenodd" d="M531.26 247L570.93 224.105L570.921 178.323L531.247 155.437L491.572 178.332L491.581 224.118L531.26 247Z" fill="#FAED5B"/>
<path fill-rule="evenodd" clip-rule="evenodd" d="M531.26 401.63L570.93 378.735L570.921 332.954L531.247 310.067L491.572 332.962L491.581 378.748L531.26 401.63Z" fill="#FAED5B"/>
<path fill-rule="evenodd" clip-rule="evenodd" d="M441.901 247L481.571 224.105L481.563 178.323L441.888 155.437L402.213 178.332L402.222 224.118L441.901 247Z" fill="#FAED5B"/>
<path fill-rule="evenodd" clip-rule="evenodd" d="M264.259 401.63L303.929 378.735L303.92 332.954L264.246 310.067L224.571 332.962L224.58 378.748L264.259 401.63Z" fill="#FAED5B"/>
<path fill-rule="evenodd" clip-rule="evenodd" d="M174.362 247L214.033 224.105L214.024 178.323L174.349 155.437L134.674 178.332L134.683 224.118L174.362 247Z" fill="#FAED5B"/>
<path fill-rule="evenodd" clip-rule="evenodd" d="M219.579 325.175L259.25 302.28L259.241 256.499L219.566 233.612L179.891 256.507L179.9 302.293L219.579 325.175Z" fill="#FAED5B"/>
<path fill-rule="evenodd" clip-rule="evenodd" d="M487.118 325.175L526.788 302.28L526.78 256.499L487.105 233.612L447.43 256.507L447.439 302.293L487.118 325.175Z" fill="#FAED5B"/>
<path fill-rule="evenodd" clip-rule="evenodd" d="M397.759 325.175L437.43 302.28L437.421 256.499L397.746 233.612L358.071 256.507L358.08 302.293L397.759 325.175Z" fill="#FAED5B"/>
<path fill-rule="evenodd" clip-rule="evenodd" d="M308.4 325.175L348.071 302.28L348.062 256.499L308.387 233.612L268.713 256.507L268.721 302.293L308.4 325.175Z" fill="#FAED5B"/>
<path fill-rule="evenodd" clip-rule="evenodd" d="M129.683 325.175L169.353 302.28L169.344 256.499L129.67 233.612L89.9949 256.507L90.0035 302.293L129.683 325.175Z" fill="#FAED5B"/>
<path fill-rule="evenodd" clip-rule="evenodd" d="M39.7864 325.175L79.4569 302.28L79.448 256.499L39.7733 233.612L0.0983887 256.507L0.107178 302.293L39.7864 325.175Z" fill="#FAED5B"/>
<path fill-rule="evenodd" clip-rule="evenodd" d="M353.08 401.63L392.75 378.735L392.741 332.954L353.067 310.067L313.392 332.962L313.401 378.748L353.08 401.63Z" fill="#FAED5B"/>
<path fill-rule="evenodd" clip-rule="evenodd" d="M666.373 325.175L706.044 302.28L706.035 256.499L666.36 233.612L626.685 256.507L626.694 302.293L666.373 325.175Z" fill="#FAED5B"/>
<path fill-rule="evenodd" clip-rule="evenodd" d="M484.277 169.739L523.947 146.843L523.939 101.062L484.264 78.1754L444.589 101.071L444.597 146.857L484.277 169.739Z" fill="#FAED5B"/>
<path fill-rule="evenodd" clip-rule="evenodd" d="M349.701 246.193L389.371 223.298L389.363 177.517L349.688 154.63L310.013 177.526L310.022 223.311L349.701 246.193Z" fill="#FAED5B"/>
<path fill-rule="evenodd" clip-rule="evenodd" d="M349.701 91.5631L389.371 68.668L389.363 22.8864L349.688 0L310.013 22.8952L310.022 68.6811L349.701 91.5631Z" fill="#FAED5B"/>
<path fill-rule="evenodd" clip-rule="evenodd" d="M394.918 169.739L434.588 146.843L434.58 101.062L394.904 78.1754L355.23 101.071L355.238 146.857L394.918 169.739Z" fill="#FAED5B"/>
<path fill-rule="evenodd" clip-rule="evenodd" d="M259.804 91.5631L299.475 68.668L299.466 22.8864L259.791 0L220.116 22.8952L220.125 68.6811L259.804 91.5631Z" fill="#FAED5B"/>
<path fill-rule="evenodd" clip-rule="evenodd" d="M303.946 169.739L343.617 146.843L343.608 101.062L303.933 78.1754L264.258 101.071L264.267 146.857L303.946 169.739Z" fill="#FAED5B"/>
<path fill-rule="evenodd" clip-rule="evenodd" d="M259.804 246.193L299.475 223.298L299.466 177.517L259.791 154.63L220.116 177.526L220.125 223.311L259.804 246.193Z" fill="#FAED5B"/>
<path fill-rule="evenodd" clip-rule="evenodd" d="M575.769 77.2614L536.098 100.157L536.107 145.938L575.782 168.825L615.457 145.929L615.448 100.143L575.769 77.2614Z" fill="#FAED5B"/>
<path fill-rule="evenodd" clip-rule="evenodd" d="M620.985 155.437L581.315 178.332L581.324 224.114L620.999 247L660.673 224.105L660.665 178.319L620.985 155.437Z" fill="#FAED5B"/>
<path fill-rule="evenodd" clip-rule="evenodd" d="M620.985 0.806479L581.315 23.7016L581.324 69.4832L620.999 92.3696L660.673 69.4744L660.665 23.6885L620.985 0.806479Z" fill="#FAED5B"/>
<path fill-rule="evenodd" clip-rule="evenodd" d="M710.344 155.437L670.674 178.332L670.683 224.114L710.358 247L750.032 224.105L750.024 178.319L710.344 155.437Z" fill="#FAED5B"/>
<path fill-rule="evenodd" clip-rule="evenodd" d="M887.987 0.806479L848.316 23.7016L848.325 69.4832L888 92.3696L927.675 69.4744L927.666 23.6885L887.987 0.806479Z" fill="#FAED5B"/>
<path fill-rule="evenodd" clip-rule="evenodd" d="M932.666 77.2614L892.996 100.157L893.004 145.938L932.679 168.825L972.354 145.929L972.346 100.143L932.666 77.2614Z" fill="#FAED5B"/>
<path fill-rule="evenodd" clip-rule="evenodd" d="M665.127 77.2614L625.457 100.157L625.466 145.938L665.141 168.825L704.815 145.929L704.807 100.143L665.127 77.2614Z" fill="#FAED5B"/>
<path fill-rule="evenodd" clip-rule="evenodd" d="M754.486 77.2614L714.816 100.157L714.824 145.938L754.499 168.825L794.174 145.929L794.165 100.143L754.486 77.2614Z" fill="#FAED5B"/>
<path fill-rule="evenodd" clip-rule="evenodd" d="M843.845 77.2614L804.174 100.157L804.183 145.938L843.858 168.825L883.533 145.929L883.524 100.143L843.845 77.2614Z" fill="#FAED5B"/>
<path fill-rule="evenodd" clip-rule="evenodd" d="M799.166 0.806479L759.495 23.7016L759.504 69.4832L799.179 92.3696L838.854 69.4744L838.845 23.6885L799.166 0.806479Z" fill="#FAED5B"/>
<path fill-rule="evenodd" clip-rule="evenodd" d="M214.05 169.739L253.72 146.843L253.711 101.062L214.036 78.1754L174.362 101.071L174.37 146.857L214.05 169.739Z" fill="#FAED5B"/>
</g>
<path d="M426 311C441.022 307.551 446.633 300.638 448 273H472C472 283.5 472 288.5 481.5 288.5C489.5 288.5 489.928 282.822 489.5 273H515C514.358 296.794 517.656 306.426 536 311H426Z" fill="#EFEFEF"/>
<rect x="304" y="45" width="354" height="229" rx="7" fill="#595959"/>
<rect x="311" y="58" width="340" height="210" rx="3" fill="#F5F5F5"/>
<path d="M425 315V312C425 311.448 425.448 311 426 311H536C536.552 311 537 311.448 537 312V315C537 315.552 536.552 316 536 316H426C425.448 316 425 315.552 425 315Z" fill="#C4C4C4"/>
<circle cx="482.5" cy="51.5" r="1.5" fill="#EFEFEF"/>
<rect x="205" y="158" width="128.289" height="176" rx="8" fill="#595959"/>
<rect x="209.24" y="167.545" width="119.807" height="156.916" fill="#F5F5F5"/>
<circle cx="268.615" cy="163.303" r="1.06024" fill="#EFEFEF"/>
<path d="M616 159C616 154.029 620.029 150 625 150H885C889.971 150 894 154.029 894 159V316C894 320.971 889.971 325 885 325H625C620.029 325 616 320.971 616 316V159Z" fill="#C4C4C4"/>
<path d="M617.5 160C617.5 155.029 621.529 151 626.5 151H883.5C888.471 151 892.5 155.029 892.5 160V314C892.5 318.971 888.471 323 883.5 323H626.5C621.529 323 617.5 318.971 617.5 314V160Z" fill="#595959"/>
<path d="M590 326V324C590 323.448 590.448 323 591 323H919C919.552 323 920 323.448 920 324V326C920 326.552 919.552 327 919 327H591C590.448 327 590 326.552 590 326Z" fill="#EFEFEF"/>
<path d="M622 166C622 162.134 625.134 159 629 159H881C884.866 159 888 162.134 888 166V312C888 315.866 884.866 319 881 319H629C625.134 319 622 315.866 622 312V166Z" fill="#F5F5F5"/>
<path d="M609.5 334L591 327H919.5L905.5 334H609.5Z" fill="#C4C4C4"/>
<path d="M775.75 325H734.25C733.007 325 732 326.007 732 327.25C732 328.493 733.007 329.5 734.25 329.5H775.75C776.993 329.5 778 328.493 778 327.25C778 326.007 776.993 325 775.75 325Z" fill="#939393" fill-opacity="0.9"/>
<circle cx="755" cy="155" r="1" fill="#EFEFEF"/>
<rect x="122" y="193.863" width="73" height="152" rx="10" transform="rotate(-16.6069 122 193.863)" fill="#595959"/>
<rect x="126.203" y="200.958" width="69" height="139" rx="5" transform="rotate(-16.6069 126.203 200.958)" fill="#F5F5F5"/>
<circle cx="151.892" cy="189.122" r="1" transform="rotate(-16.6069 151.892 189.122)" fill="#EFEFEF"/>
<path d="M154.96 187.164C154.431 187.322 154.13 187.879 154.288 188.408C154.445 188.937 155.002 189.238 155.532 189.08L154.96 187.164ZM165.594 186.079C166.123 185.922 166.424 185.365 166.266 184.835C166.108 184.306 165.551 184.005 165.022 184.163L165.594 186.079ZM155.532 189.08L165.594 186.079L165.022 184.163L154.96 187.164L155.532 189.08Z" fill="#EFEFEF"/>
<path fill-rule="evenodd" clip-rule="evenodd" d="M481.491 204.097L442.496 181.578L442.504 136.547L481.504 114.036L520.504 136.556L520.496 181.59L481.491 204.097ZM523.991 183.609L481.491 208.133L439 183.595L439.009 134.529L481.505 110L524 134.538L523.991 183.609Z" fill="#333333"/>
<path fill-rule="evenodd" clip-rule="evenodd" d="M481.527 142.967C481.363 142.958 485.489 144.4 486.503 144.764C487.014 145.601 487.521 146.443 488.032 147.28C487.247 147.735 486.466 148.194 485.681 148.649C485.677 149.386 485.311 151.356 485.718 151.661C486.617 152.616 487.516 153.567 488.411 154.522C488.543 154.659 489.292 155.396 489.251 155.482C489.397 155.286 487.571 157.616 486.987 158.375C487.073 158.425 488.68 159.572 489.475 160.104C489.936 161.109 490.401 162.115 490.867 163.116C487.772 163.47 484.677 163.825 481.582 164.176C478.427 163.775 472.338 162.979 472.452 162.993C472.452 162.975 472.452 162.956 472.452 162.943C472.776 162.047 473.105 161.15 473.429 160.254C475.506 158.958 475.967 158.689 476.054 158.557C474.862 156.929 473.894 155.605 473.89 155.596C475.209 154.213 476.533 152.834 477.852 151.451C477.72 149.695 477.647 148.663 477.629 148.645C476.77 148.131 475.912 147.616 475.054 147.102C475.552 146.347 476.049 145.597 476.547 144.841C478.208 144.223 479.865 143.595 481.527 142.967Z" fill="#333333"/>
<path fill-rule="evenodd" clip-rule="evenodd" d="M452.278 143.504C455.824 143.727 459.37 143.949 462.916 144.172C464.212 144.577 465.513 144.981 466.809 145.386C468.356 145.727 476.84 148.845 476.999 149.099C477.022 149.867 477.045 150.64 477.068 151.408C475.525 152.894 473.978 154.385 472.436 155.872C469.898 157.299 467.356 158.721 464.819 160.149C464.892 160.099 456.354 157.058 454.181 156.281C452.433 153.304 450.681 150.326 448.933 147.349C450.047 146.068 451.165 144.786 452.278 143.504Z" fill="#333333"/>
<path fill-rule="evenodd" clip-rule="evenodd" d="M510.494 143.504C510.585 143.504 510.676 143.504 510.768 143.504C511.882 144.777 513.001 146.049 514.116 147.318C512.366 150.304 510.612 153.295 508.863 156.281C505.319 157.554 501.774 158.827 498.234 160.095C495.498 158.409 492.763 156.718 490.027 155.031C489.341 154.363 488.652 153.695 487.967 153.031C487.396 152.486 486.82 151.936 486.249 151.39C486.277 150.627 486.309 149.863 486.336 149.1C486.669 148.704 492.114 146.863 496.727 145.231C497.86 144.877 498.993 144.522 500.125 144.172C500.651 144.136 504.003 143.918 510.494 143.504Z" fill="#333333"/>
<path fill-rule="evenodd" clip-rule="evenodd" d="M482.041 139.531C482.351 139.531 482.656 139.531 482.966 139.531C484.006 140.342 484.995 140.946 486.035 141.757C485.975 142.362 485.971 143.172 485.916 143.773C485.911 143.773 485.902 143.773 485.898 143.773C484.867 143.397 483.842 143.026 482.811 142.65C482.187 142.407 481.681 142.21 481.63 142.22C480.172 142.737 478.681 143.255 477.226 143.773C477.222 143.768 477.213 143.759 477.208 143.754C477.181 143.104 477.149 142.453 477.122 141.807C478.106 141.065 479.087 140.323 480.071 139.581C480.787 139.54 481.38 139.549 482.041 139.531Z" fill="#333333"/>
<path fill-rule="evenodd" clip-rule="evenodd" d="M482.041 139.531C482.351 139.531 482.656 139.531 482.966 139.531C484.006 140.342 484.995 140.946 486.035 141.757C485.975 142.362 485.971 143.172 485.916 143.773C485.911 143.773 485.902 143.773 485.898 143.773C484.867 143.397 483.842 143.026 482.811 142.65C482.187 142.407 481.681 142.21 481.63 142.22C480.172 142.737 478.681 143.255 477.226 143.773C477.222 143.768 477.213 143.759 477.208 143.754C477.181 143.104 477.149 142.453 477.122 141.807C478.106 141.065 479.087 140.323 480.071 139.581C480.787 139.54 481.38 139.549 482.041 139.531Z" fill="#333333"/>
<path fill-rule="evenodd" clip-rule="evenodd" d="M491.184 164.288C491.471 165.561 491.754 166.834 492.041 168.108C492.096 168.411 491.813 169.155 491.731 169.44C491.476 170.496 491.216 171.556 490.96 172.612C487.927 173.02 484.89 173.432 481.857 173.84C478.72 173.5 475.582 173.156 472.444 172.816C471.997 171.289 471.55 169.757 471.108 168.226C471.569 166.911 471.768 165.602 472.233 164.288C474.285 164.695 476.69 165.103 478.742 165.511C479.385 165.661 480.033 165.742 480.713 165.887C480.936 165.933 481.246 166.055 481.52 166.005C483.663 165.629 485.807 165.253 487.95 164.881C489.027 164.686 490.107 164.487 491.184 164.288Z" fill="#333333"/>
<path fill-rule="evenodd" clip-rule="evenodd" d="M490.691 173.679C490.714 173.679 490.737 173.679 490.759 173.679C490.759 173.684 490.759 173.693 490.759 173.697C489.893 175.222 489.022 176.747 488.156 178.271C487.691 178.526 487.23 178.785 486.765 179.04C486.013 179.468 485.256 179.896 484.504 180.324C483.984 180.342 483.464 180.36 482.945 180.374C482.48 181.593 482.019 182.818 481.554 184.042C481.549 184.042 481.54 184.042 481.536 184.042C481.098 182.849 480.656 181.657 480.218 180.46C479.83 180.474 479.443 180.483 479.051 180.497C478.144 180.023 477.232 179.55 476.324 179.077C475.836 178.831 475.353 178.585 474.865 178.339C474.168 176.883 473.47 175.427 472.772 173.97C472.772 173.966 472.772 173.957 472.772 173.952C473.684 174.13 474.601 174.307 475.517 174.485C477.51 174.849 479.507 175.217 481.499 175.581C481.723 175.622 485.215 174.853 490.691 173.679Z" fill="#333333"/>
<path fill-rule="evenodd" clip-rule="evenodd" d="M753.908 273.875L723.707 256.434L723.714 221.56L753.918 204.126L784.122 221.566L784.115 256.444L753.908 273.875ZM786.822 258.007L753.907 277L721 257.996L721.007 219.996L753.918 201L786.829 220.004L786.822 258.007Z" fill="#333333"/>
<path fill-rule="evenodd" clip-rule="evenodd" d="M753.935 226.532C753.808 226.525 757.004 227.641 757.789 227.923C758.185 228.572 758.577 229.223 758.973 229.872C758.365 230.224 757.761 230.58 757.153 230.932C757.149 231.503 756.866 233.028 757.181 233.264C757.877 234.004 758.574 234.741 759.267 235.481C759.369 235.586 759.949 236.157 759.917 236.224C760.03 236.072 758.616 237.876 758.164 238.465C758.231 238.503 759.475 239.391 760.09 239.804C760.447 240.582 760.808 241.361 761.169 242.136C758.772 242.411 756.375 242.685 753.978 242.957C751.535 242.647 746.819 242.03 746.907 242.041C746.907 242.027 746.907 242.013 746.907 242.002C747.158 241.308 747.413 240.614 747.664 239.92C749.272 238.916 749.629 238.708 749.697 238.606C748.774 237.344 748.024 236.319 748.021 236.312C749.042 235.241 750.068 234.173 751.089 233.102C750.987 231.742 750.93 230.943 750.916 230.929C750.252 230.531 749.587 230.132 748.922 229.734C749.308 229.149 749.693 228.568 750.078 227.983C751.365 227.504 752.649 227.018 753.935 226.532Z" fill="#333333"/>
<path fill-rule="evenodd" clip-rule="evenodd" d="M731.283 226.947C734.03 227.12 736.776 227.292 739.522 227.465C740.526 227.778 741.533 228.092 742.537 228.405C743.735 228.669 750.305 231.084 750.429 231.281C750.447 231.876 750.464 232.474 750.482 233.069C749.287 234.22 748.089 235.375 746.895 236.526C744.93 237.631 742.961 238.733 740.996 239.838C741.052 239.799 734.44 237.444 732.757 236.842C731.404 234.537 730.046 232.231 728.693 229.925C729.555 228.933 730.421 227.94 731.283 226.947Z" fill="#333333"/>
<path fill-rule="evenodd" clip-rule="evenodd" d="M776.369 226.947C776.44 226.947 776.51 226.947 776.581 226.947C777.444 227.933 778.311 228.919 779.174 229.901C777.819 232.214 776.461 234.53 775.106 236.843C772.361 237.829 769.616 238.814 766.875 239.796C764.756 238.49 762.637 237.181 760.518 235.875C759.987 235.357 759.453 234.84 758.923 234.326C758.48 233.904 758.035 233.478 757.593 233.055C757.614 232.464 757.639 231.872 757.66 231.281C757.918 230.975 762.135 229.549 765.707 228.285C766.585 228.011 767.462 227.736 768.339 227.465C768.746 227.437 771.342 227.268 776.369 226.947Z" fill="#333333"/>
<path fill-rule="evenodd" clip-rule="evenodd" d="M754.333 223.87C754.573 223.87 754.81 223.87 755.05 223.87C755.855 224.498 756.621 224.967 757.426 225.594C757.38 226.063 757.377 226.691 757.334 227.155C757.331 227.155 757.324 227.155 757.32 227.155C756.522 226.865 755.728 226.577 754.93 226.286C754.446 226.098 754.054 225.946 754.016 225.953C752.886 226.354 751.731 226.755 750.605 227.155C750.601 227.152 750.594 227.145 750.591 227.141C750.569 226.637 750.545 226.134 750.524 225.634C751.286 225.059 752.045 224.484 752.808 223.909C753.362 223.877 753.821 223.885 754.333 223.87Z" fill="#333333"/>
<path fill-rule="evenodd" clip-rule="evenodd" d="M754.333 223.87C754.573 223.87 754.81 223.87 755.05 223.87C755.855 224.498 756.621 224.967 757.426 225.594C757.38 226.063 757.377 226.691 757.334 227.155C757.331 227.155 757.324 227.155 757.32 227.155C756.522 226.865 755.728 226.577 754.93 226.286C754.446 226.098 754.054 225.946 754.016 225.953C752.886 226.354 751.731 226.755 750.605 227.155C750.601 227.152 750.594 227.145 750.591 227.141C750.569 226.637 750.545 226.134 750.524 225.634C751.286 225.059 752.045 224.484 752.808 223.909C753.362 223.877 753.821 223.885 754.333 223.87Z" fill="#333333"/>
<path fill-rule="evenodd" clip-rule="evenodd" d="M761.414 243.043C761.637 244.03 761.856 245.016 762.078 246.002C762.121 246.237 761.902 246.813 761.838 247.034C761.64 247.852 761.439 248.673 761.241 249.491C758.892 249.806 756.54 250.126 754.191 250.442C751.761 250.178 749.331 249.912 746.901 249.648C746.555 248.466 746.209 247.279 745.866 246.093C746.223 245.075 746.377 244.061 746.738 243.043C748.327 243.359 750.189 243.675 751.779 243.991C752.277 244.107 752.778 244.17 753.305 244.282C753.478 244.317 753.718 244.412 753.93 244.374C755.59 244.082 757.25 243.791 758.91 243.503C759.743 243.352 760.581 243.198 761.414 243.043Z" fill="#333333"/>
<path fill-rule="evenodd" clip-rule="evenodd" d="M761.033 250.317C761.05 250.317 761.068 250.317 761.086 250.317C761.086 250.32 761.086 250.327 761.086 250.331C760.415 251.512 759.74 252.692 759.069 253.873C758.709 254.071 758.352 254.271 757.992 254.469C757.41 254.8 756.824 255.131 756.241 255.463C755.838 255.477 755.436 255.491 755.033 255.501C754.673 256.446 754.316 257.394 753.956 258.342C753.953 258.342 753.946 258.342 753.942 258.342C753.603 257.419 753.261 256.495 752.922 255.568C752.622 255.579 752.321 255.586 752.018 255.597C751.315 255.23 750.609 254.864 749.906 254.497C749.528 254.307 749.154 254.116 748.776 253.926C748.236 252.798 747.696 251.67 747.155 250.542C747.155 250.539 747.155 250.532 747.155 250.528C747.862 250.666 748.571 250.803 749.281 250.941C750.824 251.223 752.371 251.508 753.914 251.79C754.087 251.822 756.792 251.226 761.033 250.317Z" fill="#333333"/>
<path fill-rule="evenodd" clip-rule="evenodd" d="M268.279 275.409L243.244 260.952L243.25 232.043L268.287 217.591L293.325 232.048L293.319 260.96L268.279 275.409ZM295.563 262.256L268.278 278L241 262.247L241.006 230.747L268.287 215L295.569 230.753L295.563 262.256Z" fill="#333333"/>
<path fill-rule="evenodd" clip-rule="evenodd" d="M268.302 236.164C268.196 236.159 270.845 237.084 271.496 237.318C271.824 237.855 272.15 238.396 272.478 238.933C271.974 239.225 271.473 239.52 270.969 239.812C270.966 240.285 270.731 241.55 270.992 241.746C271.569 242.359 272.147 242.969 272.721 243.583C272.806 243.67 273.287 244.143 273.26 244.199C273.354 244.073 272.182 245.569 271.807 246.056C271.862 246.088 272.894 246.824 273.404 247.166C273.7 247.812 273.999 248.457 274.298 249.099C272.311 249.327 270.324 249.555 268.337 249.78C266.312 249.523 262.402 249.012 262.476 249.021C262.476 249.009 262.476 248.997 262.476 248.988C262.684 248.413 262.895 247.838 263.103 247.262C264.436 246.43 264.732 246.258 264.788 246.173C264.023 245.128 263.402 244.278 263.399 244.272C264.246 243.384 265.096 242.499 265.943 241.611C265.858 240.484 265.811 239.821 265.799 239.809C265.248 239.479 264.697 239.149 264.146 238.819C264.466 238.334 264.785 237.853 265.104 237.368C266.171 236.971 267.235 236.567 268.302 236.164Z" fill="#333333"/>
<path fill-rule="evenodd" clip-rule="evenodd" d="M249.524 236.509C251.801 236.652 254.077 236.795 256.354 236.938C257.186 237.198 258.021 237.457 258.853 237.717C259.846 237.936 265.293 239.938 265.395 240.101C265.41 240.594 265.424 241.09 265.439 241.583C264.449 242.538 263.456 243.495 262.465 244.449C260.836 245.365 259.204 246.278 257.575 247.195C257.622 247.163 252.141 245.21 250.746 244.712C249.624 242.8 248.499 240.889 247.377 238.978C248.092 238.155 248.81 237.332 249.524 236.509Z" fill="#333333"/>
<path fill-rule="evenodd" clip-rule="evenodd" d="M286.898 236.509C286.956 236.509 287.015 236.509 287.074 236.509C287.789 237.326 288.508 238.143 289.223 238.957C288.1 240.875 286.974 242.795 285.851 244.712C283.576 245.529 281.3 246.346 279.028 247.16C277.271 246.078 275.515 244.992 273.758 243.909C273.319 243.48 272.876 243.052 272.436 242.625C272.069 242.275 271.7 241.922 271.333 241.572C271.351 241.082 271.371 240.592 271.389 240.101C271.603 239.847 275.098 238.666 278.06 237.618C278.787 237.39 279.514 237.163 280.242 236.938C280.579 236.915 282.731 236.775 286.898 236.509Z" fill="#333333"/>
<path fill-rule="evenodd" clip-rule="evenodd" d="M268.632 233.958C268.831 233.958 269.027 233.958 269.226 233.958C269.893 234.479 270.528 234.867 271.195 235.388C271.157 235.776 271.155 236.296 271.119 236.681C271.116 236.681 271.111 236.681 271.108 236.681C270.446 236.44 269.788 236.202 269.126 235.961C268.725 235.805 268.4 235.679 268.368 235.685C267.432 236.017 266.474 236.349 265.541 236.681C265.538 236.679 265.532 236.673 265.529 236.67C265.512 236.252 265.491 235.835 265.474 235.42C266.106 234.943 266.735 234.467 267.367 233.991C267.827 233.964 268.207 233.97 268.632 233.958Z" fill="#333333"/>
<path fill-rule="evenodd" clip-rule="evenodd" d="M268.632 233.958C268.831 233.958 269.027 233.958 269.226 233.958C269.893 234.479 270.528 234.867 271.195 235.388C271.157 235.776 271.155 236.296 271.119 236.681C271.116 236.681 271.111 236.681 271.108 236.681C270.446 236.44 269.788 236.202 269.126 235.961C268.725 235.805 268.4 235.679 268.368 235.685C267.432 236.017 266.474 236.349 265.541 236.681C265.538 236.679 265.532 236.673 265.529 236.67C265.512 236.252 265.491 235.835 265.474 235.42C266.106 234.943 266.735 234.467 267.367 233.991C267.827 233.964 268.207 233.97 268.632 233.958Z" fill="#333333"/>
<path fill-rule="evenodd" clip-rule="evenodd" d="M274.501 249.852C274.686 250.669 274.867 251.487 275.052 252.304C275.087 252.499 274.905 252.976 274.853 253.16C274.689 253.837 274.522 254.518 274.358 255.196C272.411 255.458 270.461 255.723 268.514 255.984C266.499 255.766 264.485 255.545 262.471 255.327C262.184 254.347 261.897 253.363 261.613 252.38C261.909 251.536 262.037 250.695 262.335 249.852C263.653 250.114 265.197 250.375 266.514 250.637C266.927 250.733 267.343 250.786 267.779 250.879C267.922 250.908 268.121 250.986 268.297 250.954C269.673 250.713 271.049 250.471 272.425 250.233C273.116 250.108 273.81 249.98 274.501 249.852Z" fill="#333333"/>
<path fill-rule="evenodd" clip-rule="evenodd" d="M274.185 255.881C274.2 255.881 274.214 255.881 274.229 255.881C274.229 255.884 274.229 255.89 274.229 255.893C273.673 256.872 273.114 257.85 272.557 258.829C272.259 258.993 271.963 259.159 271.665 259.323C271.182 259.597 270.696 259.872 270.213 260.147C269.879 260.158 269.545 260.17 269.212 260.179C268.913 260.962 268.618 261.748 268.319 262.534C268.316 262.534 268.31 262.534 268.307 262.534C268.026 261.768 267.742 261.003 267.461 260.234C267.213 260.243 266.964 260.249 266.712 260.258C266.13 259.954 265.544 259.65 264.962 259.346C264.648 259.188 264.338 259.031 264.025 258.873C263.577 257.938 263.129 257.003 262.681 256.068C262.681 256.065 262.681 256.059 262.681 256.056C263.267 256.17 263.855 256.284 264.444 256.398C265.723 256.632 267.005 256.869 268.284 257.102C268.427 257.129 270.669 256.635 274.185 255.881Z" fill="#333333"/>
<path fill-rule="evenodd" clip-rule="evenodd" d="M184.695 277.964L164.161 273.073L158.131 252.845L172.633 237.507L193.169 242.397L199.2 262.627L184.695 277.964ZM201.04 263.066L185.236 279.777L162.861 274.448L156.291 252.406L172.093 235.694L194.469 241.022L201.04 263.066Z" fill="#333333"/>
<path fill-rule="evenodd" clip-rule="evenodd" d="M176.52 250.5C176.445 250.518 178.492 250.612 178.996 250.64C179.338 250.948 179.678 251.258 180.02 251.565C179.728 251.875 179.439 252.186 179.148 252.495C179.244 252.827 179.344 253.761 179.567 253.843C180.099 254.152 180.631 254.459 181.161 254.768C181.238 254.811 181.674 255.042 181.667 255.086C181.706 254.979 181.198 256.27 181.037 256.689C181.083 256.7 181.958 257 182.386 257.133C182.728 257.522 183.072 257.912 183.415 258.299C182.073 258.873 180.73 259.447 179.387 260.019C177.916 260.262 175.074 260.72 175.127 260.711C175.125 260.703 175.122 260.695 175.12 260.689C175.146 260.243 175.173 259.796 175.199 259.35C175.958 258.489 176.129 258.307 176.151 258.236C175.397 257.664 174.785 257.199 174.782 257.196C175.189 256.398 175.599 255.601 176.006 254.803C175.712 254.032 175.54 253.578 175.53 253.572C175.075 253.456 174.621 253.341 174.167 253.225C174.289 252.819 174.412 252.415 174.534 252.009C175.198 251.508 175.858 251.004 176.52 250.5Z" fill="#333333"/>
<path fill-rule="evenodd" clip-rule="evenodd" d="M163.454 254.66C165.077 254.285 166.699 253.91 168.322 253.535C168.958 253.543 169.597 253.55 170.233 253.558C170.974 253.504 175.202 253.768 175.308 253.861C175.421 254.203 175.535 254.547 175.648 254.889C175.155 255.763 174.659 256.64 174.166 257.514C173.217 258.496 172.266 259.475 171.317 260.456C171.344 260.424 167.101 260.202 166.021 260.144C164.837 259.041 163.651 257.939 162.466 256.836C162.795 256.111 163.125 255.385 163.454 254.66Z" fill="#333333"/>
<path fill-rule="evenodd" clip-rule="evenodd" d="M189.604 246.86C189.645 246.847 189.686 246.835 189.727 246.823C190.398 247.245 191.071 247.667 191.742 248.087C191.356 249.663 190.969 251.242 190.583 252.817C189.162 253.864 187.74 254.911 186.32 255.955C184.865 255.564 183.41 255.171 181.955 254.78C181.557 254.572 181.158 254.364 180.761 254.158C180.432 253.989 180.1 253.819 179.77 253.651C179.68 253.304 179.592 252.957 179.502 252.61C179.599 252.388 181.798 250.831 183.651 249.48C184.113 249.169 184.574 248.858 185.036 248.549C185.267 248.462 186.744 247.915 189.604 246.86Z" fill="#333333"/>
<path fill-rule="evenodd" clip-rule="evenodd" d="M176.291 248.887C176.43 248.846 176.567 248.805 176.706 248.763C177.282 248.988 177.807 249.127 178.383 249.352C178.437 249.632 178.544 249.997 178.6 250.273C178.598 250.274 178.593 250.275 178.591 250.276C178.078 250.245 177.568 250.216 177.055 250.185C176.742 250.16 176.488 250.139 176.467 250.15C175.881 250.578 175.28 251.01 174.696 251.438C174.694 251.436 174.688 251.433 174.686 251.432C174.586 251.143 174.485 250.856 174.386 250.569C174.729 250.104 175.07 249.639 175.413 249.174C175.729 249.059 175.996 248.984 176.291 248.887Z" fill="#333333"/>
<path fill-rule="evenodd" clip-rule="evenodd" d="M176.291 248.887C176.43 248.846 176.567 248.805 176.706 248.763C177.282 248.988 177.807 249.127 178.383 249.352C178.437 249.632 178.544 249.997 178.6 250.273C178.598 250.274 178.593 250.275 178.591 250.276C178.078 250.245 177.568 250.216 177.055 250.185C176.742 250.16 176.488 250.139 176.467 250.15C175.881 250.578 175.28 251.01 174.696 251.438C174.694 251.436 174.688 251.433 174.686 251.432C174.586 251.143 174.485 250.856 174.386 250.569C174.729 250.104 175.07 249.639 175.413 249.174C175.729 249.059 175.996 248.984 176.291 248.887Z" fill="#333333"/>
<path fill-rule="evenodd" clip-rule="evenodd" d="M183.715 258.783C184.014 259.316 184.312 259.85 184.612 260.384C184.677 260.513 184.65 260.885 184.651 261.024C184.678 261.532 184.703 262.044 184.73 262.552C183.422 263.142 182.113 263.734 180.805 264.323C179.35 264.591 177.895 264.857 176.44 265.125C176.035 264.499 175.629 263.87 175.225 263.242C175.255 262.59 175.169 261.975 175.202 261.322C176.179 261.23 177.314 261.091 178.29 260.999C178.599 260.98 178.901 260.93 179.226 260.904C179.332 260.895 179.488 260.908 179.604 260.849C180.516 260.393 181.429 259.937 182.342 259.483C182.799 259.251 183.258 259.016 183.715 258.783Z" fill="#333333"/>
<path fill-rule="evenodd" clip-rule="evenodd" d="M184.752 263.067C184.762 263.064 184.772 263.061 184.783 263.058C184.783 263.06 184.784 263.064 184.785 263.066C184.6 263.867 184.413 264.669 184.228 265.47C184.054 265.647 183.882 265.825 183.707 266.002C183.426 266.295 183.144 266.588 182.863 266.881C182.632 266.959 182.401 267.037 182.169 267.112C182.124 267.723 182.081 268.334 182.036 268.946C182.034 268.947 182.03 268.948 182.028 268.949C181.672 268.472 181.313 267.996 180.956 267.517C180.784 267.575 180.611 267.631 180.437 267.689C179.966 267.598 179.493 267.508 179.022 267.417C178.77 267.372 178.52 267.326 178.268 267.281C177.759 266.721 177.251 266.16 176.742 265.599C176.741 265.597 176.74 265.593 176.74 265.591C177.173 265.549 177.608 265.505 178.044 265.462C178.988 265.359 179.934 265.257 180.878 265.154C180.984 265.142 182.45 264.329 184.752 263.067Z" fill="#333333"/>
<defs>
<filter id="filter0_i" x="0.0983887" y="0" width="972.256" height="405.63" filterUnits="userSpaceOnUse" color-interpolation-filters="sRGB">
<feFlood flood-opacity="0" result="BackgroundImageFix"/>
<feBlend mode="normal" in="SourceGraphic" in2="BackgroundImageFix" result="shape"/>
<feColorMatrix in="SourceAlpha" type="matrix" values="0 0 0 0 0 0 0 0 0 0 0 0 0 0 0 0 0 0 127 0" result="hardAlpha"/>
<feOffset dy="4"/>
<feGaussianBlur stdDeviation="2"/>
<feComposite in2="hardAlpha" operator="arithmetic" k2="-1" k3="1"/>
<feColorMatrix type="matrix" values="0 0 0 0 0 0 0 0 0 0 0 0 0 0 0 0 0 0 0.25 0"/>
<feBlend mode="normal" in2="shape" result="effect1_innerShadow"/>
</filter>
</defs>
</svg>
