<svg viewBox="0 0 1440 188" fill="none" xmlns="http://www.w3.org/2000/svg">
<g filter="url(#filter0_i)">
<path fill-rule="evenodd" clip-rule="evenodd" d="M61.009 78.9007L42.1639 68.0246L42.1681 46.2766L61.0152 35.4047L79.8623 46.2808L79.8582 68.0309L61.009 78.9007Z" fill="white" fill-opacity="0.5"/>
<path fill-rule="evenodd" clip-rule="evenodd" d="M82.4889 41.7643L63.6438 30.8882L63.648 9.14017L82.4951 -1.73179L101.342 9.14433L101.338 30.8945L82.4889 41.7643Z" fill="white" fill-opacity="0.5"/>
<path fill-rule="evenodd" clip-rule="evenodd" d="M82.4889 115.22L63.6438 104.344L63.648 82.5957L82.4951 71.7238L101.342 82.5999L101.338 104.35L82.4889 115.22Z" fill="white" fill-opacity="0.5"/>
<path fill-rule="evenodd" clip-rule="evenodd" d="M124.682 115.22L105.837 104.344L105.842 82.5957L124.689 71.7238L143.536 82.5999L143.532 104.35L124.682 115.22Z" fill="white" fill-opacity="0.5"/>
<path fill-rule="evenodd" clip-rule="evenodd" d="M252.029 41.7643L233.184 30.8882L233.189 9.14017L252.036 -1.73179L270.883 9.14433L270.879 30.8945L252.029 41.7643Z" fill="white" fill-opacity="0.5"/>
<path fill-rule="evenodd" clip-rule="evenodd" d="M400.856 78.4921L382.011 67.616L382.015 45.868L400.863 34.996L419.71 45.8721L419.706 67.6222L400.856 78.4921Z" fill="white" fill-opacity="0.5"/>
<path fill-rule="evenodd" clip-rule="evenodd" d="M230.55 78.9007L211.705 68.0246L211.709 46.2766L230.556 35.4047L249.403 46.2808L249.399 68.0309L230.55 78.9007Z" fill="white" fill-opacity="0.5"/>
<path fill-rule="evenodd" clip-rule="evenodd" d="M336.672 115.22L317.827 104.344L317.831 82.5957L336.678 71.7238L355.525 82.5999L355.521 104.35L336.672 115.22Z" fill="white" fill-opacity="0.5"/>
<path fill-rule="evenodd" clip-rule="evenodd" d="M103.458 78.9007L84.6129 68.0246L84.6171 46.2766L103.464 35.4047L122.311 46.2808L122.307 68.0309L103.458 78.9007Z" fill="white" fill-opacity="0.5"/>
<path fill-rule="evenodd" clip-rule="evenodd" d="M145.907 78.9007L127.062 68.0246L127.066 46.2766L145.913 35.4047L164.76 46.2808L164.756 68.0309L145.907 78.9007Z" fill="white" fill-opacity="0.5"/>
<path fill-rule="evenodd" clip-rule="evenodd" d="M188.356 78.9007L169.511 68.0246L169.515 46.2766L188.362 35.4047L207.209 46.2808L207.205 68.0309L188.356 78.9007Z" fill="white" fill-opacity="0.5"/>
<path fill-rule="evenodd" clip-rule="evenodd" d="M273.254 78.9007L254.409 68.0246L254.413 46.2766L273.26 35.4047L292.107 46.2808L292.103 68.0309L273.254 78.9007Z" fill="white" fill-opacity="0.5"/>
<path fill-rule="evenodd" clip-rule="evenodd" d="M910.764 78.9007L929.609 68.0246L929.604 46.2766L910.758 35.4047L891.91 46.2808L891.915 68.0309L910.764 78.9007Z" fill="white" fill-opacity="0.5"/>
<path fill-rule="evenodd" clip-rule="evenodd" d="M1124.29 78.9007L1143.13 68.0246L1143.13 46.2766L1124.28 35.4047L1105.43 46.2808L1105.44 68.0309L1124.29 78.9007Z" fill="white" fill-opacity="0.5"/>
<path fill-rule="evenodd" clip-rule="evenodd" d="M889.284 41.7643L908.129 30.8882L908.125 9.14017L889.277 -1.73179L870.43 9.14433L870.434 30.8945L889.284 41.7643Z" fill="white" fill-opacity="0.5"/>
<path fill-rule="evenodd" clip-rule="evenodd" d="M1060.36 115.22L1079.2 104.344L1079.2 82.5957L1060.35 71.7238L1041.5 82.5999L1041.51 104.35L1060.36 115.22Z" fill="white" fill-opacity="0.5"/>
<path fill-rule="evenodd" clip-rule="evenodd" d="M1060.36 41.7643L1079.2 30.8882L1079.2 9.14017L1060.35 -1.73179L1041.5 9.14433L1041.51 30.8945L1060.36 41.7643Z" fill="white" fill-opacity="0.5"/>
<path fill-rule="evenodd" clip-rule="evenodd" d="M1081.84 78.9007L1100.68 68.0246L1100.68 46.2766L1081.83 35.4047L1062.98 46.2808L1062.99 68.0309L1081.84 78.9007Z" fill="white" fill-opacity="0.5"/>
<path fill-rule="evenodd" clip-rule="evenodd" d="M889.284 115.22L908.129 104.344L908.125 82.5957L889.277 71.7238L870.43 82.5999L870.434 104.35L889.284 115.22Z" fill="white" fill-opacity="0.5"/>
<path fill-rule="evenodd" clip-rule="evenodd" d="M1017.65 41.7643L1036.5 30.8882L1036.49 9.14017L1017.65 -1.73179L998.799 9.14433L998.803 30.8945L1017.65 41.7643Z" fill="white" fill-opacity="0.5"/>
<path fill-rule="evenodd" clip-rule="evenodd" d="M846.835 41.7643L865.68 30.8882L865.675 9.14017L846.828 -1.73179L827.981 9.14433L827.985 30.8945L846.835 41.7643Z" fill="white" fill-opacity="0.5"/>
<path fill-rule="evenodd" clip-rule="evenodd" d="M1038.62 78.9007L1057.47 68.0246L1057.46 46.2766L1038.62 35.4047L1019.77 46.2808L1019.77 68.0309L1038.62 78.9007Z" fill="white" fill-opacity="0.5"/>
<path fill-rule="evenodd" clip-rule="evenodd" d="M1017.65 115.22L1036.5 104.344L1036.49 82.5957L1017.65 71.7238L998.799 82.5999L998.803 104.35L1017.65 115.22Z" fill="white" fill-opacity="0.5"/>
<path fill-rule="evenodd" clip-rule="evenodd" d="M762.448 115.22L781.293 104.344L781.288 82.5957L762.441 71.7238L743.594 82.5999L743.598 104.35L762.448 115.22Z" fill="white" fill-opacity="0.5"/>
<path fill-rule="evenodd" clip-rule="evenodd" d="M719.743 41.7643L738.588 30.8882L738.584 9.14017L719.737 -1.73179L700.89 9.14433L700.894 30.8945L719.743 41.7643Z" fill="white" fill-opacity="0.5"/>
<path fill-rule="evenodd" clip-rule="evenodd" d="M741.223 78.9007L760.068 68.0246L760.064 46.2766L741.217 35.4047L722.37 46.2808L722.374 68.0309L741.223 78.9007Z" fill="white" fill-opacity="0.5"/>
<path fill-rule="evenodd" clip-rule="evenodd" d="M868.315 78.9007L887.16 68.0246L887.156 46.2766L868.308 35.4047L849.461 46.2808L849.465 68.0309L868.315 78.9007Z" fill="white" fill-opacity="0.5"/>
<path fill-rule="evenodd" clip-rule="evenodd" d="M825.866 78.9007L844.711 68.0246L844.706 46.2766L825.859 35.4047L807.012 46.2808L807.016 68.0309L825.866 78.9007Z" fill="white" fill-opacity="0.5"/>
<path fill-rule="evenodd" clip-rule="evenodd" d="M783.417 78.9007L802.262 68.0246L802.258 46.2766L783.41 35.4047L764.563 46.2808L764.567 68.0309L783.417 78.9007Z" fill="white" fill-opacity="0.5"/>
<path fill-rule="evenodd" clip-rule="evenodd" d="M698.518 78.9007L717.364 68.0246L717.359 46.2766L698.512 35.4047L679.665 46.2808L679.669 68.0309L698.518 78.9007Z" fill="white" fill-opacity="0.5"/>
<path fill-rule="evenodd" clip-rule="evenodd" d="M655.814 78.9007L674.659 68.0246L674.655 46.2766L655.808 35.4047L636.961 46.2808L636.965 68.0309L655.814 78.9007Z" fill="white" fill-opacity="0.5"/>
<path fill-rule="evenodd" clip-rule="evenodd" d="M634.334 41.7643L653.179 30.8882L653.175 9.14017L634.328 -1.73179L615.481 9.14433L615.485 30.8945L634.334 41.7643Z" fill="white" fill-opacity="0.5"/>
<path fill-rule="evenodd" clip-rule="evenodd" d="M634.334 115.22L653.179 104.344L653.175 82.5957L634.328 71.7238L615.481 82.5999L615.485 104.35L634.334 115.22Z" fill="white" fill-opacity="0.5"/>
<path fill-rule="evenodd" clip-rule="evenodd" d="M804.641 115.22L823.486 104.344L823.482 82.5957L804.635 71.7238L785.788 82.5999L785.792 104.35L804.641 115.22Z" fill="white" fill-opacity="0.5"/>
<path fill-rule="evenodd" clip-rule="evenodd" d="M464.666 115.22L483.511 104.344L483.507 82.5957L464.66 71.7238L445.813 82.5999L445.817 104.35L464.666 115.22Z" fill="white" fill-opacity="0.5"/>
<path fill-rule="evenodd" clip-rule="evenodd" d="M464.794 41.7643L483.639 30.8882L483.635 9.14017L464.787 -1.73179L445.94 9.14433L445.944 30.8945L464.794 41.7643Z" fill="white" fill-opacity="0.5"/>
<path fill-rule="evenodd" clip-rule="evenodd" d="M486.274 78.9007L505.119 68.0246L505.114 46.2766L486.267 35.4047L467.42 46.2808L467.424 68.0309L486.274 78.9007Z" fill="white" fill-opacity="0.5"/>
<path fill-rule="evenodd" clip-rule="evenodd" d="M613.365 78.9007L632.21 68.0246L632.206 46.2766L613.359 35.4047L594.512 46.2808L594.516 68.0309L613.365 78.9007Z" fill="white" fill-opacity="0.5"/>
<path fill-rule="evenodd" clip-rule="evenodd" d="M1167.75 34.9705L1148.9 45.8466L1148.91 67.5946L1167.75 78.4666L1186.6 67.5905L1186.6 45.8404L1167.75 34.9705Z" fill="white" fill-opacity="0.5"/>
<path fill-rule="evenodd" clip-rule="evenodd" d="M1189.23 72.1069L1170.38 82.983L1170.39 104.731L1189.23 115.603L1208.08 104.727L1208.08 82.9768L1189.23 72.1069Z" fill="white" fill-opacity="0.5"/>
<path fill-rule="evenodd" clip-rule="evenodd" d="M1189.23 -1.34868L1170.38 9.52743L1170.39 31.2755L1189.23 42.1475L1208.08 31.2714L1208.08 9.5212L1189.23 -1.34868Z" fill="white" fill-opacity="0.5"/>
<path fill-rule="evenodd" clip-rule="evenodd" d="M1231.68 72.1069L1212.83 82.983L1212.84 104.731L1231.68 115.603L1250.53 104.727L1250.53 82.9768L1231.68 72.1069Z" fill="white" fill-opacity="0.5"/>
<path fill-rule="evenodd" clip-rule="evenodd" d="M1316.06 -1.34868L1297.22 9.52743L1297.22 31.2755L1316.07 42.1475L1334.92 31.2714L1334.91 9.5212L1316.06 -1.34868Z" fill="white" fill-opacity="0.5"/>
<path fill-rule="evenodd" clip-rule="evenodd" d="M1358.77 72.1069L1339.92 82.983L1339.93 104.731L1358.77 115.603L1377.62 104.727L1377.62 82.9768L1358.77 72.1069Z" fill="white" fill-opacity="0.5"/>
<path fill-rule="evenodd" clip-rule="evenodd" d="M1337.29 34.9705L1318.44 45.8466L1318.45 67.5946L1337.29 78.4666L1356.14 67.5905L1356.14 45.8404L1337.29 34.9705Z" fill="white" fill-opacity="0.5"/>
<path fill-rule="evenodd" clip-rule="evenodd" d="M1210.2 34.9705L1191.35 45.8466L1191.36 67.5946L1210.2 78.4666L1229.05 67.5905L1229.05 45.8404L1210.2 34.9705Z" fill="white" fill-opacity="0.5"/>
<path fill-rule="evenodd" clip-rule="evenodd" d="M1252.65 34.9705L1233.8 45.8466L1233.81 67.5946L1252.65 78.4666L1271.5 67.5905L1271.5 45.8404L1252.65 34.9705Z" fill="white" fill-opacity="0.5"/>
<path fill-rule="evenodd" clip-rule="evenodd" d="M1295.1 34.9705L1276.25 45.8466L1276.25 67.5946L1295.1 78.4666L1313.95 67.5905L1313.94 45.8404L1295.1 34.9705Z" fill="white" fill-opacity="0.5"/>
<path fill-rule="evenodd" clip-rule="evenodd" d="M1379.99 34.9705L1361.15 45.8466L1361.15 67.5946L1380 78.4666L1398.85 67.5905L1398.84 45.8404L1379.99 34.9705Z" fill="white" fill-opacity="0.5"/>
<path fill-rule="evenodd" clip-rule="evenodd" d="M1422.7 34.9705L1403.85 45.8466L1403.86 67.5946L1422.7 78.4666L1441.55 67.5905L1441.55 45.8404L1422.7 34.9705Z" fill="white" fill-opacity="0.5"/>
<path fill-rule="evenodd" clip-rule="evenodd" d="M1444.18 72.1069L1425.33 82.983L1425.34 104.731L1444.18 115.603L1463.03 104.727L1463.03 82.9768L1444.18 72.1069Z" fill="white" fill-opacity="0.5"/>
<path fill-rule="evenodd" clip-rule="evenodd" d="M1444.18 -1.34868L1425.33 9.52743L1425.34 31.2755L1444.18 42.1475L1463.03 31.2714L1463.03 9.5212L1444.18 -1.34868Z" fill="white" fill-opacity="0.5"/>
<path fill-rule="evenodd" clip-rule="evenodd" d="M1273.87 -1.34868L1255.03 9.52743L1255.03 31.2755L1273.88 42.1475L1292.72 31.2714L1292.72 9.5212L1273.87 -1.34868Z" fill="white" fill-opacity="0.5"/>
<path fill-rule="evenodd" clip-rule="evenodd" d="M1465.15 34.9705L1446.3 45.8466L1446.31 67.5946L1465.15 78.4666L1484 67.5905L1484 45.8404L1465.15 34.9705Z" fill="white" fill-opacity="0.5"/>
<path fill-rule="evenodd" clip-rule="evenodd" d="M570.916 78.9007L589.761 68.0246L589.757 46.2766L570.91 35.4047L552.063 46.2808L552.067 68.0309L570.916 78.9007Z" fill="white" fill-opacity="0.5"/>
<path fill-rule="evenodd" clip-rule="evenodd" d="M528.467 78.9007L547.312 68.0246L547.308 46.2766L528.461 35.4047L509.614 46.2808L509.618 68.0309L528.467 78.9007Z" fill="white" fill-opacity="0.5"/>
<path fill-rule="evenodd" clip-rule="evenodd" d="M995.917 78.9007L1014.76 68.0246L1014.76 46.2766L995.911 35.4047L977.064 46.2808L977.068 68.0309L995.917 78.9007Z" fill="white" fill-opacity="0.5"/>
<path fill-rule="evenodd" clip-rule="evenodd" d="M953.468 78.9007L972.313 68.0246L972.309 46.2766L953.462 35.4047L934.615 46.2808L934.619 68.0309L953.468 78.9007Z" fill="white" fill-opacity="0.5"/>
<path fill-rule="evenodd" clip-rule="evenodd" d="M443.569 78.9007L462.414 68.0246L462.41 46.2766L443.563 35.4047L424.716 46.2808L424.72 68.0309L443.569 78.9007Z" fill="white" fill-opacity="0.5"/>
<path fill-rule="evenodd" clip-rule="evenodd" d="M315.703 78.9007L296.858 68.0246L296.862 46.2766L315.709 35.4047L334.556 46.2808L334.552 68.0309L315.703 78.9007Z" fill="white" fill-opacity="0.5"/>
<path fill-rule="evenodd" clip-rule="evenodd" d="M358.152 78.9007L339.307 68.0246L339.311 46.2766L358.158 35.4047L377.005 46.2808L377.001 68.0309L358.152 78.9007Z" fill="white" fill-opacity="0.5"/>
<path fill-rule="evenodd" clip-rule="evenodd" d="M-3.15495 114.811L-22 103.935L-21.9958 82.1871L-3.14873 71.3151L15.6984 82.1912L15.6943 103.941L-3.15495 114.811Z" fill="white" fill-opacity="0.5"/>
<path fill-rule="evenodd" clip-rule="evenodd" d="M17.4867 77.1116L-1.35831 66.2355L-1.35415 44.4874L17.493 33.6155L36.3401 44.4916L36.336 66.2417L17.4867 77.1116Z" fill="white" fill-opacity="0.5"/>
<path fill-rule="evenodd" clip-rule="evenodd" d="M40.3735 41.7958L21.5285 30.9197L21.5326 9.17165L40.3797 -1.7003L59.2268 9.17581L59.2227 30.926L40.3735 41.7958Z" fill="white" fill-opacity="0.5"/>
<path fill-rule="evenodd" clip-rule="evenodd" d="M-2.61625 39.4961L-21.4613 28.62L-21.4571 6.87195L-2.61002 -4L16.2371 6.87611L16.233 28.6263L-2.61625 39.4961Z" fill="white" fill-opacity="0.5"/>
</g>
<g filter="url(#filter1_i)">
<path fill-rule="evenodd" clip-rule="evenodd" d="M17.8826 151.168L-0.962402 140.292L-0.958246 118.544L17.8889 107.672L36.736 118.548L36.7318 140.298L17.8826 151.168Z" fill="#EFEFEF"/>
<path fill-rule="evenodd" clip-rule="evenodd" d="M39.3625 114.031L20.5175 103.155L20.5217 81.4071L39.3688 70.5352L58.2159 81.4113L58.2118 103.161L39.3625 114.031Z" fill="#EFEFEF"/>
<path fill-rule="evenodd" clip-rule="evenodd" d="M39.3625 187.487L20.5175 176.611L20.5217 154.863L39.3688 143.991L58.2159 154.867L58.2118 176.617L39.3625 187.487Z" fill="#EFEFEF"/>
<path fill-rule="evenodd" clip-rule="evenodd" d="M81.5562 187.487L62.7111 176.611L62.7153 154.863L81.5624 143.991L100.41 154.867L100.405 176.617L81.5562 187.487Z" fill="#EFEFEF"/>
<path fill-rule="evenodd" clip-rule="evenodd" d="M166.199 187.487L147.354 176.611L147.358 154.863L166.205 143.991L185.052 154.867L185.048 176.617L166.199 187.487Z" fill="#EFEFEF"/>
<path fill-rule="evenodd" clip-rule="evenodd" d="M208.903 114.031L190.058 103.155L190.062 81.4071L208.909 70.5352L227.757 81.4113L227.752 103.161L208.903 114.031Z" fill="#EFEFEF"/>
<path fill-rule="evenodd" clip-rule="evenodd" d="M357.73 150.759L338.885 139.883L338.889 118.135L357.736 107.263L376.583 118.139L376.579 139.889L357.73 150.759Z" fill="#EFEFEF"/>
<path fill-rule="evenodd" clip-rule="evenodd" d="M187.423 151.168L168.578 140.292L168.582 118.544L187.43 107.672L206.277 118.548L206.272 140.298L187.423 151.168Z" fill="#EFEFEF"/>
<path fill-rule="evenodd" clip-rule="evenodd" d="M293.546 187.487L274.701 176.611L274.705 154.863L293.552 143.991L312.399 154.867L312.395 176.617L293.546 187.487Z" fill="#EFEFEF"/>
<path fill-rule="evenodd" clip-rule="evenodd" d="M60.3317 151.168L41.4866 140.292L41.4908 118.544L60.3379 107.672L79.185 118.548L79.1809 140.298L60.3317 151.168Z" fill="#EFEFEF"/>
<path fill-rule="evenodd" clip-rule="evenodd" d="M102.781 151.168L83.9356 140.292L83.9398 118.544L102.787 107.672L121.634 118.548L121.63 140.298L102.781 151.168Z" fill="#EFEFEF"/>
<path fill-rule="evenodd" clip-rule="evenodd" d="M145.23 151.168L126.385 140.292L126.389 118.544L145.236 107.672L164.083 118.548L164.079 140.298L145.23 151.168Z" fill="#EFEFEF"/>
<path fill-rule="evenodd" clip-rule="evenodd" d="M230.128 151.168L211.283 140.292L211.287 118.544L230.134 107.672L248.981 118.548L248.977 140.298L230.128 151.168Z" fill="#EFEFEF"/>
<path fill-rule="evenodd" clip-rule="evenodd" d="M867.637 151.168L886.483 140.292L886.478 118.544L867.631 107.672L848.784 118.548L848.788 140.298L867.637 151.168Z" fill="#EFEFEF"/>
<path fill-rule="evenodd" clip-rule="evenodd" d="M1081.16 151.168L1100 140.292L1100 118.544L1081.15 107.672L1062.31 118.548L1062.31 140.298L1081.16 151.168Z" fill="#EFEFEF"/>
<path fill-rule="evenodd" clip-rule="evenodd" d="M846.158 114.031L865.003 103.155L864.998 81.4071L846.151 70.5352L827.304 81.4113L827.308 103.161L846.158 114.031Z" fill="#EFEFEF"/>
<path fill-rule="evenodd" clip-rule="evenodd" d="M1017.23 187.487L1036.08 176.611L1036.07 154.863L1017.22 143.991L998.377 154.867L998.381 176.617L1017.23 187.487Z" fill="#EFEFEF"/>
<path fill-rule="evenodd" clip-rule="evenodd" d="M1017.23 114.031L1036.08 103.155L1036.07 81.4071L1017.22 70.5352L998.377 81.4113L998.381 103.161L1017.23 114.031Z" fill="#EFEFEF"/>
<path fill-rule="evenodd" clip-rule="evenodd" d="M1038.71 151.168L1057.56 140.292L1057.55 118.544L1038.7 107.672L1019.86 118.548L1019.86 140.298L1038.71 151.168Z" fill="#EFEFEF"/>
<path fill-rule="evenodd" clip-rule="evenodd" d="M846.158 187.487L865.003 176.611L864.998 154.863L846.151 143.991L827.304 154.867L827.308 176.617L846.158 187.487Z" fill="#EFEFEF"/>
<path fill-rule="evenodd" clip-rule="evenodd" d="M974.526 114.031L993.371 103.155L993.367 81.4071L974.52 70.5352L955.673 81.4113L955.677 103.161L974.526 114.031Z" fill="#EFEFEF"/>
<path fill-rule="evenodd" clip-rule="evenodd" d="M803.708 114.031L822.553 103.155L822.549 81.4071L803.702 70.5352L784.855 81.4113L784.859 103.161L803.708 114.031Z" fill="#EFEFEF"/>
<path fill-rule="evenodd" clip-rule="evenodd" d="M995.495 151.168L1014.34 140.292L1014.34 118.544L995.489 107.672L976.642 118.548L976.646 140.298L995.495 151.168Z" fill="#EFEFEF"/>
<path fill-rule="evenodd" clip-rule="evenodd" d="M974.526 187.487L993.371 176.611L993.367 154.863L974.52 143.991L955.673 154.867L955.677 176.617L974.526 187.487Z" fill="#EFEFEF"/>
<path fill-rule="evenodd" clip-rule="evenodd" d="M719.321 187.487L738.166 176.611L738.162 154.863L719.315 143.991L700.468 154.867L700.472 176.617L719.321 187.487Z" fill="#EFEFEF"/>
<path fill-rule="evenodd" clip-rule="evenodd" d="M676.617 114.031L695.462 103.155L695.458 81.4071L676.611 70.5352L657.763 81.4113L657.768 103.161L676.617 114.031Z" fill="#EFEFEF"/>
<path fill-rule="evenodd" clip-rule="evenodd" d="M698.097 151.168L716.942 140.292L716.938 118.544L698.091 107.672L679.243 118.548L679.248 140.298L698.097 151.168Z" fill="#EFEFEF"/>
<path fill-rule="evenodd" clip-rule="evenodd" d="M825.188 151.168L844.033 140.292L844.029 118.544L825.182 107.672L806.335 118.548L806.339 140.298L825.188 151.168Z" fill="#EFEFEF"/>
<path fill-rule="evenodd" clip-rule="evenodd" d="M782.739 151.168L801.584 140.292L801.58 118.544L782.733 107.672L763.886 118.548L763.89 140.298L782.739 151.168Z" fill="#EFEFEF"/>
<path fill-rule="evenodd" clip-rule="evenodd" d="M740.29 151.168L759.135 140.292L759.131 118.544L740.284 107.672L721.437 118.548L721.441 140.298L740.29 151.168Z" fill="#EFEFEF"/>
<path fill-rule="evenodd" clip-rule="evenodd" d="M655.392 151.168L674.237 140.292L674.233 118.544L655.386 107.672L636.539 118.548L636.543 140.298L655.392 151.168Z" fill="#EFEFEF"/>
<path fill-rule="evenodd" clip-rule="evenodd" d="M612.688 151.168L631.533 140.292L631.529 118.544L612.682 107.672L593.835 118.548L593.839 140.298L612.688 151.168Z" fill="#EFEFEF"/>
<path fill-rule="evenodd" clip-rule="evenodd" d="M591.208 114.031L610.053 103.155L610.049 81.4071L591.202 70.5352L572.355 81.4113L572.359 103.161L591.208 114.031Z" fill="#EFEFEF"/>
<path fill-rule="evenodd" clip-rule="evenodd" d="M591.208 187.487L610.053 176.611L610.049 154.863L591.202 143.991L572.355 154.867L572.359 176.617L591.208 187.487Z" fill="#EFEFEF"/>
<path fill-rule="evenodd" clip-rule="evenodd" d="M761.515 187.487L780.36 176.611L780.356 154.863L761.509 143.991L742.661 154.867L742.666 176.617L761.515 187.487Z" fill="#EFEFEF"/>
<path fill-rule="evenodd" clip-rule="evenodd" d="M421.54 187.487L440.385 176.611L440.381 154.863L421.533 143.991L402.686 154.867L402.69 176.617L421.54 187.487Z" fill="#EFEFEF"/>
<path fill-rule="evenodd" clip-rule="evenodd" d="M421.667 114.031L440.512 103.155L440.508 81.4071L421.661 70.5352L402.814 81.4113L402.818 103.161L421.667 114.031Z" fill="#EFEFEF"/>
<path fill-rule="evenodd" clip-rule="evenodd" d="M443.147 151.168L461.992 140.292L461.988 118.544L443.141 107.672L424.294 118.548L424.298 140.298L443.147 151.168Z" fill="#EFEFEF"/>
<path fill-rule="evenodd" clip-rule="evenodd" d="M570.239 151.168L589.084 140.292L589.08 118.544L570.233 107.672L551.385 118.548L551.39 140.298L570.239 151.168Z" fill="#EFEFEF"/>
<path fill-rule="evenodd" clip-rule="evenodd" d="M1124.62 107.237L1105.78 118.114L1105.78 139.862L1124.63 150.734L1143.48 139.857L1143.47 118.107L1124.62 107.237Z" fill="#EFEFEF"/>
<path fill-rule="evenodd" clip-rule="evenodd" d="M1146.1 144.374L1127.26 155.25L1127.26 176.998L1146.11 187.87L1164.96 176.994L1164.95 155.244L1146.1 144.374Z" fill="#EFEFEF"/>
<path fill-rule="evenodd" clip-rule="evenodd" d="M1146.1 70.9183L1127.26 81.7944L1127.26 103.542L1146.11 114.414L1164.96 103.538L1164.95 81.7882L1146.1 70.9183Z" fill="#EFEFEF"/>
<path fill-rule="evenodd" clip-rule="evenodd" d="M1188.55 144.374L1169.71 155.25L1169.71 176.998L1188.56 187.87L1207.4 176.994L1207.4 155.244L1188.55 144.374Z" fill="#EFEFEF"/>
<path fill-rule="evenodd" clip-rule="evenodd" d="M1272.94 70.9183L1254.09 81.7944L1254.1 103.542L1272.94 114.414L1291.79 103.538L1291.79 81.7882L1272.94 70.9183Z" fill="#EFEFEF"/>
<path fill-rule="evenodd" clip-rule="evenodd" d="M1315.64 144.374L1296.8 155.25L1296.8 176.998L1315.65 187.87L1334.5 176.994L1334.49 155.244L1315.64 144.374Z" fill="#EFEFEF"/>
<path fill-rule="evenodd" clip-rule="evenodd" d="M1294.16 107.237L1275.32 118.114L1275.32 139.862L1294.17 150.734L1313.02 139.857L1313.01 118.107L1294.16 107.237Z" fill="#EFEFEF"/>
<path fill-rule="evenodd" clip-rule="evenodd" d="M1167.07 107.237L1148.23 118.114L1148.23 139.862L1167.08 150.734L1185.92 139.857L1185.92 118.107L1167.07 107.237Z" fill="#EFEFEF"/>
<path fill-rule="evenodd" clip-rule="evenodd" d="M1209.52 107.237L1190.67 118.114L1190.68 139.862L1209.53 150.734L1228.37 139.857L1228.37 118.107L1209.52 107.237Z" fill="#EFEFEF"/>
<path fill-rule="evenodd" clip-rule="evenodd" d="M1251.97 107.237L1233.12 118.114L1233.13 139.862L1251.98 150.734L1270.82 139.857L1270.82 118.107L1251.97 107.237Z" fill="#EFEFEF"/>
<path fill-rule="evenodd" clip-rule="evenodd" d="M1336.87 107.237L1318.02 118.114L1318.03 139.862L1336.87 150.734L1355.72 139.857L1355.72 118.107L1336.87 107.237Z" fill="#EFEFEF"/>
<path fill-rule="evenodd" clip-rule="evenodd" d="M1379.57 107.237L1360.73 118.114L1360.73 139.862L1379.58 150.734L1398.42 139.857L1398.42 118.107L1379.57 107.237Z" fill="#EFEFEF"/>
<path fill-rule="evenodd" clip-rule="evenodd" d="M1401.05 144.374L1382.21 155.25L1382.21 176.998L1401.06 187.87L1419.9 176.994L1419.9 155.244L1401.05 144.374Z" fill="#EFEFEF"/>
<path fill-rule="evenodd" clip-rule="evenodd" d="M1401.05 70.9183L1382.21 81.7944L1382.21 103.542L1401.06 114.414L1419.9 103.538L1419.9 81.7882L1401.05 70.9183Z" fill="#EFEFEF"/>
<path fill-rule="evenodd" clip-rule="evenodd" d="M1230.74 70.9183L1211.9 81.7944L1211.9 103.542L1230.75 114.414L1249.6 103.538L1249.59 81.7882L1230.74 70.9183Z" fill="#EFEFEF"/>
<path fill-rule="evenodd" clip-rule="evenodd" d="M1422.02 107.237L1403.18 118.114L1403.18 139.862L1422.03 150.734L1440.87 139.857L1440.87 118.107L1422.02 107.237Z" fill="#EFEFEF"/>
<path fill-rule="evenodd" clip-rule="evenodd" d="M527.79 151.168L546.635 140.292L546.631 118.544L527.784 107.672L508.936 118.548L508.941 140.298L527.79 151.168Z" fill="#EFEFEF"/>
<path fill-rule="evenodd" clip-rule="evenodd" d="M485.341 151.168L504.186 140.292L504.182 118.544L485.335 107.672L466.488 118.548L466.492 140.298L485.341 151.168Z" fill="#EFEFEF"/>
<path fill-rule="evenodd" clip-rule="evenodd" d="M952.791 151.168L971.636 140.292L971.632 118.544L952.785 107.672L933.938 118.548L933.942 140.298L952.791 151.168Z" fill="#EFEFEF"/>
<path fill-rule="evenodd" clip-rule="evenodd" d="M910.342 151.168L929.187 140.292L929.183 118.544L910.336 107.672L891.488 118.548L891.493 140.298L910.342 151.168Z" fill="#EFEFEF"/>
<path fill-rule="evenodd" clip-rule="evenodd" d="M400.443 151.168L419.288 140.292L419.284 118.544L400.437 107.672L381.59 118.548L381.594 140.298L400.443 151.168Z" fill="#EFEFEF"/>
<path fill-rule="evenodd" clip-rule="evenodd" d="M272.577 151.168L253.732 140.292L253.736 118.544L272.583 107.672L291.43 118.548L291.426 140.298L272.577 151.168Z" fill="#EFEFEF"/>
<path fill-rule="evenodd" clip-rule="evenodd" d="M315.026 151.168L296.181 140.292L296.185 118.544L315.032 107.672L333.879 118.548L333.875 140.298L315.026 151.168Z" fill="#EFEFEF"/>
</g>
<defs>
<filter id="filter0_i" x="-22" y="-4" width="1506" height="123.603" filterUnits="userSpaceOnUse" color-interpolation-filters="sRGB">
<feFlood flood-opacity="0" result="BackgroundImageFix"/>
<feBlend mode="normal" in="SourceGraphic" in2="BackgroundImageFix" result="shape"/>
<feColorMatrix in="SourceAlpha" type="matrix" values="0 0 0 0 0 0 0 0 0 0 0 0 0 0 0 0 0 0 127 0" result="hardAlpha"/>
<feOffset dy="4"/>
<feGaussianBlur stdDeviation="2"/>
<feComposite in2="hardAlpha" operator="arithmetic" k2="-1" k3="1"/>
<feColorMatrix type="matrix" values="0 0 0 0 0 0 0 0 0 0 0 0 0 0 0 0 0 0 0.25 0"/>
<feBlend mode="normal" in2="shape" result="effect1_innerShadow"/>
</filter>
<filter id="filter1_i" x="-0.962402" y="70.5352" width="1441.84" height="121.335" filterUnits="userSpaceOnUse" color-interpolation-filters="sRGB">
<feFlood flood-opacity="0" result="BackgroundImageFix"/>
<feBlend mode="normal" in="SourceGraphic" in2="BackgroundImageFix" result="shape"/>
<feColorMatrix in="SourceAlpha" type="matrix" values="0 0 0 0 0 0 0 0 0 0 0 0 0 0 0 0 0 0 127 0" result="hardAlpha"/>
<feOffset dy="4"/>
<feGaussianBlur stdDeviation="2"/>
<feComposite in2="hardAlpha" operator="arithmetic" k2="-1" k3="1"/>
<feColorMatrix type="matrix" values="0 0 0 0 0 0 0 0 0 0 0 0 0 0 0 0 0 0 0.25 0"/>
<feBlend mode="normal" in2="shape" result="effect1_innerShadow"/>
</filter>
</defs>
</svg>
