<svg viewBox="0 0 178 203" fill="none" xmlns="http://www.w3.org/2000/svg">
<g filter="url(#filter0_d)">
<path fill-rule="evenodd" clip-rule="evenodd" d="M89.1751 187.774L10.9185 142.588L10.9357 52.2322L89.201 7.06299L167.466 52.2495L167.449 142.614L89.1751 187.774Z" fill="#F8BBD0"/>
<path d="M87.675 190.372L89.1746 191.238L90.6744 190.373L168.948 145.212L170.449 144.347L170.449 142.614L170.466 52.25L170.467 50.5176L168.966 49.6514L90.701 4.46491L89.2013 3.59905L87.7015 4.46466L9.43615 49.6339L7.93605 50.4996L7.93572 52.2316L7.91846 142.587L7.91813 144.32L9.41833 145.186L87.675 190.372Z" stroke="#FAED5B" stroke-width="6"/>
</g>
<g filter="url(#filter1_d)">
<path fill-rule="evenodd" clip-rule="evenodd" d="M79.1278 39L80.7699 39.3813C89.9219 41.5065 98.5067 46.6642 103.309 54.7188C107.851 62.3363 108.824 72.2321 104.156 83.9296C110.124 85.0766 114.068 86.6225 118.732 90.5785L116.055 93.7348C112.124 90.4005 108.924 89.067 103.464 88.0108C103.557 94.0666 101.547 99.3553 97.9549 103.605C93.863 108.446 87.8159 111.831 80.754 113.596L79.136 114L78.3971 112.505C76.7973 109.268 75.9261 104.498 76.0549 99.626C76.1609 95.6142 76.9501 91.3306 78.7381 87.5989C73.4961 85.7676 68.1109 82.4961 61.8202 77.5774L60 76.1542L61.6146 74.5013C65.293 70.7356 69.7051 67.1426 74.8723 65.6376C73.233 58.584 74.0032 50.1226 78.4224 40.5311L79.1278 39ZM76.0936 69.5927C72.5949 70.5953 69.3244 72.8728 66.2462 75.7543C72.4738 80.4186 77.5158 83.1066 82.3162 84.3702C85.141 85.1138 87.9398 85.3791 90.9205 85.2216C84.7059 82.3852 79.0023 77.0585 76.0936 69.5927ZM99.9016 83.3938C104.65 72.2198 103.643 63.3604 99.7543 56.8382C95.9397 50.4402 89.1661 45.9779 81.4872 43.835C77.6377 52.9551 77.5257 60.5709 79.4089 66.5519C82.6532 76.8563 91.9746 82.7897 99.9016 83.3938ZM99.327 88.1239C93.4061 89.4986 88.155 89.8641 82.7988 88.7364C81.1112 91.9192 80.2947 95.8522 80.1921 99.7354C80.0973 103.319 80.6151 106.661 81.4633 109.111C87.1038 107.422 91.694 104.601 94.7942 100.933C97.7228 97.4684 99.3935 93.1697 99.327 88.1239Z" fill="white"/>
</g>
<path d="M74.7959 135H71.7334V124.992C73.0824 124.928 74.028 124.896 74.5703 124.896C75.6094 124.896 76.4206 125.12 77.0039 125.566C77.5918 126.008 77.8857 126.642 77.8857 127.467C77.8857 128.26 77.4665 128.886 76.6279 129.347C77.8721 129.78 78.4941 130.673 78.4941 132.026C78.4941 132.938 78.1501 133.662 77.4619 134.2C76.7738 134.733 75.8851 135 74.7959 135ZM73.5107 126.414V128.813C73.7842 128.832 74.0713 128.841 74.3721 128.841C75.5296 128.841 76.1084 128.406 76.1084 127.535C76.1084 126.765 75.582 126.38 74.5293 126.38C74.2513 126.38 73.9118 126.391 73.5107 126.414ZM73.5107 130.201V133.51C73.8708 133.542 74.1624 133.558 74.3857 133.558C75.1787 133.558 75.7529 133.423 76.1084 133.154C76.4684 132.885 76.6484 132.439 76.6484 131.814C76.6484 131.245 76.4821 130.83 76.1494 130.57C75.8167 130.311 75.2357 130.181 74.4062 130.181C74.2331 130.181 73.9346 130.188 73.5107 130.201ZM80.2646 124.951L81.9736 124.541V132.771C81.9736 133.674 82.2425 134.212 82.7803 134.385C82.516 134.886 82.0648 135.137 81.4268 135.137C80.652 135.137 80.2646 134.599 80.2646 133.523V124.951ZM83.6211 131.322C83.6211 130.206 83.9424 129.297 84.585 128.595C85.2321 127.893 86.0843 127.542 87.1416 127.542C88.2536 127.542 89.1172 127.879 89.7324 128.554C90.3477 129.228 90.6553 130.151 90.6553 131.322C90.6553 132.489 90.3408 133.416 89.7119 134.104C89.0876 134.793 88.2308 135.137 87.1416 135.137C86.0296 135.137 85.1637 134.79 84.5439 134.098C83.9287 133.4 83.6211 132.475 83.6211 131.322ZM85.3984 131.322C85.3984 132.936 85.9795 133.742 87.1416 133.742C87.6748 133.742 88.0964 133.533 88.4062 133.113C88.7207 132.694 88.8779 132.097 88.8779 131.322C88.8779 129.732 88.2992 128.937 87.1416 128.937C86.6084 128.937 86.1846 129.146 85.8701 129.565C85.5557 129.985 85.3984 130.57 85.3984 131.322ZM91.5508 131.322C91.5508 130.206 91.8721 129.297 92.5146 128.595C93.1618 127.893 94.014 127.542 95.0713 127.542C96.1833 127.542 97.0469 127.879 97.6621 128.554C98.2773 129.228 98.585 130.151 98.585 131.322C98.585 132.489 98.2705 133.416 97.6416 134.104C97.0173 134.793 96.1605 135.137 95.0713 135.137C93.9593 135.137 93.0934 134.79 92.4736 134.098C91.8584 133.4 91.5508 132.475 91.5508 131.322ZM93.3281 131.322C93.3281 132.936 93.9092 133.742 95.0713 133.742C95.6045 133.742 96.026 133.533 96.3359 133.113C96.6504 132.694 96.8076 132.097 96.8076 131.322C96.8076 129.732 96.2288 128.937 95.0713 128.937C94.5381 128.937 94.1143 129.146 93.7998 129.565C93.4854 129.985 93.3281 130.57 93.3281 131.322ZM108.436 135V130.413C108.436 129.451 108.005 128.971 107.144 128.971C106.888 128.971 106.642 129.046 106.405 129.196C106.168 129.347 106.002 129.52 105.906 129.716V135H104.197V130.146C104.197 129.786 104.086 129.502 103.862 129.292C103.639 129.078 103.325 128.971 102.919 128.971C102.705 128.971 102.47 129.05 102.215 129.21C101.964 129.369 101.782 129.545 101.668 129.736V135H99.959V127.679H101.135L101.483 128.321C101.957 127.802 102.57 127.542 103.322 127.542C104.293 127.542 105.024 127.806 105.517 128.335C105.731 128.093 106.029 127.902 106.412 127.761C106.795 127.615 107.178 127.542 107.561 127.542C108.376 127.542 109.01 127.777 109.461 128.246C109.917 128.711 110.145 129.351 110.145 130.167V135H108.436ZM71.125 151.137H70.3936L68.2061 144.82L66.0801 151.137H65.3486L62.0605 140.985H63.9131L65.793 147.028L67.8232 140.985H68.6025L70.6396 147.028L72.5127 140.985H74.3652L71.125 151.137ZM81.5977 147.862H76.3682C76.4001 148.446 76.6006 148.899 76.9697 149.223C77.3389 149.546 77.8356 149.708 78.46 149.708C79.2393 149.708 79.8317 149.505 80.2373 149.1L80.9004 150.405C80.2988 150.893 79.401 151.137 78.207 151.137C77.0905 151.137 76.2064 150.811 75.5547 150.159C74.9076 149.503 74.584 148.589 74.584 147.418C74.584 146.265 74.9395 145.331 75.6504 144.615C76.3659 143.9 77.2227 143.542 78.2207 143.542C79.2826 143.542 80.1348 143.859 80.7773 144.492C81.4199 145.126 81.7412 145.932 81.7412 146.912C81.7412 147.122 81.6934 147.438 81.5977 147.862ZM76.4297 146.577H80.0254C79.9069 145.506 79.3145 144.971 78.248 144.971C77.2728 144.971 76.6667 145.506 76.4297 146.577ZM87.8252 151V150.556C87.6839 150.711 87.4447 150.847 87.1074 150.966C86.7702 151.08 86.4215 151.137 86.0615 151.137C85.0407 151.137 84.2363 150.813 83.6484 150.166C83.0651 149.519 82.7734 148.617 82.7734 147.459C82.7734 146.301 83.1084 145.36 83.7783 144.636C84.4528 143.907 85.2959 143.542 86.3076 143.542C86.8636 143.542 87.3695 143.656 87.8252 143.884V140.951L89.5342 140.541V151H87.8252ZM87.8252 145.429C87.4606 145.137 87.0801 144.991 86.6836 144.991C86 144.991 85.4736 145.201 85.1045 145.62C84.7354 146.035 84.5508 146.632 84.5508 147.411C84.5508 148.933 85.2845 149.694 86.752 149.694C86.916 149.694 87.1165 149.646 87.3535 149.551C87.5951 149.451 87.7523 149.35 87.8252 149.25V145.429ZM95.96 151V150.556C95.8187 150.711 95.5794 150.847 95.2422 150.966C94.9049 151.08 94.5563 151.137 94.1963 151.137C93.1755 151.137 92.3711 150.813 91.7832 150.166C91.1999 149.519 90.9082 148.617 90.9082 147.459C90.9082 146.301 91.2432 145.36 91.9131 144.636C92.5876 143.907 93.4307 143.542 94.4424 143.542C94.9984 143.542 95.5042 143.656 95.96 143.884V140.951L97.6689 140.541V151H95.96ZM95.96 145.429C95.5954 145.137 95.2148 144.991 94.8184 144.991C94.1348 144.991 93.6084 145.201 93.2393 145.62C92.8701 146.035 92.6855 146.632 92.6855 147.411C92.6855 148.933 93.4193 149.694 94.8867 149.694C95.0508 149.694 95.2513 149.646 95.4883 149.551C95.7298 149.451 95.887 149.35 95.96 149.25V145.429ZM100.725 140.842C100.998 140.842 101.23 140.94 101.422 141.136C101.618 141.327 101.716 141.56 101.716 141.833C101.716 142.106 101.618 142.341 101.422 142.537C101.23 142.729 100.998 142.824 100.725 142.824C100.451 142.824 100.216 142.729 100.021 142.537C99.8291 142.341 99.7334 142.106 99.7334 141.833C99.7334 141.56 99.8291 141.327 100.021 141.136C100.216 140.94 100.451 140.842 100.725 140.842ZM99.8428 151V145.08H98.9062V143.679H101.572V151H99.8428ZM108.278 151V146.769C108.278 146.144 108.158 145.688 107.916 145.401C107.679 145.114 107.289 144.971 106.747 144.971C106.496 144.971 106.228 145.041 105.94 145.183C105.658 145.324 105.437 145.499 105.277 145.709V151H103.568V143.679H104.799L105.113 144.362C105.578 143.815 106.264 143.542 107.171 143.542C108.041 143.542 108.727 143.804 109.229 144.328C109.734 144.848 109.987 145.575 109.987 146.509V151H108.278ZM111.293 152.88L112.373 151.547C112.97 152.094 113.635 152.367 114.369 152.367C114.861 152.367 115.267 152.294 115.586 152.148C115.905 152.003 116.064 151.802 116.064 151.547C116.064 151.114 115.711 150.897 115.005 150.897C114.813 150.897 114.529 150.92 114.15 150.966C113.772 151.011 113.487 151.034 113.296 151.034C112.12 151.034 111.532 150.613 111.532 149.77C111.532 149.528 111.63 149.291 111.826 149.059C112.022 148.826 112.25 148.655 112.51 148.546C111.676 148.004 111.259 147.236 111.259 146.242C111.259 145.458 111.546 144.811 112.12 144.301C112.694 143.786 113.401 143.528 114.239 143.528C114.896 143.528 115.445 143.651 115.887 143.897L116.557 143.118L117.739 144.191L116.926 144.786C117.208 145.215 117.35 145.72 117.35 146.304C117.35 147.138 117.094 147.805 116.584 148.307C116.078 148.803 115.438 149.052 114.663 149.052C114.54 149.052 114.376 149.04 114.171 149.018L113.891 148.977C113.859 148.977 113.736 149.027 113.521 149.127C113.312 149.223 113.207 149.323 113.207 149.428C113.207 149.61 113.364 149.701 113.679 149.701C113.82 149.701 114.057 149.667 114.39 149.599C114.722 149.53 115.007 149.496 115.244 149.496C116.908 149.496 117.739 150.164 117.739 151.499C117.739 152.237 117.407 152.816 116.741 153.235C116.076 153.659 115.274 153.871 114.335 153.871C113.214 153.871 112.2 153.541 111.293 152.88ZM113.002 146.249C113.002 146.682 113.12 147.031 113.357 147.295C113.599 147.555 113.923 147.685 114.328 147.685C114.734 147.685 115.046 147.557 115.265 147.302C115.483 147.047 115.593 146.696 115.593 146.249C115.593 145.88 115.474 145.568 115.237 145.312C115.005 145.057 114.702 144.93 114.328 144.93C113.936 144.93 113.617 145.053 113.371 145.299C113.125 145.545 113.002 145.862 113.002 146.249ZM118.416 150.528L119.024 149.168C119.535 149.574 120.111 149.776 120.754 149.776C121.419 149.776 121.752 149.539 121.752 149.065C121.752 148.787 121.652 148.56 121.451 148.382C121.251 148.204 120.861 147.994 120.282 147.753C119.02 147.229 118.389 146.495 118.389 145.552C118.389 144.918 118.63 144.426 119.113 144.075C119.596 143.72 120.214 143.542 120.966 143.542C121.727 143.542 122.442 143.713 123.112 144.055L122.62 145.381C122.246 145.062 121.727 144.902 121.062 144.902C120.465 144.902 120.166 145.139 120.166 145.613C120.166 145.8 120.264 145.969 120.46 146.119C120.656 146.27 121.075 146.472 121.718 146.728C122.36 146.978 122.823 147.284 123.105 147.644C123.388 148.004 123.529 148.439 123.529 148.949C123.529 149.628 123.276 150.164 122.771 150.556C122.269 150.943 121.586 151.137 120.72 151.137C120.232 151.137 119.84 151.096 119.544 151.014C119.252 150.936 118.876 150.774 118.416 150.528Z" fill="white"/>
<defs>
<filter id="filter0_d" x="0.917969" y="0.135254" width="176.549" height="202.567" filterUnits="userSpaceOnUse" color-interpolation-filters="sRGB">
<feFlood flood-opacity="0" result="BackgroundImageFix"/>
<feColorMatrix in="SourceAlpha" type="matrix" values="0 0 0 0 0 0 0 0 0 0 0 0 0 0 0 0 0 0 127 0"/>
<feOffset dy="4"/>
<feGaussianBlur stdDeviation="2"/>
<feColorMatrix type="matrix" values="0 0 0 0 0 0 0 0 0 0 0 0 0 0 0 0 0 0 0.25 0"/>
<feBlend mode="normal" in2="BackgroundImageFix" result="effect1_dropShadow"/>
<feBlend mode="normal" in="SourceGraphic" in2="effect1_dropShadow" result="shape"/>
</filter>
<filter id="filter1_d" x="56" y="39" width="66.7321" height="83" filterUnits="userSpaceOnUse" color-interpolation-filters="sRGB">
<feFlood flood-opacity="0" result="BackgroundImageFix"/>
<feColorMatrix in="SourceAlpha" type="matrix" values="0 0 0 0 0 0 0 0 0 0 0 0 0 0 0 0 0 0 127 0"/>
<feOffset dy="4"/>
<feGaussianBlur stdDeviation="2"/>
<feColorMatrix type="matrix" values="0 0 0 0 0 0 0 0 0 0 0 0 0 0 0 0 0 0 0.25 0"/>
<feBlend mode="normal" in2="BackgroundImageFix" result="effect1_dropShadow"/>
<feBlend mode="normal" in="SourceGraphic" in2="effect1_dropShadow" result="shape"/>
</filter>
</defs>
</svg>
