<svg  viewBox="0 0 178 203" fill="none" xmlns="http://www.w3.org/2000/svg">
<g filter="url(#filter0_d)">
<g filter="url(#filter1_d)">
<path fill-rule="evenodd" clip-rule="evenodd" d="M88.7157 187.774L10.459 142.588L10.4762 52.2322L88.7416 7.06299L167.007 52.2495L166.99 142.614L88.7157 187.774Z" fill="white"/>
<path d="M87.2156 190.372L88.7151 191.238L90.2149 190.373L168.489 145.212L169.989 144.347L169.99 142.614L170.007 52.25L170.007 50.5176L168.507 49.6514L90.2416 4.46491L88.7419 3.59905L87.242 4.46466L8.97668 49.6339L7.47658 50.4996L7.47624 52.2316L7.45898 142.587L7.45865 144.32L8.95886 145.186L87.2156 190.372Z" stroke="#FAED5B" stroke-width="6"/>
</g>
<g filter="url(#filter2_d)">
<circle cx="88.6065" cy="84.4503" r="32.4972" fill="#0F4C81"/>
<path d="M74.3806 74.6518C74.3806 71.9325 76.5851 69.728 79.3044 69.728C82.0238 69.728 84.2283 71.9325 84.2283 74.6518C84.2283 76.1737 83.5378 77.5343 82.453 78.4375L86.0689 85.6379C86.8437 85.2862 87.7042 85.0903 88.6105 85.0903C90.006 85.0903 91.293 85.5547 92.3254 86.3375L104.949 74.6092C104.641 74.0701 104.465 73.446 104.465 72.7807C104.465 70.7412 106.118 69.0879 108.158 69.0879C110.198 69.0879 111.851 70.7412 111.851 72.7807C111.851 74.8203 110.198 76.4736 108.158 76.4736C107.408 76.4736 106.71 76.2501 106.128 75.8661L93.5409 87.5605C94.3098 88.5877 94.7652 89.8632 94.7652 91.245C94.7652 92.3895 94.4529 93.461 93.9087 94.3789L102.594 100.191C102.956 99.9816 103.377 99.8617 103.825 99.8617C105.185 99.8617 106.287 100.964 106.287 102.324C106.287 103.683 105.185 104.786 103.825 104.786C102.465 104.786 101.363 103.683 101.363 102.324C101.363 102.045 101.409 101.778 101.494 101.529L92.827 95.7286C91.7255 96.7649 90.2421 97.3998 88.6105 97.3998C85.2113 97.3998 82.4557 94.6442 82.4557 91.245C82.4557 89.374 83.2906 87.6979 84.6082 86.5691L80.9539 79.2925C80.4383 79.4758 79.883 79.5756 79.3044 79.5756C78.3447 79.5756 77.4491 79.301 76.6919 78.8261L69.4431 86.2759C69.7648 86.8237 69.9492 87.4618 69.9492 88.143C69.9492 90.1826 68.2958 91.8359 66.2563 91.8359C64.2168 91.8359 62.5635 90.1826 62.5635 88.143C62.5635 86.1035 64.2168 84.4502 66.2563 84.4502C66.9899 84.4502 67.6734 84.664 68.2481 85.0328L75.4132 77.6691C74.766 76.8356 74.3806 75.7887 74.3806 74.6518Z" fill="white"/>
</g>
<path d="M51.0706 142.143H50.0538L43.1349 131.844V142.143H42.1099V130.108H43.1349L50.0621 140.416V130.108H51.0706V142.143Z" fill="#0F4C81"/>
<path d="M58.2078 142.309C57.4473 142.309 56.7584 142.121 56.1412 141.747C55.5295 141.372 55.0528 140.851 54.7111 140.184C54.3694 139.512 54.1986 138.76 54.1986 137.928V137.572C54.1986 136.712 54.3639 135.938 54.6946 135.249C55.0307 134.56 55.4964 134.02 56.0916 133.629C56.6868 133.232 57.3315 133.034 58.0259 133.034C59.1116 133.034 59.9713 133.406 60.605 134.15C61.2443 134.888 61.5639 135.9 61.5639 137.184V137.737H55.1823V137.928C55.1823 138.942 55.4716 139.788 56.0503 140.465C56.6344 141.138 57.3674 141.474 58.2491 141.474C58.7782 141.474 59.2438 141.377 59.6461 141.185C60.0539 140.992 60.4232 140.683 60.7538 140.259L61.3738 140.73C60.6464 141.782 59.591 142.309 58.2078 142.309ZM58.0259 133.877C57.2819 133.877 56.6537 134.15 56.1412 134.695C55.6342 135.241 55.3256 135.974 55.2154 136.894H60.5802V136.787C60.5527 135.927 60.3074 135.227 59.8445 134.687C59.3816 134.147 58.7754 133.877 58.0259 133.877Z" fill="#0F4C81"/>
<path d="M67.643 141.474C68.3319 141.474 68.9078 141.281 69.3707 140.895C69.8391 140.504 70.0926 140 70.1312 139.382H71.0818C71.0543 139.928 70.8834 140.427 70.5693 140.879C70.2552 141.325 69.8363 141.675 69.3128 141.928C68.7948 142.182 68.2382 142.309 67.643 142.309C66.4692 142.309 65.5378 141.901 64.849 141.085C64.1656 140.27 63.8239 139.173 63.8239 137.795V137.498C63.8239 136.616 63.9782 135.836 64.2869 135.158C64.5955 134.481 65.0363 133.957 65.6095 133.588C66.1881 133.219 66.8632 133.034 67.6347 133.034C68.6157 133.034 69.423 133.326 70.0568 133.91C70.696 134.494 71.0377 135.263 71.0818 136.216H70.1312C70.0871 135.517 69.8336 134.952 69.3707 134.522C68.9133 134.092 68.3346 133.877 67.6347 133.877C66.742 133.877 66.0476 134.199 65.5516 134.844C65.0611 135.489 64.8159 136.393 64.8159 137.556V137.845C64.8159 138.986 65.0611 139.876 65.5516 140.515C66.0476 141.154 66.7447 141.474 67.643 141.474Z" fill="#0F4C81"/>
<path d="M75.4497 130.909V133.199H77.3014V134.009H75.4497V139.969C75.4497 140.465 75.5379 140.835 75.7143 141.077C75.8961 141.32 76.1965 141.441 76.6153 141.441C76.7806 141.441 77.0479 141.413 77.4171 141.358L77.4585 142.168C77.1995 142.262 76.8468 142.309 76.4004 142.309C75.7225 142.309 75.2293 142.113 74.9207 141.722C74.6121 141.325 74.4578 140.744 74.4578 139.978V134.009H72.8128V133.199H74.4578V130.909H75.4497Z" fill="#0F4C81"/>
<path d="M85.8439 142.143C85.7447 141.862 85.6813 141.446 85.6537 140.895C85.3066 141.347 84.8629 141.697 84.3229 141.945C83.7883 142.188 83.2207 142.309 82.62 142.309C81.7603 142.309 81.0632 142.069 80.5286 141.59C79.9996 141.11 79.735 140.504 79.735 139.771C79.735 138.9 80.096 138.211 80.8179 137.704C81.5454 137.197 82.5566 136.944 83.8517 136.944H85.6455V135.927C85.6455 135.288 85.4471 134.786 85.0503 134.423C84.659 134.053 84.0859 133.869 83.3309 133.869C82.642 133.869 82.0717 134.045 81.6198 134.398C81.1679 134.751 80.9419 135.175 80.9419 135.671L79.95 135.663C79.95 134.952 80.2806 134.337 80.9419 133.819C81.6032 133.296 82.4161 133.034 83.3805 133.034C84.378 133.034 85.1633 133.285 85.7364 133.786C86.3151 134.282 86.6126 134.976 86.6292 135.869V140.102C86.6292 140.967 86.7201 141.614 86.902 142.044V142.143H85.8439ZM82.7357 141.433C83.397 141.433 83.9867 141.273 84.5047 140.953C85.0283 140.633 85.4085 140.206 85.6455 139.672V137.704H83.8765C82.89 137.715 82.1185 137.897 81.5619 138.25C81.0053 138.597 80.727 139.077 80.727 139.688C80.727 140.19 80.9116 140.606 81.2808 140.937C81.6556 141.267 82.1405 141.433 82.7357 141.433Z" fill="#0F4C81"/>
<path d="M98.9659 132.116H95.2791V142.143H92.7992V132.116H89.162V130.108H98.9659V132.116Z" fill="#0F4C81"/>
<path d="M105.557 135.439C105.232 135.395 104.946 135.373 104.698 135.373C103.794 135.373 103.202 135.679 102.921 136.291V142.143H100.532V133.199H102.788L102.854 134.266C103.334 133.444 103.998 133.034 104.847 133.034C105.111 133.034 105.359 133.07 105.591 133.141L105.557 135.439Z" fill="#0F4C81"/>
<path d="M112.496 142.143C112.386 141.928 112.306 141.661 112.257 141.342C111.678 141.986 110.926 142.309 110 142.309C109.124 142.309 108.396 142.055 107.818 141.548C107.244 141.041 106.958 140.402 106.958 139.63C106.958 138.683 107.308 137.955 108.008 137.448C108.713 136.941 109.73 136.685 111.058 136.679H112.157V136.167C112.157 135.754 112.05 135.423 111.835 135.175C111.626 134.927 111.292 134.803 110.835 134.803C110.432 134.803 110.116 134.899 109.884 135.092C109.658 135.285 109.545 135.55 109.545 135.886H107.156C107.156 135.368 107.316 134.888 107.636 134.447C107.955 134.007 108.407 133.662 108.991 133.414C109.575 133.161 110.231 133.034 110.959 133.034C112.061 133.034 112.934 133.312 113.579 133.869C114.229 134.42 114.555 135.197 114.555 136.2V140.077C114.56 140.926 114.679 141.568 114.91 142.003V142.143H112.496ZM110.521 140.482C110.873 140.482 111.198 140.405 111.496 140.25C111.794 140.091 112.014 139.878 112.157 139.614V138.076H111.265C110.069 138.076 109.432 138.49 109.355 139.316L109.347 139.457C109.347 139.754 109.451 140 109.661 140.193C109.87 140.385 110.157 140.482 110.521 140.482Z" fill="#0F4C81"/>
<path d="M120.956 140.383C121.397 140.383 121.755 140.261 122.031 140.019C122.306 139.776 122.45 139.454 122.461 139.052H124.701C124.695 139.658 124.53 140.215 124.205 140.722C123.88 141.223 123.433 141.614 122.866 141.895C122.303 142.171 121.681 142.309 120.997 142.309C119.719 142.309 118.71 141.904 117.972 141.094C117.233 140.278 116.864 139.154 116.864 137.721V137.564C116.864 136.186 117.231 135.087 117.964 134.266C118.697 133.444 119.702 133.034 120.981 133.034C122.1 133.034 122.995 133.354 123.667 133.993C124.345 134.627 124.69 135.472 124.701 136.531H122.461C122.45 136.068 122.306 135.693 122.031 135.406C121.755 135.114 121.391 134.968 120.94 134.968C120.383 134.968 119.961 135.172 119.675 135.58C119.394 135.982 119.253 136.638 119.253 137.547V137.795C119.253 138.716 119.394 139.377 119.675 139.779C119.956 140.182 120.383 140.383 120.956 140.383Z" fill="#0F4C81"/>
<path d="M130.16 138.556L129.3 139.416V142.143H126.911V129.446H129.3V136.481L129.763 135.886L132.053 133.199H134.921L131.689 136.927L135.202 142.143H132.458L130.16 138.556Z" fill="#0F4C81"/>
</g>
<defs>
<filter id="filter0_d" x="0.458496" y="0.135254" width="176.549" height="202.567" filterUnits="userSpaceOnUse" color-interpolation-filters="sRGB">
<feFlood flood-opacity="0" result="BackgroundImageFix"/>
<feColorMatrix in="SourceAlpha" type="matrix" values="0 0 0 0 0 0 0 0 0 0 0 0 0 0 0 0 0 0 127 0"/>
<feOffset dy="4"/>
<feGaussianBlur stdDeviation="2"/>
<feColorMatrix type="matrix" values="0 0 0 0 0 0 0 0 0 0 0 0 0 0 0 0 0 0 0.25 0"/>
<feBlend mode="normal" in2="BackgroundImageFix" result="effect1_dropShadow"/>
<feBlend mode="normal" in="SourceGraphic" in2="effect1_dropShadow" result="shape"/>
</filter>
<filter id="filter1_d" x="0.458496" y="0.135254" width="176.549" height="202.567" filterUnits="userSpaceOnUse" color-interpolation-filters="sRGB">
<feFlood flood-opacity="0" result="BackgroundImageFix"/>
<feColorMatrix in="SourceAlpha" type="matrix" values="0 0 0 0 0 0 0 0 0 0 0 0 0 0 0 0 0 0 127 0"/>
<feOffset dy="4"/>
<feGaussianBlur stdDeviation="2"/>
<feColorMatrix type="matrix" values="0 0 0 0 0 0 0 0 0 0 0 0 0 0 0 0 0 0 0.25 0"/>
<feBlend mode="normal" in2="BackgroundImageFix" result="effect1_dropShadow"/>
<feBlend mode="normal" in="SourceGraphic" in2="effect1_dropShadow" result="shape"/>
</filter>
<filter id="filter2_d" x="52.1094" y="51.9531" width="72.9943" height="72.9943" filterUnits="userSpaceOnUse" color-interpolation-filters="sRGB">
<feFlood flood-opacity="0" result="BackgroundImageFix"/>
<feColorMatrix in="SourceAlpha" type="matrix" values="0 0 0 0 0 0 0 0 0 0 0 0 0 0 0 0 0 0 127 0"/>
<feOffset dy="4"/>
<feGaussianBlur stdDeviation="2"/>
<feColorMatrix type="matrix" values="0 0 0 0 0 0 0 0 0 0 0 0 0 0 0 0 0 0 0.25 0"/>
<feBlend mode="normal" in2="BackgroundImageFix" result="effect1_dropShadow"/>
<feBlend mode="normal" in="SourceGraphic" in2="effect1_dropShadow" result="shape"/>
</filter>
</defs>
</svg>
