<svg viewBox="0 0 177 203" fill="none" xmlns="http://www.w3.org/2000/svg">
<g filter="url(#filter0_d)">
<path fill-rule="evenodd" clip-rule="evenodd" d="M88.4862 188L10.2295 142.813L10.2468 52.4578L88.5121 7.28857L166.777 52.475L166.76 142.839L88.4862 188Z" fill="white"/>
<path d="M86.9861 190.598L88.4856 191.464L89.9854 190.598L168.259 145.438L169.76 144.572L169.76 142.84L169.777 52.4756L169.778 50.7432L168.277 49.877L90.0121 4.6905L88.5124 3.82464L87.0125 4.69025L8.74718 49.8595L7.24708 50.7252L7.24675 52.4572L7.22949 142.813L7.22916 144.545L8.72937 145.411L86.9861 190.598Z" stroke="#FAED5B" stroke-width="6"/>
</g>
<g filter="url(#filter1_d)">
<path d="M55.2985 78.3127C60.077 91.0608 65.6512 97.97 76.2393 109.02C77.2668 119.253 81.4172 136.459 94.906 145.987C90.6648 130.489 94.2078 113.406 96.6838 109.909C114.309 95.4741 120.684 80.4364 120.684 80.4364C120.684 80.4364 121.125 79.4342 121.192 79.1661C121.392 78.3619 121.678 77.5146 121.573 77.1114C121.446 76.6254 120.374 75.7384 120.374 75.7384L118.49 75.3952H117.976L117.463 76.0817H116.606C116.549 76.3105 116.435 76.8024 116.435 76.9397V78.9991L117.255 80.4364C111.16 90.8534 98.9853 102.269 90.3382 102.904C87.5246 103.111 86.1824 103.006 83.0412 102.287C76.0855 100.399 60.796 88.1478 58.5626 78.3127L59.751 76.9397L60.2648 75.7384V74.7088L59.2373 73.8507L58.8948 73.1642L57.8673 72.3062L56.8398 72.821L55.9835 73.1642L55.1273 73.6791L54.7848 73.8507C54.7848 73.8507 54.3979 73.9576 54.271 74.5371C54.1441 75.1167 54.525 76.1172 54.525 76.1172C54.525 76.1172 55.0702 77.6262 55.2985 78.3127Z" fill="#3ECC80"/>
<path d="M93.7233 94.639C93.7233 97.941 91.0465 100.618 87.7444 100.618C84.4424 100.618 81.7655 97.941 81.7655 94.639C81.7655 91.337 84.4424 88.6601 87.7444 88.6601C91.0465 88.6601 93.7233 91.337 93.7233 94.639Z" fill="#3ECC80"/>
<path d="M55.4525 61.483V65.8878H53.9688V54.6362H58.1185C59.3498 54.6362 60.3132 54.9505 61.0087 55.579C61.7094 56.2076 62.0597 57.0396 62.0597 58.0751C62.0597 59.1673 61.7171 60.0096 61.0319 60.6021C60.3519 61.1894 59.3756 61.483 58.1031 61.483H55.4525ZM55.4525 60.2698H58.1185C58.9119 60.2698 59.5198 60.0843 59.9423 59.7134C60.3647 59.3373 60.576 58.7964 60.576 58.0905C60.576 57.4208 60.3647 56.885 59.9423 56.4832C59.5198 56.0813 58.9403 55.8727 58.2036 55.8572H55.4525V60.2698Z" fill="#3ECC80"/>
<path d="M64.9561 64.6746H70.2882V65.8878H63.4646V54.6362H64.9561V64.6746Z" fill="#3ECC80"/>
<path d="M78.9098 62.9513H74.1959L73.1372 65.8878H71.6071L75.9037 54.6362H77.202L81.5063 65.8878H79.9839L78.9098 62.9513ZM74.6441 61.7303H78.4693L76.5528 56.4677L74.6441 61.7303Z" fill="#3ECC80"/>
<path d="M85.4478 60.2852L88.3843 54.6362H90.069L86.1897 61.6917V65.8878H84.7059V61.6917L80.8266 54.6362H82.5267L85.4478 60.2852Z" fill="#3ECC80"/>
<path d="M94.8483 62.0703L94.1838 65.8878H91.5409L93.4883 54.6362L97.5299 54.644C98.7818 54.644 99.7658 54.9917 100.482 55.6872C101.203 56.3827 101.52 57.2843 101.432 58.3919C101.371 59.1493 101.128 59.8061 100.706 60.3625C100.284 60.9189 99.7246 61.3439 99.0291 61.6376C98.3387 61.9312 97.5634 62.0781 96.703 62.0781L94.8483 62.0703ZM95.2115 59.9761L96.8035 59.9916C97.4732 59.9761 97.9858 59.7597 98.3413 59.3424C98.6968 58.92 98.8384 58.4022 98.7663 57.7892C98.7251 57.4749 98.604 57.2276 98.4031 57.0473C98.2073 56.8618 97.9472 56.7588 97.6226 56.7382L95.7757 56.7305L95.2115 59.9761Z" fill="#3ECC80"/>
<path d="M107.162 61.9158H105.694L104.998 65.8878H102.356L104.303 54.6362L108.275 54.644C109.548 54.644 110.526 54.9428 111.212 55.5404C111.902 56.1329 112.211 56.9443 112.139 57.9746C112.082 58.7886 111.848 59.4635 111.436 59.9993C111.024 60.5299 110.447 60.9498 109.705 61.2589L111.219 65.7565V65.8878H108.399L107.162 61.9158ZM106.049 59.8216L107.595 59.837C108.017 59.837 108.383 59.734 108.692 59.5279C109.007 59.3218 109.231 59.0411 109.365 58.6856C109.499 58.325 109.537 57.9772 109.481 57.6423C109.378 57.0705 109.012 56.7691 108.383 56.7382L106.59 56.7305L106.049 59.8216Z" fill="#3ECC80"/>
<path d="M117.815 66.0424C116.645 66.0166 115.707 65.6303 115.002 64.8832C114.296 64.1362 113.897 63.1368 113.804 61.8849C113.752 61.2667 113.801 60.5402 113.951 59.7056C114.1 58.8659 114.365 58.0931 114.747 57.3873C115.128 56.6815 115.604 56.0942 116.176 55.6254C117.134 54.8372 118.237 54.4559 119.484 54.4817C120.251 54.4971 120.921 54.6749 121.493 55.0149C122.07 55.3498 122.531 55.834 122.876 56.4677C123.221 57.1014 123.422 57.8227 123.479 58.6315C123.52 59.2033 123.484 59.8551 123.371 60.5866C123.263 61.313 123.059 62.0085 122.76 62.6731C122.467 63.3325 122.085 63.9147 121.617 64.4196C121.148 64.9245 120.594 65.3263 119.955 65.6251C119.321 65.9188 118.608 66.0579 117.815 66.0424ZM120.828 58.6083C120.777 57.3204 120.277 56.6506 119.329 56.5991C118.598 56.563 117.992 56.8541 117.513 57.4723C117.034 58.0854 116.717 58.9921 116.563 60.1925C116.465 60.9344 116.429 61.5088 116.454 61.9158C116.506 63.2243 117.011 63.8967 117.969 63.9327C118.598 63.9636 119.139 63.7395 119.592 63.2604C120.045 62.7761 120.372 62.0755 120.573 61.1585C120.774 60.2363 120.859 59.3862 120.828 58.6083Z" fill="#3ECC80"/>
</g>
<defs>
<filter id="filter0_d" x="0.229004" y="0.36084" width="176.549" height="202.567" filterUnits="userSpaceOnUse" color-interpolation-filters="sRGB">
<feFlood flood-opacity="0" result="BackgroundImageFix"/>
<feColorMatrix in="SourceAlpha" type="matrix" values="0 0 0 0 0 0 0 0 0 0 0 0 0 0 0 0 0 0 127 0"/>
<feOffset dy="4"/>
<feGaussianBlur stdDeviation="2"/>
<feColorMatrix type="matrix" values="0 0 0 0 0 0 0 0 0 0 0 0 0 0 0 0 0 0 0.25 0"/>
<feBlend mode="normal" in2="BackgroundImageFix" result="effect1_dropShadow"/>
<feBlend mode="normal" in="SourceGraphic" in2="effect1_dropShadow" result="shape"/>
</filter>
<filter id="filter1_d" x="53.9688" y="54.4805" width="71.5267" height="93.5065" filterUnits="userSpaceOnUse" color-interpolation-filters="sRGB">
<feFlood flood-opacity="0" result="BackgroundImageFix"/>
<feColorMatrix in="SourceAlpha" type="matrix" values="0 0 0 0 0 0 0 0 0 0 0 0 0 0 0 0 0 0 127 0"/>
<feOffset dx="1" dy="1"/>
<feGaussianBlur stdDeviation="0.5"/>
<feColorMatrix type="matrix" values="0 0 0 0 0 0 0 0 0 0 0 0 0 0 0 0 0 0 0.25 0"/>
<feBlend mode="normal" in2="BackgroundImageFix" result="effect1_dropShadow"/>
<feBlend mode="normal" in="SourceGraphic" in2="effect1_dropShadow" result="shape"/>
</filter>
</defs>
</svg>
