<svg viewBox="0 0 275 275" fill="none" xmlns="http://www.w3.org/2000/svg">
<mask id="mask0" mask-type="alpha" maskUnits="userSpaceOnUse" x="18" y="0" width="238" height="275">
<path d="M21.373 70.4798L137.138 3.4664L252.902 70.4798V204.52L137.138 271.534L21.373 204.52V70.4798Z" fill="#FFD54F" stroke="black" stroke-width="6"/>
</mask>
<g mask="url(#mask0)">
<rect x="-23.4492" y="-18.739" width="287.478" height="308.13" fill="#FAED5B" stroke="black" stroke-width="6"/>
<path d="M137.289 88.588L137.055 88.6303L136.83 88.709C135.038 89.3368 133.19 89.9772 131.338 90.6194C130.827 90.7964 130.316 90.9736 129.805 91.1507C130.362 90.736 130.918 90.3215 131.474 89.9072L131.475 89.9065C132.548 89.106 133.621 88.3063 134.695 87.5068C135.516 87.4749 136.262 87.4652 137.042 87.4551C137.644 87.4473 138.268 87.4392 138.964 87.4204H138.967H138.971H138.976H138.981H138.986H138.991H138.996H139.001H139.005H139.01H139.015H139.02H139.025H139.03H139.035H139.04H139.044H139.049H139.054H139.059H139.064H139.069H139.074H139.078H139.083H139.088H139.093H139.098H139.103H139.108H139.113H139.117H139.122H139.127H139.132H139.137H139.142H139.147H139.151H139.156H139.161H139.166H139.171H139.176H139.181H139.185H139.19H139.195H139.2H139.205H139.21H139.215H139.219H139.224H139.229H139.234H139.239H139.244H139.249H139.253H139.258H139.263H139.268H139.273H139.278H139.283H139.287H139.292H139.297H139.302H139.307H139.312H139.317H139.321H139.326H139.331H139.336H139.341H139.346H139.351H139.355H139.36H139.365H139.37H139.375H139.38H139.385H139.389H139.394H139.399H139.404H139.409H139.414H139.418H139.423H139.428H139.433H139.438H139.443H139.448H139.452H139.457H139.462H139.467H139.472H139.477H139.482H139.486H139.491H139.496H139.501H139.506H139.511H139.515H139.52H139.525H139.53H139.535H139.54H139.545H139.549H139.554H139.559H139.564H139.569H139.574H139.578H139.583H139.588H139.593H139.598H139.603H139.608H139.612H139.617H139.622H139.627H139.632H139.637H139.641H139.646H139.651H139.656H139.661H139.666H139.671H139.675H139.68H139.685H139.69H139.695H139.7H139.704H139.709H139.714H139.719H139.724H139.729H139.733H139.738H139.743H139.748H139.753H139.758H139.763H139.767H139.772H139.777H139.782H139.787H139.792H139.796H139.801H139.806H139.811H139.816H139.821H139.825H139.83H139.835H139.84H139.845H139.85H139.855H139.859H139.864H139.869H139.874H139.879H139.884H139.888H139.893H139.898H139.903H139.908H139.913H139.917H139.922H139.927H139.932H139.937H139.942H139.946H139.951H139.956H139.961H139.966H139.971H139.975H139.98H139.985H139.99H139.995H140H140.005H140.009H140.014H140.019H140.024H140.029H140.034H140.038H140.043H140.048H140.053H140.058H140.063H140.067H140.072H140.077H140.082H140.087H140.092H140.096H140.101H140.106H140.111H140.116H140.121H140.125H140.13H140.135H140.14H140.145H140.15H140.155H140.159H140.164H140.169H140.174H140.179H140.184H140.188H140.193H140.198H140.203H140.208H140.213H140.217H140.222H140.227H140.232H140.237H140.242H140.246H140.251H140.256H140.261H140.266H140.271H140.275H140.28H140.285H140.29H140.295H140.3H140.304H140.309H140.314H140.319H140.324H140.329H140.334H140.338H140.343H140.348H140.353H140.358H140.363H140.367H140.372H140.377H140.382H140.387H140.392H140.396H140.4C141.567 88.2875 142.704 89.0702 143.794 89.8209L143.82 89.8388C144.498 90.3055 145.158 90.7604 145.813 91.2242C144.553 90.7728 143.295 90.3218 142.035 89.8684L142.002 89.8556C141.196 89.5465 140.438 89.2557 139.862 89.0442C139.57 88.9371 139.29 88.8371 139.058 88.7624C138.947 88.7267 138.801 88.6817 138.649 88.6441C138.576 88.6259 138.452 88.5971 138.303 88.5749C138.301 88.5746 138.298 88.5742 138.295 88.5737C138.214 88.5612 137.796 88.4968 137.289 88.588Z" fill="black" stroke="black" stroke-width="6"/>
<path d="M158.134 127.788C157.843 128.15 157.281 128.857 156.606 129.708C156.333 129.567 156.079 129.4 155.863 129.206C155.456 128.322 155.394 127.003 155.476 126.658C155.516 126.538 155.583 126.368 155.63 126.261L158.134 127.788ZM154.436 127.616C154.192 127.923 153.931 128.253 153.661 128.594C152.284 130.333 150.652 132.401 149.855 133.425L147.73 136.157L150.736 137.873C150.676 137.838 150.715 137.865 150.91 137.999C151.013 138.07 151.16 138.171 151.359 138.309C151.629 138.496 151.948 138.718 152.301 138.963C152.567 139.148 152.851 139.346 153.15 139.553C154.252 140.318 155.53 141.202 156.561 141.899C157.102 143.063 157.645 144.227 158.189 145.39C151.35 146.165 144.513 146.938 137.676 147.704C133.443 147.172 127.417 146.401 122.43 145.76C120.429 145.502 118.595 145.266 117.113 145.074C117.135 145.014 117.157 144.954 117.179 144.894L117.18 144.892C117.5 144.023 117.82 143.153 118.14 142.282C118.825 141.86 119.437 141.483 119.985 141.146C121.253 140.366 122.174 139.8 122.828 139.388C123.351 139.059 123.772 138.785 124.091 138.556L124.097 138.552C124.327 138.386 124.863 138 125.254 137.413L126.419 135.66L125.167 133.968C123.562 131.797 122.107 129.831 121.052 128.404C120.981 128.307 120.91 128.212 120.842 128.12C122.033 126.888 123.226 125.656 124.419 124.423L124.42 124.422C126.2 122.583 127.982 120.742 129.762 118.897L130.697 117.928L130.594 116.586C130.524 115.661 130.459 114.808 130.401 114.036C130.312 112.863 130.238 111.877 130.177 111.104C130.127 110.463 130.085 109.951 130.052 109.591C130.036 109.416 130.02 109.251 130.004 109.116C129.996 109.056 129.984 108.958 129.965 108.853C129.957 108.807 129.938 108.698 129.902 108.565C129.885 108.502 129.848 108.371 129.783 108.211C129.782 108.209 129.781 108.206 129.78 108.203C129.745 108.116 129.555 107.639 129.106 107.197L128.845 106.94L128.529 106.753L124.314 104.256C124.398 104.13 124.482 104.004 124.567 103.878L124.567 103.878C125.057 103.145 125.547 102.411 126.038 101.675C129.851 100.269 133.662 98.8466 137.461 97.4242C137.63 97.4868 137.813 97.5538 138.007 97.6243C139.046 98.0021 140.493 98.515 142.027 99.0548C143.552 99.5914 145.159 100.153 146.56 100.643C147.456 100.956 148.269 101.24 148.922 101.469C149.422 102.281 149.921 103.096 150.422 103.913L150.423 103.914C150.571 104.155 150.719 104.396 150.867 104.638C150.703 104.732 150.539 104.827 150.375 104.922L150.372 104.923C149.316 105.533 148.266 106.14 147.213 106.743L145.715 107.601L145.704 109.327C145.702 109.652 145.655 110.201 145.575 111.02C145.565 111.119 145.555 111.22 145.545 111.324C145.476 112.016 145.396 112.818 145.345 113.591C145.287 114.461 145.252 115.452 145.337 116.34C145.38 116.782 145.463 117.32 145.648 117.855C145.799 118.292 146.103 118.976 146.734 119.55C147.493 120.348 148.251 121.142 149.007 121.935C150.638 123.645 152.262 125.349 153.884 127.061L153.902 127.08L153.92 127.099C153.994 127.174 154.09 127.27 154.202 127.382C154.274 127.453 154.353 127.532 154.436 127.616ZM140.303 95.2621C140.168 95.6195 139.967 95.9458 139.714 96.2236C139.333 96.6427 138.905 96.8777 138.56 97.0094L138.174 94.4883C138.673 94.6763 139.417 94.9458 140.303 95.2621ZM155.761 129.028C155.764 129.032 155.765 129.034 155.765 129.034C155.765 129.034 155.763 129.032 155.761 129.028Z" fill="black" stroke="black" stroke-width="6"/>
<path d="M101.423 132.511C98.4163 134.209 95.408 135.907 92.4014 137.607C91.7864 137.371 90.9881 137.071 90.0583 136.725C87.8178 135.893 84.7571 134.777 81.5145 133.601C76.4756 131.775 70.9769 129.798 67.3988 128.512C66.8401 128.312 66.3282 128.128 65.8722 127.964C63.6919 124.228 61.5092 120.492 59.327 116.757L59.3245 116.753C57.3196 113.322 55.3151 109.891 53.3125 106.46C55.5412 103.893 57.7636 101.32 59.9844 98.7405L86.9009 100.441C88.539 100.956 90.1795 101.47 91.8192 101.984L91.829 101.987C93.5815 102.537 95.3331 103.086 97.0816 103.635L97.2049 103.673L97.331 103.701C99.1767 104.111 105.729 106.372 112.131 108.728C115.273 109.885 118.285 111.029 120.529 111.923C121.339 112.246 122.035 112.53 122.594 112.768L122.633 114.106L122.687 115.926L111.386 126.883C108.068 128.76 104.746 130.635 101.424 132.511L101.423 132.511ZM89.8105 139.835C90.0579 139.212 90.4868 138.755 90.8974 138.472L92.3685 140.823C91.9668 140.651 91.0633 140.303 89.8105 139.835Z" fill="black" stroke="black" stroke-width="6"/>
<path d="M156.362 119.52L156.355 119.513L156.348 119.505L154.037 117.266L152.684 115.955C152.707 115.361 152.729 114.766 152.752 114.169L152.752 114.166C152.771 113.69 152.789 113.212 152.807 112.733C153.144 112.584 153.545 112.415 154.009 112.225C155.648 111.555 157.908 110.702 160.565 109.73C163.835 108.535 167.632 107.186 171.523 105.803C173.947 104.942 176.407 104.068 178.799 103.21C181.715 102.284 184.626 101.36 187.535 100.447C188.752 100.37 191.956 100.16 197.251 99.8131C201.541 99.532 207.204 99.1611 214.293 98.6977C216.518 101.272 218.747 103.846 220.971 106.413C218.973 109.872 216.973 113.333 214.972 116.795L214.972 116.796C212.797 120.56 210.621 124.324 208.449 128.086C199.71 131.269 190.972 134.451 182.245 137.623C178.979 135.581 175.713 133.536 172.447 131.492L172.441 131.488L172.431 131.482C168.847 129.238 165.262 126.994 161.677 124.752C159.907 123.002 158.127 121.254 156.362 119.52ZM151.761 113.239C151.713 113.273 151.704 113.274 151.757 113.242C151.758 113.241 151.76 113.24 151.761 113.239Z" fill="black" stroke="black" stroke-width="6"/>
<path d="M162.9 165.066L162.919 165.002C162.984 164.786 163.077 164.508 163.158 164.269C163.173 164.226 163.187 164.184 163.201 164.144C163.301 163.844 163.4 163.546 163.485 163.258C163.561 163.003 163.613 162.8 163.643 162.651C163.275 161.078 162.911 159.506 162.546 157.936L162.546 157.933L162.545 157.93C162.367 157.165 162.19 156.401 162.013 155.638C159.974 156 157.937 156.361 155.911 156.716L155.899 156.718L155.888 156.72C149.997 157.705 144.106 158.703 138.211 159.7L162.9 165.066ZM162.9 165.066L162.884 165.13C162.534 166.528 162.18 167.93 161.825 169.334L161.823 169.342C161.636 170.082 161.449 170.824 161.262 171.565C157.769 172.019 154.273 172.475 150.778 172.93L150.764 172.932C146.706 173.461 142.648 173.99 138.593 174.516C134.395 174.077 130.197 173.636 125.997 173.194L125.996 173.194C122.34 172.809 118.684 172.425 115.027 172.042C114.087 168.94 113.148 165.834 112.217 162.728C113.086 160.339 113.961 157.949 114.839 155.558C116.9 155.954 118.962 156.352 121.024 156.749L121.024 156.749C123.832 157.291 126.642 157.832 129.451 158.371C130.407 158.584 131.351 158.746 132.235 158.895C132.311 158.908 132.386 158.92 132.461 158.933C133.295 159.073 134.078 159.205 134.876 159.37L134.891 159.373L134.905 159.375C134.961 159.386 135.044 159.406 135.243 159.457L135.261 159.462C135.43 159.504 135.673 159.566 135.931 159.62C136.435 159.724 137.276 159.862 138.21 159.701L162.9 165.066Z" fill="black" stroke="black" stroke-width="6"/>
<path d="M137.291 196.305C137.639 195.444 137.987 194.584 138.336 193.727L139.076 191.907L141.041 191.858C142.231 191.829 143.423 191.791 144.623 191.752C145.458 191.307 146.295 190.863 147.13 190.419L147.135 190.416C148.175 189.863 149.213 189.312 150.248 188.76L150.268 188.749L150.288 188.739C150.921 188.414 151.552 188.085 152.192 187.752L152.196 187.75C152.584 187.547 152.976 187.343 153.369 187.139C154.419 185.409 155.47 183.679 156.52 181.951L156.525 181.943C156.558 181.888 156.592 181.833 156.625 181.778L137.291 196.305ZM137.291 196.305C136.989 195.535 136.687 194.764 136.385 193.991L135.614 192.013L133.492 192.083C132.966 192.1 132.44 192.115 131.902 192.129L131.875 192.13C131.593 192.138 131.307 192.146 131.02 192.154C129.988 191.65 128.955 191.146 127.923 190.642L127.922 190.642C126.667 190.029 125.413 189.418 124.163 188.807L124.145 188.798L124.126 188.789C123.456 188.472 122.788 188.155 122.118 187.837L122.116 187.836C121.753 187.664 121.39 187.492 121.025 187.319L118.449 182.276L137.291 196.305Z" fill="black" stroke="black" stroke-width="6"/>
<path d="M21.373 70.4798L137.138 3.4664L252.902 70.4798V204.52L137.138 271.534L21.373 204.52V70.4798Z" stroke="black" stroke-width="6"/>
</g>
</svg>
