<svg viewBox="0 0 4457 370" fill="none" xmlns="http://www.w3.org/2000/svg">
<g filter="url(#filter0_d)">
<mask id="path-1-inside-1" fill="white">
<path fill-rule="evenodd" clip-rule="evenodd" d="M62.1404 248.767L4 215.212L4.01282 148.115L62.1597 114.573L120.307 148.128L120.294 215.231L62.1404 248.767Z"/>
<path fill-rule="evenodd" clip-rule="evenodd" d="M128.41 134.194L70.2695 100.639L70.2823 33.542L128.429 0L186.576 33.5548L186.563 100.658L128.41 134.194Z"/>
<path fill-rule="evenodd" clip-rule="evenodd" d="M128.41 360.818L70.2695 327.263L70.2823 260.166L128.429 226.624L186.576 260.179L186.563 327.282L128.41 360.818Z"/>
<path fill-rule="evenodd" clip-rule="evenodd" d="M258.585 360.818L200.445 327.263L200.457 260.166L258.604 226.624L316.751 260.179L316.738 327.282L258.585 360.818Z"/>
<path fill-rule="evenodd" clip-rule="evenodd" d="M519.723 360.818L461.583 327.263L461.596 260.166L519.742 226.624L577.889 260.179L577.876 327.282L519.723 360.818Z"/>
<path fill-rule="evenodd" clip-rule="evenodd" d="M651.474 134.194L593.334 100.639L593.347 33.542L651.494 0L709.64 33.5548L709.628 100.658L651.474 134.194Z"/>
<path fill-rule="evenodd" clip-rule="evenodd" d="M1110.63 247.506L1052.49 213.951L1052.51 146.854L1110.65 113.312L1168.8 146.867L1168.79 213.97L1110.63 247.506Z"/>
<path fill-rule="evenodd" clip-rule="evenodd" d="M585.205 248.767L527.064 215.212L527.077 148.115L585.224 114.573L643.371 148.128L643.358 215.231L585.205 248.767Z"/>
<path fill-rule="evenodd" clip-rule="evenodd" d="M912.612 360.818L854.472 327.263L854.485 260.166L912.632 226.624L970.779 260.179L970.766 327.282L912.612 360.818Z"/>
<path fill-rule="evenodd" clip-rule="evenodd" d="M193.104 248.767L134.963 215.212L134.976 148.115L193.123 114.573L251.27 148.128L251.257 215.231L193.104 248.767Z"/>
<path fill-rule="evenodd" clip-rule="evenodd" d="M324.067 248.767L265.926 215.212L265.939 148.115L324.086 114.573L382.233 148.128L382.22 215.231L324.067 248.767Z"/>
<path fill-rule="evenodd" clip-rule="evenodd" d="M455.03 248.767L396.889 215.212L396.902 148.115L455.049 114.573L513.196 148.128L513.183 215.231L455.03 248.767Z"/>
<path fill-rule="evenodd" clip-rule="evenodd" d="M716.956 248.767L658.815 215.212L658.828 148.115L716.975 114.573L775.122 148.128L775.109 215.231L716.956 248.767Z"/>
<path fill-rule="evenodd" clip-rule="evenodd" d="M2683.79 248.767L2741.93 215.212L2741.92 148.115L2683.77 114.573L2625.63 148.128L2625.64 215.231L2683.79 248.767Z"/>
<path fill-rule="evenodd" clip-rule="evenodd" d="M3342.55 248.767L3400.69 215.212L3400.67 148.115L3342.53 114.573L3284.38 148.128L3284.39 215.231L3342.55 248.767Z"/>
<path fill-rule="evenodd" clip-rule="evenodd" d="M2617.52 134.194L2675.66 100.639L2675.65 33.542L2617.5 0L2559.36 33.5548L2559.37 100.658L2617.52 134.194Z"/>
<path fill-rule="evenodd" clip-rule="evenodd" d="M3145.31 360.818L3203.45 327.263L3203.44 260.166L3145.3 226.624L3087.15 260.179L3087.16 327.282L3145.31 360.818Z"/>
<path fill-rule="evenodd" clip-rule="evenodd" d="M3145.31 134.194L3203.45 100.639L3203.44 33.542L3145.3 0L3087.15 33.5548L3087.16 100.658L3145.31 134.194Z"/>
<path fill-rule="evenodd" clip-rule="evenodd" d="M3211.58 248.767L3269.72 215.212L3269.71 148.115L3211.56 114.573L3153.42 148.128L3153.43 215.231L3211.58 248.767Z"/>
<path fill-rule="evenodd" clip-rule="evenodd" d="M2617.52 360.818L2675.66 327.263L2675.65 260.166L2617.5 226.624L2559.36 260.179L2559.37 327.282L2617.52 360.818Z"/>
<path fill-rule="evenodd" clip-rule="evenodd" d="M3013.56 134.194L3071.7 100.639L3071.69 33.542L3013.54 0L2955.4 33.5548L2955.41 100.658L3013.56 134.194Z"/>
<path fill-rule="evenodd" clip-rule="evenodd" d="M2486.56 134.194L2544.7 100.639L2544.69 33.542L2486.54 0L2428.39 33.5548L2428.41 100.658L2486.56 134.194Z"/>
<path fill-rule="evenodd" clip-rule="evenodd" d="M3078.26 248.767L3136.4 215.212L3136.38 148.115L3078.24 114.573L3020.09 148.128L3020.1 215.231L3078.26 248.767Z"/>
<path fill-rule="evenodd" clip-rule="evenodd" d="M3013.56 360.818L3071.7 327.263L3071.69 260.166L3013.54 226.624L2955.4 260.179L2955.41 327.282L3013.56 360.818Z"/>
<path fill-rule="evenodd" clip-rule="evenodd" d="M2226.21 360.818L2284.35 327.263L2284.34 260.166L2226.19 226.624L2168.04 260.179L2168.06 327.282L2226.21 360.818Z"/>
<path fill-rule="evenodd" clip-rule="evenodd" d="M2094.46 134.194L2152.6 100.639L2152.59 33.542L2094.44 0L2036.29 33.5548L2036.3 100.658L2094.46 134.194Z"/>
<path fill-rule="evenodd" clip-rule="evenodd" d="M2160.73 248.767L2218.87 215.212L2218.85 148.115L2160.71 114.573L2102.56 148.128L2102.57 215.231L2160.73 248.767Z"/>
<path fill-rule="evenodd" clip-rule="evenodd" d="M2552.83 248.767L2610.97 215.212L2610.96 148.115L2552.81 114.573L2494.66 148.128L2494.68 215.231L2552.83 248.767Z"/>
<path fill-rule="evenodd" clip-rule="evenodd" d="M2421.86 248.767L2480.01 215.212L2479.99 148.115L2421.85 114.573L2363.7 148.128L2363.71 215.231L2421.86 248.767Z"/>
<path fill-rule="evenodd" clip-rule="evenodd" d="M2290.9 248.767L2349.04 215.212L2349.03 148.115L2290.88 114.573L2232.74 148.128L2232.75 215.231L2290.9 248.767Z"/>
<path fill-rule="evenodd" clip-rule="evenodd" d="M2028.98 248.767L2087.12 215.212L2087.1 148.115L2028.96 114.573L1970.81 148.128L1970.82 215.231L2028.98 248.767Z"/>
<path fill-rule="evenodd" clip-rule="evenodd" d="M1897.22 248.767L1955.37 215.212L1955.35 148.115L1897.21 114.573L1839.06 148.128L1839.07 215.231L1897.22 248.767Z"/>
<path fill-rule="evenodd" clip-rule="evenodd" d="M1830.96 134.194L1889.1 100.639L1889.08 33.542L1830.94 0L1772.79 33.5548L1772.8 100.658L1830.96 134.194Z"/>
<path fill-rule="evenodd" clip-rule="evenodd" d="M1830.96 360.818L1889.1 327.263L1889.08 260.166L1830.94 226.624L1772.79 260.179L1772.8 327.282L1830.96 360.818Z"/>
<path fill-rule="evenodd" clip-rule="evenodd" d="M2356.38 360.818L2414.52 327.263L2414.51 260.166L2356.36 226.624L2298.22 260.179L2298.23 327.282L2356.38 360.818Z"/>
<path fill-rule="evenodd" clip-rule="evenodd" d="M1307.5 360.818L1365.64 327.263L1365.62 260.166L1307.48 226.624L1249.33 260.179L1249.34 327.282L1307.5 360.818Z"/>
<path fill-rule="evenodd" clip-rule="evenodd" d="M1307.89 134.194L1366.03 100.639L1366.02 33.542L1307.87 0L1249.73 33.5548L1249.74 100.658L1307.89 134.194Z"/>
<path fill-rule="evenodd" clip-rule="evenodd" d="M1374.16 248.767L1432.3 215.212L1432.29 148.115L1374.14 114.573L1315.99 148.128L1316.01 215.231L1374.16 248.767Z"/>
<path fill-rule="evenodd" clip-rule="evenodd" d="M1766.26 248.767L1824.4 215.212L1824.39 148.115L1766.24 114.573L1708.1 148.128L1708.11 215.231L1766.26 248.767Z"/>
<path fill-rule="evenodd" clip-rule="evenodd" d="M3476.64 113.233L3418.5 146.788L3418.51 213.885L3476.66 247.427L3534.8 213.872L3534.79 146.769L3476.64 113.233Z"/>
<path fill-rule="evenodd" clip-rule="evenodd" d="M3542.91 227.806L3484.76 261.361L3484.78 328.458L3542.92 362L3601.07 328.445L3601.06 261.342L3542.91 227.806Z"/>
<path fill-rule="evenodd" clip-rule="evenodd" d="M3542.91 1.18197L3484.76 34.7368L3484.78 101.834L3542.92 135.376L3601.07 101.821L3601.06 34.7176L3542.91 1.18197Z"/>
<path fill-rule="evenodd" clip-rule="evenodd" d="M3673.87 227.806L3615.73 261.361L3615.74 328.458L3673.89 362L3732.03 328.445L3732.02 261.342L3673.87 227.806Z"/>
<path fill-rule="evenodd" clip-rule="evenodd" d="M3934.22 1.18197L3876.08 34.7368L3876.09 101.834L3934.24 135.376L3992.38 101.821L3992.37 34.7176L3934.22 1.18197Z"/>
<path fill-rule="evenodd" clip-rule="evenodd" d="M4065.97 227.806L4007.83 261.361L4007.84 328.458L4065.99 362L4124.14 328.445L4124.12 261.342L4065.97 227.806Z"/>
<path fill-rule="evenodd" clip-rule="evenodd" d="M3999.7 113.233L3941.56 146.788L3941.57 213.885L3999.72 247.427L4057.87 213.872L4057.85 146.769L3999.7 113.233Z"/>
<path fill-rule="evenodd" clip-rule="evenodd" d="M3607.6 113.233L3549.46 146.788L3549.47 213.885L3607.62 247.427L3665.77 213.872L3665.75 146.769L3607.6 113.233Z"/>
<path fill-rule="evenodd" clip-rule="evenodd" d="M3738.56 113.233L3680.42 146.788L3680.43 213.885L3738.58 247.427L3796.73 213.872L3796.72 146.769L3738.56 113.233Z"/>
<path fill-rule="evenodd" clip-rule="evenodd" d="M3869.53 113.233L3811.38 146.788L3811.4 213.885L3869.54 247.427L3927.69 213.872L3927.68 146.769L3869.53 113.233Z"/>
<path fill-rule="evenodd" clip-rule="evenodd" d="M4131.45 113.233L4073.31 146.788L4073.32 213.885L4131.47 247.427L4189.62 213.872L4189.6 146.769L4131.45 113.233Z"/>
<path fill-rule="evenodd" clip-rule="evenodd" d="M4263.2 113.233L4205.06 146.788L4205.07 213.885L4263.22 247.427L4321.37 213.872L4321.36 146.769L4263.2 113.233Z"/>
<path fill-rule="evenodd" clip-rule="evenodd" d="M4329.47 227.806L4271.33 261.361L4271.34 328.458L4329.49 362L4387.64 328.445L4387.63 261.342L4329.47 227.806Z"/>
<path fill-rule="evenodd" clip-rule="evenodd" d="M4329.47 1.18197L4271.33 34.7368L4271.34 101.834L4329.49 135.376L4387.64 101.821L4387.63 34.7176L4329.47 1.18197Z"/>
<path fill-rule="evenodd" clip-rule="evenodd" d="M3804.04 1.18197L3745.9 34.7368L3745.92 101.834L3804.06 135.376L3862.21 101.821L3862.2 34.7176L3804.04 1.18197Z"/>
<path fill-rule="evenodd" clip-rule="evenodd" d="M4394.17 113.233L4336.02 146.788L4336.04 213.885L4394.19 247.427L4452.33 213.872L4452.32 146.769L4394.17 113.233Z"/>
<path fill-rule="evenodd" clip-rule="evenodd" d="M1635.3 248.767L1693.44 215.212L1693.43 148.115L1635.28 114.573L1577.13 148.128L1577.15 215.231L1635.3 248.767Z"/>
<path fill-rule="evenodd" clip-rule="evenodd" d="M1504.34 248.767L1562.48 215.212L1562.46 148.115L1504.32 114.573L1446.17 148.128L1446.18 215.231L1504.34 248.767Z"/>
<path fill-rule="evenodd" clip-rule="evenodd" d="M2946.51 248.767L3004.65 215.212L3004.63 148.115L2946.49 114.573L2888.34 148.128L2888.35 215.231L2946.51 248.767Z"/>
<path fill-rule="evenodd" clip-rule="evenodd" d="M2815.54 248.767L2873.68 215.212L2873.67 148.115L2815.52 114.573L2757.38 148.128L2757.39 215.231L2815.54 248.767Z"/>
<path fill-rule="evenodd" clip-rule="evenodd" d="M1242.41 248.767L1300.55 215.212L1300.54 148.115L1242.39 114.573L1184.24 148.128L1184.26 215.231L1242.41 248.767Z"/>
<path fill-rule="evenodd" clip-rule="evenodd" d="M847.919 248.767L789.778 215.212L789.791 148.115L847.938 114.573L906.085 148.128L906.072 215.231L847.919 248.767Z"/>
<path fill-rule="evenodd" clip-rule="evenodd" d="M978.882 248.767L920.741 215.212L920.754 148.115L978.901 114.573L1037.05 148.128L1037.04 215.231L978.882 248.767Z"/>
</mask>
<g filter="url(#filter1_i)">
<path fill-rule="evenodd" clip-rule="evenodd" d="M62.1404 248.767L4 215.212L4.01282 148.115L62.1597 114.573L120.307 148.128L120.294 215.231L62.1404 248.767Z" fill="white"/>
<path fill-rule="evenodd" clip-rule="evenodd" d="M128.41 134.194L70.2695 100.639L70.2823 33.542L128.429 0L186.576 33.5548L186.563 100.658L128.41 134.194Z" fill="white"/>
<path fill-rule="evenodd" clip-rule="evenodd" d="M128.41 360.818L70.2695 327.263L70.2823 260.166L128.429 226.624L186.576 260.179L186.563 327.282L128.41 360.818Z" fill="white"/>
<path fill-rule="evenodd" clip-rule="evenodd" d="M258.585 360.818L200.445 327.263L200.457 260.166L258.604 226.624L316.751 260.179L316.738 327.282L258.585 360.818Z" fill="white"/>
<path fill-rule="evenodd" clip-rule="evenodd" d="M519.723 360.818L461.583 327.263L461.596 260.166L519.742 226.624L577.889 260.179L577.876 327.282L519.723 360.818Z" fill="white"/>
<path fill-rule="evenodd" clip-rule="evenodd" d="M651.474 134.194L593.334 100.639L593.347 33.542L651.494 0L709.64 33.5548L709.628 100.658L651.474 134.194Z" fill="white"/>
<path fill-rule="evenodd" clip-rule="evenodd" d="M1110.63 247.506L1052.49 213.951L1052.51 146.854L1110.65 113.312L1168.8 146.867L1168.79 213.97L1110.63 247.506Z" fill="white"/>
<path fill-rule="evenodd" clip-rule="evenodd" d="M585.205 248.767L527.064 215.212L527.077 148.115L585.224 114.573L643.371 148.128L643.358 215.231L585.205 248.767Z" fill="white"/>
<path fill-rule="evenodd" clip-rule="evenodd" d="M912.612 360.818L854.472 327.263L854.485 260.166L912.632 226.624L970.779 260.179L970.766 327.282L912.612 360.818Z" fill="white"/>
<path fill-rule="evenodd" clip-rule="evenodd" d="M193.104 248.767L134.963 215.212L134.976 148.115L193.123 114.573L251.27 148.128L251.257 215.231L193.104 248.767Z" fill="white"/>
<path fill-rule="evenodd" clip-rule="evenodd" d="M324.067 248.767L265.926 215.212L265.939 148.115L324.086 114.573L382.233 148.128L382.22 215.231L324.067 248.767Z" fill="white"/>
<path fill-rule="evenodd" clip-rule="evenodd" d="M455.03 248.767L396.889 215.212L396.902 148.115L455.049 114.573L513.196 148.128L513.183 215.231L455.03 248.767Z" fill="white"/>
<path fill-rule="evenodd" clip-rule="evenodd" d="M716.956 248.767L658.815 215.212L658.828 148.115L716.975 114.573L775.122 148.128L775.109 215.231L716.956 248.767Z" fill="white"/>
<path fill-rule="evenodd" clip-rule="evenodd" d="M2683.79 248.767L2741.93 215.212L2741.92 148.115L2683.77 114.573L2625.63 148.128L2625.64 215.231L2683.79 248.767Z" fill="white"/>
<path fill-rule="evenodd" clip-rule="evenodd" d="M3342.55 248.767L3400.69 215.212L3400.67 148.115L3342.53 114.573L3284.38 148.128L3284.39 215.231L3342.55 248.767Z" fill="white"/>
<path fill-rule="evenodd" clip-rule="evenodd" d="M2617.52 134.194L2675.66 100.639L2675.65 33.542L2617.5 0L2559.36 33.5548L2559.37 100.658L2617.52 134.194Z" fill="white"/>
<path fill-rule="evenodd" clip-rule="evenodd" d="M3145.31 360.818L3203.45 327.263L3203.44 260.166L3145.3 226.624L3087.15 260.179L3087.16 327.282L3145.31 360.818Z" fill="white"/>
<path fill-rule="evenodd" clip-rule="evenodd" d="M3145.31 134.194L3203.45 100.639L3203.44 33.542L3145.3 0L3087.15 33.5548L3087.16 100.658L3145.31 134.194Z" fill="white"/>
<path fill-rule="evenodd" clip-rule="evenodd" d="M3211.58 248.767L3269.72 215.212L3269.71 148.115L3211.56 114.573L3153.42 148.128L3153.43 215.231L3211.58 248.767Z" fill="white"/>
<path fill-rule="evenodd" clip-rule="evenodd" d="M2617.52 360.818L2675.66 327.263L2675.65 260.166L2617.5 226.624L2559.36 260.179L2559.37 327.282L2617.52 360.818Z" fill="white"/>
<path fill-rule="evenodd" clip-rule="evenodd" d="M3013.56 134.194L3071.7 100.639L3071.69 33.542L3013.54 0L2955.4 33.5548L2955.41 100.658L3013.56 134.194Z" fill="white"/>
<path fill-rule="evenodd" clip-rule="evenodd" d="M2486.56 134.194L2544.7 100.639L2544.69 33.542L2486.54 0L2428.39 33.5548L2428.41 100.658L2486.56 134.194Z" fill="white"/>
<path fill-rule="evenodd" clip-rule="evenodd" d="M3078.26 248.767L3136.4 215.212L3136.38 148.115L3078.24 114.573L3020.09 148.128L3020.1 215.231L3078.26 248.767Z" fill="white"/>
<path fill-rule="evenodd" clip-rule="evenodd" d="M3013.56 360.818L3071.7 327.263L3071.69 260.166L3013.54 226.624L2955.4 260.179L2955.41 327.282L3013.56 360.818Z" fill="white"/>
<path fill-rule="evenodd" clip-rule="evenodd" d="M2226.21 360.818L2284.35 327.263L2284.34 260.166L2226.19 226.624L2168.04 260.179L2168.06 327.282L2226.21 360.818Z" fill="white"/>
<path fill-rule="evenodd" clip-rule="evenodd" d="M2094.46 134.194L2152.6 100.639L2152.59 33.542L2094.44 0L2036.29 33.5548L2036.3 100.658L2094.46 134.194Z" fill="white"/>
<path fill-rule="evenodd" clip-rule="evenodd" d="M2160.73 248.767L2218.87 215.212L2218.85 148.115L2160.71 114.573L2102.56 148.128L2102.57 215.231L2160.73 248.767Z" fill="white"/>
<path fill-rule="evenodd" clip-rule="evenodd" d="M2552.83 248.767L2610.97 215.212L2610.96 148.115L2552.81 114.573L2494.66 148.128L2494.68 215.231L2552.83 248.767Z" fill="white"/>
<path fill-rule="evenodd" clip-rule="evenodd" d="M2421.86 248.767L2480.01 215.212L2479.99 148.115L2421.85 114.573L2363.7 148.128L2363.71 215.231L2421.86 248.767Z" fill="white"/>
<path fill-rule="evenodd" clip-rule="evenodd" d="M2290.9 248.767L2349.04 215.212L2349.03 148.115L2290.88 114.573L2232.74 148.128L2232.75 215.231L2290.9 248.767Z" fill="white"/>
<path fill-rule="evenodd" clip-rule="evenodd" d="M2028.98 248.767L2087.12 215.212L2087.1 148.115L2028.96 114.573L1970.81 148.128L1970.82 215.231L2028.98 248.767Z" fill="white"/>
<path fill-rule="evenodd" clip-rule="evenodd" d="M1897.22 248.767L1955.37 215.212L1955.35 148.115L1897.21 114.573L1839.06 148.128L1839.07 215.231L1897.22 248.767Z" fill="white"/>
<path fill-rule="evenodd" clip-rule="evenodd" d="M1830.96 134.194L1889.1 100.639L1889.08 33.542L1830.94 0L1772.79 33.5548L1772.8 100.658L1830.96 134.194Z" fill="white"/>
<path fill-rule="evenodd" clip-rule="evenodd" d="M1830.96 360.818L1889.1 327.263L1889.08 260.166L1830.94 226.624L1772.79 260.179L1772.8 327.282L1830.96 360.818Z" fill="white"/>
<path fill-rule="evenodd" clip-rule="evenodd" d="M2356.38 360.818L2414.52 327.263L2414.51 260.166L2356.36 226.624L2298.22 260.179L2298.23 327.282L2356.38 360.818Z" fill="white"/>
<path fill-rule="evenodd" clip-rule="evenodd" d="M1307.5 360.818L1365.64 327.263L1365.62 260.166L1307.48 226.624L1249.33 260.179L1249.34 327.282L1307.5 360.818Z" fill="white"/>
<path fill-rule="evenodd" clip-rule="evenodd" d="M1307.89 134.194L1366.03 100.639L1366.02 33.542L1307.87 0L1249.73 33.5548L1249.74 100.658L1307.89 134.194Z" fill="white"/>
<path fill-rule="evenodd" clip-rule="evenodd" d="M1374.16 248.767L1432.3 215.212L1432.29 148.115L1374.14 114.573L1315.99 148.128L1316.01 215.231L1374.16 248.767Z" fill="white"/>
<path fill-rule="evenodd" clip-rule="evenodd" d="M1766.26 248.767L1824.4 215.212L1824.39 148.115L1766.24 114.573L1708.1 148.128L1708.11 215.231L1766.26 248.767Z" fill="white"/>
<path fill-rule="evenodd" clip-rule="evenodd" d="M3476.64 113.233L3418.5 146.788L3418.51 213.885L3476.66 247.427L3534.8 213.872L3534.79 146.769L3476.64 113.233Z" fill="white"/>
<path fill-rule="evenodd" clip-rule="evenodd" d="M3542.91 227.806L3484.76 261.361L3484.78 328.458L3542.92 362L3601.07 328.445L3601.06 261.342L3542.91 227.806Z" fill="white"/>
<path fill-rule="evenodd" clip-rule="evenodd" d="M3542.91 1.18197L3484.76 34.7368L3484.78 101.834L3542.92 135.376L3601.07 101.821L3601.06 34.7176L3542.91 1.18197Z" fill="white"/>
<path fill-rule="evenodd" clip-rule="evenodd" d="M3673.87 227.806L3615.73 261.361L3615.74 328.458L3673.89 362L3732.03 328.445L3732.02 261.342L3673.87 227.806Z" fill="white"/>
<path fill-rule="evenodd" clip-rule="evenodd" d="M3934.22 1.18197L3876.08 34.7368L3876.09 101.834L3934.24 135.376L3992.38 101.821L3992.37 34.7176L3934.22 1.18197Z" fill="white"/>
<path fill-rule="evenodd" clip-rule="evenodd" d="M4065.97 227.806L4007.83 261.361L4007.84 328.458L4065.99 362L4124.14 328.445L4124.12 261.342L4065.97 227.806Z" fill="white"/>
<path fill-rule="evenodd" clip-rule="evenodd" d="M3999.7 113.233L3941.56 146.788L3941.57 213.885L3999.72 247.427L4057.87 213.872L4057.85 146.769L3999.7 113.233Z" fill="white"/>
<path fill-rule="evenodd" clip-rule="evenodd" d="M3607.6 113.233L3549.46 146.788L3549.47 213.885L3607.62 247.427L3665.77 213.872L3665.75 146.769L3607.6 113.233Z" fill="white"/>
<path fill-rule="evenodd" clip-rule="evenodd" d="M3738.56 113.233L3680.42 146.788L3680.43 213.885L3738.58 247.427L3796.73 213.872L3796.72 146.769L3738.56 113.233Z" fill="white"/>
<path fill-rule="evenodd" clip-rule="evenodd" d="M3869.53 113.233L3811.38 146.788L3811.4 213.885L3869.54 247.427L3927.69 213.872L3927.68 146.769L3869.53 113.233Z" fill="white"/>
<path fill-rule="evenodd" clip-rule="evenodd" d="M4131.45 113.233L4073.31 146.788L4073.32 213.885L4131.47 247.427L4189.62 213.872L4189.6 146.769L4131.45 113.233Z" fill="white"/>
<path fill-rule="evenodd" clip-rule="evenodd" d="M4263.2 113.233L4205.06 146.788L4205.07 213.885L4263.22 247.427L4321.37 213.872L4321.36 146.769L4263.2 113.233Z" fill="white"/>
<path fill-rule="evenodd" clip-rule="evenodd" d="M4329.47 227.806L4271.33 261.361L4271.34 328.458L4329.49 362L4387.64 328.445L4387.63 261.342L4329.47 227.806Z" fill="white"/>
<path fill-rule="evenodd" clip-rule="evenodd" d="M4329.47 1.18197L4271.33 34.7368L4271.34 101.834L4329.49 135.376L4387.64 101.821L4387.63 34.7176L4329.47 1.18197Z" fill="white"/>
<path fill-rule="evenodd" clip-rule="evenodd" d="M3804.04 1.18197L3745.9 34.7368L3745.92 101.834L3804.06 135.376L3862.21 101.821L3862.2 34.7176L3804.04 1.18197Z" fill="white"/>
<path fill-rule="evenodd" clip-rule="evenodd" d="M4394.17 113.233L4336.02 146.788L4336.04 213.885L4394.19 247.427L4452.33 213.872L4452.32 146.769L4394.17 113.233Z" fill="white"/>
<path fill-rule="evenodd" clip-rule="evenodd" d="M1635.3 248.767L1693.44 215.212L1693.43 148.115L1635.28 114.573L1577.13 148.128L1577.15 215.231L1635.3 248.767Z" fill="white"/>
<path fill-rule="evenodd" clip-rule="evenodd" d="M1504.34 248.767L1562.48 215.212L1562.46 148.115L1504.32 114.573L1446.17 148.128L1446.18 215.231L1504.34 248.767Z" fill="white"/>
<path fill-rule="evenodd" clip-rule="evenodd" d="M2946.51 248.767L3004.65 215.212L3004.63 148.115L2946.49 114.573L2888.34 148.128L2888.35 215.231L2946.51 248.767Z" fill="white"/>
<path fill-rule="evenodd" clip-rule="evenodd" d="M2815.54 248.767L2873.68 215.212L2873.67 148.115L2815.52 114.573L2757.38 148.128L2757.39 215.231L2815.54 248.767Z" fill="white"/>
<path fill-rule="evenodd" clip-rule="evenodd" d="M1242.41 248.767L1300.55 215.212L1300.54 148.115L1242.39 114.573L1184.24 148.128L1184.26 215.231L1242.41 248.767Z" fill="white"/>
<path fill-rule="evenodd" clip-rule="evenodd" d="M847.919 248.767L789.778 215.212L789.791 148.115L847.938 114.573L906.085 148.128L906.072 215.231L847.919 248.767Z" fill="white"/>
<path fill-rule="evenodd" clip-rule="evenodd" d="M978.882 248.767L920.741 215.212L920.754 148.115L978.901 114.573L1037.05 148.128L1037.04 215.231L978.882 248.767Z" fill="white"/>
</g>
<path fill-rule="evenodd" clip-rule="evenodd" d="M62.1404 248.767L4 215.212L4.01282 148.115L62.1597 114.573L120.307 148.128L120.294 215.231L62.1404 248.767Z" stroke="#FAED5B" stroke-width="12" mask="url(#path-1-inside-1)"/>
<path fill-rule="evenodd" clip-rule="evenodd" d="M128.41 134.194L70.2695 100.639L70.2823 33.542L128.429 0L186.576 33.5548L186.563 100.658L128.41 134.194Z" stroke="#FAED5B" stroke-width="12" mask="url(#path-1-inside-1)"/>
<path fill-rule="evenodd" clip-rule="evenodd" d="M128.41 360.818L70.2695 327.263L70.2823 260.166L128.429 226.624L186.576 260.179L186.563 327.282L128.41 360.818Z" stroke="#FAED5B" stroke-width="12" mask="url(#path-1-inside-1)"/>
<path fill-rule="evenodd" clip-rule="evenodd" d="M258.585 360.818L200.445 327.263L200.457 260.166L258.604 226.624L316.751 260.179L316.738 327.282L258.585 360.818Z" stroke="#FAED5B" stroke-width="12" mask="url(#path-1-inside-1)"/>
<path fill-rule="evenodd" clip-rule="evenodd" d="M519.723 360.818L461.583 327.263L461.596 260.166L519.742 226.624L577.889 260.179L577.876 327.282L519.723 360.818Z" stroke="#FAED5B" stroke-width="12" mask="url(#path-1-inside-1)"/>
<path fill-rule="evenodd" clip-rule="evenodd" d="M651.474 134.194L593.334 100.639L593.347 33.542L651.494 0L709.64 33.5548L709.628 100.658L651.474 134.194Z" stroke="#FAED5B" stroke-width="12" mask="url(#path-1-inside-1)"/>
<path fill-rule="evenodd" clip-rule="evenodd" d="M1110.63 247.506L1052.49 213.951L1052.51 146.854L1110.65 113.312L1168.8 146.867L1168.79 213.97L1110.63 247.506Z" stroke="#FAED5B" stroke-width="12" mask="url(#path-1-inside-1)"/>
<path fill-rule="evenodd" clip-rule="evenodd" d="M585.205 248.767L527.064 215.212L527.077 148.115L585.224 114.573L643.371 148.128L643.358 215.231L585.205 248.767Z" stroke="#FAED5B" stroke-width="12" mask="url(#path-1-inside-1)"/>
<path fill-rule="evenodd" clip-rule="evenodd" d="M912.612 360.818L854.472 327.263L854.485 260.166L912.632 226.624L970.779 260.179L970.766 327.282L912.612 360.818Z" stroke="#FAED5B" stroke-width="12" mask="url(#path-1-inside-1)"/>
<path fill-rule="evenodd" clip-rule="evenodd" d="M193.104 248.767L134.963 215.212L134.976 148.115L193.123 114.573L251.27 148.128L251.257 215.231L193.104 248.767Z" stroke="#FAED5B" stroke-width="12" mask="url(#path-1-inside-1)"/>
<path fill-rule="evenodd" clip-rule="evenodd" d="M324.067 248.767L265.926 215.212L265.939 148.115L324.086 114.573L382.233 148.128L382.22 215.231L324.067 248.767Z" stroke="#FAED5B" stroke-width="12" mask="url(#path-1-inside-1)"/>
<path fill-rule="evenodd" clip-rule="evenodd" d="M455.03 248.767L396.889 215.212L396.902 148.115L455.049 114.573L513.196 148.128L513.183 215.231L455.03 248.767Z" stroke="#FAED5B" stroke-width="12" mask="url(#path-1-inside-1)"/>
<path fill-rule="evenodd" clip-rule="evenodd" d="M716.956 248.767L658.815 215.212L658.828 148.115L716.975 114.573L775.122 148.128L775.109 215.231L716.956 248.767Z" stroke="#FAED5B" stroke-width="12" mask="url(#path-1-inside-1)"/>
<path fill-rule="evenodd" clip-rule="evenodd" d="M2683.79 248.767L2741.93 215.212L2741.92 148.115L2683.77 114.573L2625.63 148.128L2625.64 215.231L2683.79 248.767Z" stroke="#FAED5B" stroke-width="12" mask="url(#path-1-inside-1)"/>
<path fill-rule="evenodd" clip-rule="evenodd" d="M3342.55 248.767L3400.69 215.212L3400.67 148.115L3342.53 114.573L3284.38 148.128L3284.39 215.231L3342.55 248.767Z" stroke="#FAED5B" stroke-width="12" mask="url(#path-1-inside-1)"/>
<path fill-rule="evenodd" clip-rule="evenodd" d="M2617.52 134.194L2675.66 100.639L2675.65 33.542L2617.5 0L2559.36 33.5548L2559.37 100.658L2617.52 134.194Z" stroke="#FAED5B" stroke-width="12" mask="url(#path-1-inside-1)"/>
<path fill-rule="evenodd" clip-rule="evenodd" d="M3145.31 360.818L3203.45 327.263L3203.44 260.166L3145.3 226.624L3087.15 260.179L3087.16 327.282L3145.31 360.818Z" stroke="#FAED5B" stroke-width="12" mask="url(#path-1-inside-1)"/>
<path fill-rule="evenodd" clip-rule="evenodd" d="M3145.31 134.194L3203.45 100.639L3203.44 33.542L3145.3 0L3087.15 33.5548L3087.16 100.658L3145.31 134.194Z" stroke="#FAED5B" stroke-width="12" mask="url(#path-1-inside-1)"/>
<path fill-rule="evenodd" clip-rule="evenodd" d="M3211.58 248.767L3269.72 215.212L3269.71 148.115L3211.56 114.573L3153.42 148.128L3153.43 215.231L3211.58 248.767Z" stroke="#FAED5B" stroke-width="12" mask="url(#path-1-inside-1)"/>
<path fill-rule="evenodd" clip-rule="evenodd" d="M2617.52 360.818L2675.66 327.263L2675.65 260.166L2617.5 226.624L2559.36 260.179L2559.37 327.282L2617.52 360.818Z" stroke="#FAED5B" stroke-width="12" mask="url(#path-1-inside-1)"/>
<path fill-rule="evenodd" clip-rule="evenodd" d="M3013.56 134.194L3071.7 100.639L3071.69 33.542L3013.54 0L2955.4 33.5548L2955.41 100.658L3013.56 134.194Z" stroke="#FAED5B" stroke-width="12" mask="url(#path-1-inside-1)"/>
<path fill-rule="evenodd" clip-rule="evenodd" d="M2486.56 134.194L2544.7 100.639L2544.69 33.542L2486.54 0L2428.39 33.5548L2428.41 100.658L2486.56 134.194Z" stroke="#FAED5B" stroke-width="12" mask="url(#path-1-inside-1)"/>
<path fill-rule="evenodd" clip-rule="evenodd" d="M3078.26 248.767L3136.4 215.212L3136.38 148.115L3078.24 114.573L3020.09 148.128L3020.1 215.231L3078.26 248.767Z" stroke="#FAED5B" stroke-width="12" mask="url(#path-1-inside-1)"/>
<path fill-rule="evenodd" clip-rule="evenodd" d="M3013.56 360.818L3071.7 327.263L3071.69 260.166L3013.54 226.624L2955.4 260.179L2955.41 327.282L3013.56 360.818Z" stroke="#FAED5B" stroke-width="12" mask="url(#path-1-inside-1)"/>
<path fill-rule="evenodd" clip-rule="evenodd" d="M2226.21 360.818L2284.35 327.263L2284.34 260.166L2226.19 226.624L2168.04 260.179L2168.06 327.282L2226.21 360.818Z" stroke="#FAED5B" stroke-width="12" mask="url(#path-1-inside-1)"/>
<path fill-rule="evenodd" clip-rule="evenodd" d="M2094.46 134.194L2152.6 100.639L2152.59 33.542L2094.44 0L2036.29 33.5548L2036.3 100.658L2094.46 134.194Z" stroke="#FAED5B" stroke-width="12" mask="url(#path-1-inside-1)"/>
<path fill-rule="evenodd" clip-rule="evenodd" d="M2160.73 248.767L2218.87 215.212L2218.85 148.115L2160.71 114.573L2102.56 148.128L2102.57 215.231L2160.73 248.767Z" stroke="#FAED5B" stroke-width="12" mask="url(#path-1-inside-1)"/>
<path fill-rule="evenodd" clip-rule="evenodd" d="M2552.83 248.767L2610.97 215.212L2610.96 148.115L2552.81 114.573L2494.66 148.128L2494.68 215.231L2552.83 248.767Z" stroke="#FAED5B" stroke-width="12" mask="url(#path-1-inside-1)"/>
<path fill-rule="evenodd" clip-rule="evenodd" d="M2421.86 248.767L2480.01 215.212L2479.99 148.115L2421.85 114.573L2363.7 148.128L2363.71 215.231L2421.86 248.767Z" stroke="#FAED5B" stroke-width="12" mask="url(#path-1-inside-1)"/>
<path fill-rule="evenodd" clip-rule="evenodd" d="M2290.9 248.767L2349.04 215.212L2349.03 148.115L2290.88 114.573L2232.74 148.128L2232.75 215.231L2290.9 248.767Z" stroke="#FAED5B" stroke-width="12" mask="url(#path-1-inside-1)"/>
<path fill-rule="evenodd" clip-rule="evenodd" d="M2028.98 248.767L2087.12 215.212L2087.1 148.115L2028.96 114.573L1970.81 148.128L1970.82 215.231L2028.98 248.767Z" stroke="#FAED5B" stroke-width="12" mask="url(#path-1-inside-1)"/>
<path fill-rule="evenodd" clip-rule="evenodd" d="M1897.22 248.767L1955.37 215.212L1955.35 148.115L1897.21 114.573L1839.06 148.128L1839.07 215.231L1897.22 248.767Z" stroke="#FAED5B" stroke-width="12" mask="url(#path-1-inside-1)"/>
<path fill-rule="evenodd" clip-rule="evenodd" d="M1830.96 134.194L1889.1 100.639L1889.08 33.542L1830.94 0L1772.79 33.5548L1772.8 100.658L1830.96 134.194Z" stroke="#FAED5B" stroke-width="12" mask="url(#path-1-inside-1)"/>
<path fill-rule="evenodd" clip-rule="evenodd" d="M1830.96 360.818L1889.1 327.263L1889.08 260.166L1830.94 226.624L1772.79 260.179L1772.8 327.282L1830.96 360.818Z" stroke="#FAED5B" stroke-width="12" mask="url(#path-1-inside-1)"/>
<path fill-rule="evenodd" clip-rule="evenodd" d="M2356.38 360.818L2414.52 327.263L2414.51 260.166L2356.36 226.624L2298.22 260.179L2298.23 327.282L2356.38 360.818Z" stroke="#FAED5B" stroke-width="12" mask="url(#path-1-inside-1)"/>
<path fill-rule="evenodd" clip-rule="evenodd" d="M1307.5 360.818L1365.64 327.263L1365.62 260.166L1307.48 226.624L1249.33 260.179L1249.34 327.282L1307.5 360.818Z" stroke="#FAED5B" stroke-width="12" mask="url(#path-1-inside-1)"/>
<path fill-rule="evenodd" clip-rule="evenodd" d="M1307.89 134.194L1366.03 100.639L1366.02 33.542L1307.87 0L1249.73 33.5548L1249.74 100.658L1307.89 134.194Z" stroke="#FAED5B" stroke-width="12" mask="url(#path-1-inside-1)"/>
<path fill-rule="evenodd" clip-rule="evenodd" d="M1374.16 248.767L1432.3 215.212L1432.29 148.115L1374.14 114.573L1315.99 148.128L1316.01 215.231L1374.16 248.767Z" stroke="#FAED5B" stroke-width="12" mask="url(#path-1-inside-1)"/>
<path fill-rule="evenodd" clip-rule="evenodd" d="M1766.26 248.767L1824.4 215.212L1824.39 148.115L1766.24 114.573L1708.1 148.128L1708.11 215.231L1766.26 248.767Z" stroke="#FAED5B" stroke-width="12" mask="url(#path-1-inside-1)"/>
<path fill-rule="evenodd" clip-rule="evenodd" d="M3476.64 113.233L3418.5 146.788L3418.51 213.885L3476.66 247.427L3534.8 213.872L3534.79 146.769L3476.64 113.233Z" stroke="#FAED5B" stroke-width="12" mask="url(#path-1-inside-1)"/>
<path fill-rule="evenodd" clip-rule="evenodd" d="M3542.91 227.806L3484.76 261.361L3484.78 328.458L3542.92 362L3601.07 328.445L3601.06 261.342L3542.91 227.806Z" stroke="#FAED5B" stroke-width="12" mask="url(#path-1-inside-1)"/>
<path fill-rule="evenodd" clip-rule="evenodd" d="M3542.91 1.18197L3484.76 34.7368L3484.78 101.834L3542.92 135.376L3601.07 101.821L3601.06 34.7176L3542.91 1.18197Z" stroke="#FAED5B" stroke-width="12" mask="url(#path-1-inside-1)"/>
<path fill-rule="evenodd" clip-rule="evenodd" d="M3673.87 227.806L3615.73 261.361L3615.74 328.458L3673.89 362L3732.03 328.445L3732.02 261.342L3673.87 227.806Z" stroke="#FAED5B" stroke-width="12" mask="url(#path-1-inside-1)"/>
<path fill-rule="evenodd" clip-rule="evenodd" d="M3934.22 1.18197L3876.08 34.7368L3876.09 101.834L3934.24 135.376L3992.38 101.821L3992.37 34.7176L3934.22 1.18197Z" stroke="#FAED5B" stroke-width="12" mask="url(#path-1-inside-1)"/>
<path fill-rule="evenodd" clip-rule="evenodd" d="M4065.97 227.806L4007.83 261.361L4007.84 328.458L4065.99 362L4124.14 328.445L4124.12 261.342L4065.97 227.806Z" stroke="#FAED5B" stroke-width="12" mask="url(#path-1-inside-1)"/>
<path fill-rule="evenodd" clip-rule="evenodd" d="M3999.7 113.233L3941.56 146.788L3941.57 213.885L3999.72 247.427L4057.87 213.872L4057.85 146.769L3999.7 113.233Z" stroke="#FAED5B" stroke-width="12" mask="url(#path-1-inside-1)"/>
<path fill-rule="evenodd" clip-rule="evenodd" d="M3607.6 113.233L3549.46 146.788L3549.47 213.885L3607.62 247.427L3665.77 213.872L3665.75 146.769L3607.6 113.233Z" stroke="#FAED5B" stroke-width="12" mask="url(#path-1-inside-1)"/>
<path fill-rule="evenodd" clip-rule="evenodd" d="M3738.56 113.233L3680.42 146.788L3680.43 213.885L3738.58 247.427L3796.73 213.872L3796.72 146.769L3738.56 113.233Z" stroke="#FAED5B" stroke-width="12" mask="url(#path-1-inside-1)"/>
<path fill-rule="evenodd" clip-rule="evenodd" d="M3869.53 113.233L3811.38 146.788L3811.4 213.885L3869.54 247.427L3927.69 213.872L3927.68 146.769L3869.53 113.233Z" stroke="#FAED5B" stroke-width="12" mask="url(#path-1-inside-1)"/>
<path fill-rule="evenodd" clip-rule="evenodd" d="M4131.45 113.233L4073.31 146.788L4073.32 213.885L4131.47 247.427L4189.62 213.872L4189.6 146.769L4131.45 113.233Z" stroke="#FAED5B" stroke-width="12" mask="url(#path-1-inside-1)"/>
<path fill-rule="evenodd" clip-rule="evenodd" d="M4263.2 113.233L4205.06 146.788L4205.07 213.885L4263.22 247.427L4321.37 213.872L4321.36 146.769L4263.2 113.233Z" stroke="#FAED5B" stroke-width="12" mask="url(#path-1-inside-1)"/>
<path fill-rule="evenodd" clip-rule="evenodd" d="M4329.47 227.806L4271.33 261.361L4271.34 328.458L4329.49 362L4387.64 328.445L4387.63 261.342L4329.47 227.806Z" stroke="#FAED5B" stroke-width="12" mask="url(#path-1-inside-1)"/>
<path fill-rule="evenodd" clip-rule="evenodd" d="M4329.47 1.18197L4271.33 34.7368L4271.34 101.834L4329.49 135.376L4387.64 101.821L4387.63 34.7176L4329.47 1.18197Z" stroke="#FAED5B" stroke-width="12" mask="url(#path-1-inside-1)"/>
<path fill-rule="evenodd" clip-rule="evenodd" d="M3804.04 1.18197L3745.9 34.7368L3745.92 101.834L3804.06 135.376L3862.21 101.821L3862.2 34.7176L3804.04 1.18197Z" stroke="#FAED5B" stroke-width="12" mask="url(#path-1-inside-1)"/>
<path fill-rule="evenodd" clip-rule="evenodd" d="M4394.17 113.233L4336.02 146.788L4336.04 213.885L4394.19 247.427L4452.33 213.872L4452.32 146.769L4394.17 113.233Z" stroke="#FAED5B" stroke-width="12" mask="url(#path-1-inside-1)"/>
<path fill-rule="evenodd" clip-rule="evenodd" d="M1635.3 248.767L1693.44 215.212L1693.43 148.115L1635.28 114.573L1577.13 148.128L1577.15 215.231L1635.3 248.767Z" stroke="#FAED5B" stroke-width="12" mask="url(#path-1-inside-1)"/>
<path fill-rule="evenodd" clip-rule="evenodd" d="M1504.34 248.767L1562.48 215.212L1562.46 148.115L1504.32 114.573L1446.17 148.128L1446.18 215.231L1504.34 248.767Z" stroke="#FAED5B" stroke-width="12" mask="url(#path-1-inside-1)"/>
<path fill-rule="evenodd" clip-rule="evenodd" d="M2946.51 248.767L3004.65 215.212L3004.63 148.115L2946.49 114.573L2888.34 148.128L2888.35 215.231L2946.51 248.767Z" stroke="#FAED5B" stroke-width="12" mask="url(#path-1-inside-1)"/>
<path fill-rule="evenodd" clip-rule="evenodd" d="M2815.54 248.767L2873.68 215.212L2873.67 148.115L2815.52 114.573L2757.38 148.128L2757.39 215.231L2815.54 248.767Z" stroke="#FAED5B" stroke-width="12" mask="url(#path-1-inside-1)"/>
<path fill-rule="evenodd" clip-rule="evenodd" d="M1242.41 248.767L1300.55 215.212L1300.54 148.115L1242.39 114.573L1184.24 148.128L1184.26 215.231L1242.41 248.767Z" stroke="#FAED5B" stroke-width="12" mask="url(#path-1-inside-1)"/>
<path fill-rule="evenodd" clip-rule="evenodd" d="M847.919 248.767L789.778 215.212L789.791 148.115L847.938 114.573L906.085 148.128L906.072 215.231L847.919 248.767Z" stroke="#FAED5B" stroke-width="12" mask="url(#path-1-inside-1)"/>
<path fill-rule="evenodd" clip-rule="evenodd" d="M978.882 248.767L920.741 215.212L920.754 148.115L978.901 114.573L1037.05 148.128L1037.04 215.231L978.882 248.767Z" stroke="#FAED5B" stroke-width="12" mask="url(#path-1-inside-1)"/>
</g>
<defs>
<filter id="filter0_d" x="0" y="0" width="4456.33" height="370" filterUnits="userSpaceOnUse" color-interpolation-filters="sRGB">
<feFlood flood-opacity="0" result="BackgroundImageFix"/>
<feColorMatrix in="SourceAlpha" type="matrix" values="0 0 0 0 0 0 0 0 0 0 0 0 0 0 0 0 0 0 127 0"/>
<feOffset dy="4"/>
<feGaussianBlur stdDeviation="2"/>
<feColorMatrix type="matrix" values="0 0 0 0 0 0 0 0 0 0 0 0 0 0 0 0 0 0 0.25 0"/>
<feBlend mode="normal" in2="BackgroundImageFix" result="effect1_dropShadow"/>
<feBlend mode="normal" in="SourceGraphic" in2="effect1_dropShadow" result="shape"/>
</filter>
<filter id="filter1_i" x="4" y="0" width="4448.33" height="366" filterUnits="userSpaceOnUse" color-interpolation-filters="sRGB">
<feFlood flood-opacity="0" result="BackgroundImageFix"/>
<feBlend mode="normal" in="SourceGraphic" in2="BackgroundImageFix" result="shape"/>
<feColorMatrix in="SourceAlpha" type="matrix" values="0 0 0 0 0 0 0 0 0 0 0 0 0 0 0 0 0 0 127 0" result="hardAlpha"/>
<feOffset dy="4"/>
<feGaussianBlur stdDeviation="2"/>
<feComposite in2="hardAlpha" operator="arithmetic" k2="-1" k3="1"/>
<feColorMatrix type="matrix" values="0 0 0 0 0 0 0 0 0 0 0 0 0 0 0 0 0 0 0.25 0"/>
<feBlend mode="normal" in2="shape" result="effect1_innerShadow"/>
</filter>
</defs>
</svg>
