<svg width="399" height="99" viewBox="0 0 399 99" fill="none" xmlns="http://www.w3.org/2000/svg">
<path fill-rule="evenodd" clip-rule="evenodd" d="M42.4913 94.0974L3.49551 71.5777L3.50411 26.547L42.5043 4.03577L81.5045 26.5555L81.4959 71.5905L42.4913 94.0974ZM84.9906 73.6092L42.4906 98.1331L0 73.5951L0.00937155 24.5286L42.5047 0L85 24.538L84.9906 73.6092Z" fill="black"/>
<path fill-rule="evenodd" clip-rule="evenodd" d="M42.527 32.9672C42.3627 32.9581 46.4893 34.4002 47.5028 34.7641C48.014 35.6012 48.5207 36.4428 49.032 37.2798C48.2468 37.7347 47.4662 38.1942 46.6811 38.6491C46.6765 39.3861 46.3113 41.3559 46.7176 41.6607C47.6169 42.616 48.5162 43.5668 49.4109 44.5222C49.5433 44.6586 50.2919 45.3956 50.2508 45.4821C50.3969 45.2864 48.571 47.6156 47.9866 48.3754C48.0734 48.4254 49.6802 49.5718 50.4745 50.1041C50.9356 51.1094 51.4012 52.1148 51.8668 53.1156C48.7718 53.4705 45.6768 53.8253 42.5818 54.1756C39.4274 53.7753 33.3378 52.9792 33.4519 52.9928C33.4519 52.9746 33.4519 52.9564 33.4519 52.9428C33.776 52.0466 34.1047 51.1504 34.4288 50.2542C36.5059 48.9577 36.9669 48.6893 37.0537 48.5573C35.8622 46.9287 34.8944 45.6049 34.8899 45.5958C36.2091 44.2128 37.533 42.8344 38.8522 41.4515C38.7199 39.6955 38.6468 38.6628 38.6286 38.6446C37.7704 38.1305 36.9121 37.6165 36.0539 37.1024C36.5515 36.3472 37.0491 35.5966 37.5467 34.8414C39.2083 34.2227 40.8654 33.595 42.527 32.9672Z" fill="black"/>
<path fill-rule="evenodd" clip-rule="evenodd" d="M13.2782 33.504C16.8242 33.7268 20.3701 33.9495 23.9161 34.1722C25.2121 34.5767 26.5128 34.9812 27.8088 35.3858C29.3559 35.7267 37.8397 38.8447 37.9994 39.0992C38.0223 39.8674 38.0451 40.6401 38.0679 41.4082C36.5254 42.8945 34.9783 44.3853 33.4358 45.8716C30.8984 47.2988 28.3565 48.7215 25.8191 50.1487C25.8921 50.0987 17.3536 47.0579 15.1813 46.2807C13.4334 43.3036 11.681 40.3264 9.93309 37.3493C11.0466 36.0676 12.1647 34.7858 13.2782 33.504Z" fill="black"/>
<path fill-rule="evenodd" clip-rule="evenodd" d="M71.4936 33.504C71.5849 33.504 71.6763 33.504 71.7676 33.504C72.8821 34.7768 74.0012 36.0495 75.1156 37.3177C73.3663 40.3041 71.6123 43.295 69.863 46.2813C66.3186 47.5541 62.7742 48.8268 59.2344 50.095C56.4985 48.4086 53.7625 46.7177 51.0266 45.0313C50.3415 44.3632 49.6518 43.695 48.9667 43.0313C48.3957 42.4859 47.8202 41.9359 47.2493 41.3904C47.2767 40.6268 47.3087 39.8631 47.3361 39.0995C47.6695 38.7041 53.114 36.8631 57.7271 35.2313C58.8599 34.8768 59.9926 34.5222 61.1254 34.1722C61.6506 34.1359 65.0032 33.9177 71.4936 33.504Z" fill="black"/>
<path fill-rule="evenodd" clip-rule="evenodd" d="M43.0408 29.5308C43.3508 29.5308 43.6563 29.5308 43.9663 29.5308C45.0057 30.3416 45.9951 30.9462 47.0345 31.757C46.9752 32.3617 46.9707 33.1724 46.916 33.7725C46.9114 33.7725 46.9023 33.7725 46.8977 33.7725C45.8674 33.3969 44.8416 33.0259 43.8113 32.6502C43.1867 32.4075 42.6806 32.2105 42.6305 32.2197C41.1716 32.7373 39.6808 33.2549 38.2264 33.7725C38.2219 33.7679 38.2128 33.7588 38.2082 33.7542C38.1809 33.1037 38.1489 32.4533 38.1216 31.8074C39.1063 31.0653 40.0865 30.3233 41.0713 29.5812C41.7871 29.54 42.3797 29.5491 43.0408 29.5308Z" fill="black"/>
<path fill-rule="evenodd" clip-rule="evenodd" d="M43.0408 29.5308C43.3508 29.5308 43.6563 29.5308 43.9663 29.5308C45.0057 30.3416 45.9951 30.9462 47.0345 31.757C46.9752 32.3617 46.9707 33.1724 46.916 33.7725C46.9114 33.7725 46.9023 33.7725 46.8977 33.7725C45.8674 33.3969 44.8416 33.0259 43.8113 32.6502C43.1867 32.4075 42.6806 32.2105 42.6305 32.2197C41.1716 32.7373 39.6808 33.2549 38.2264 33.7725C38.2219 33.7679 38.2128 33.7588 38.2082 33.7542C38.1809 33.1037 38.1489 32.4533 38.1216 31.8074C39.1063 31.0653 40.0865 30.3233 41.0713 29.5812C41.7871 29.54 42.3797 29.5491 43.0408 29.5308Z" fill="black"/>
<path fill-rule="evenodd" clip-rule="evenodd" d="M52.1837 54.2875C52.471 55.5609 52.7538 56.8343 53.0411 58.1077C53.0958 58.4113 52.8131 59.1545 52.731 59.44C52.4756 60.4959 52.2156 61.5563 51.9602 62.6122C48.9274 63.02 45.8901 63.4324 42.8573 63.8402C39.7196 63.5004 36.582 63.156 33.4443 62.8161C32.9973 61.2889 32.5504 59.7572 32.108 58.2255C32.5687 56.9113 32.7679 55.6017 33.2331 54.2875C35.2853 54.6954 37.6902 55.1032 39.7424 55.5111C40.3855 55.6606 41.0331 55.7422 41.7126 55.8872C41.9361 55.9325 42.2462 56.0549 42.5198 56.005C44.6633 55.6289 46.8068 55.2528 48.9502 54.8812C50.0265 54.6863 51.1074 54.4869 52.1837 54.2875Z" fill="black"/>
<path fill-rule="evenodd" clip-rule="evenodd" d="M51.6911 63.6792C51.7138 63.6792 51.7366 63.6792 51.7594 63.6792C51.7594 63.6837 51.7594 63.6928 51.7594 63.6974C50.8932 65.2219 50.0223 66.7465 49.156 68.2711C48.6909 68.526 48.2304 68.7854 47.7654 69.0402C47.0131 69.468 46.2562 69.8958 45.5039 70.3236C44.9841 70.3418 44.4644 70.36 43.9446 70.3737C43.4795 71.5933 43.019 72.8176 42.554 74.0418C42.5494 74.0418 42.5403 74.0418 42.5357 74.0418C42.098 72.8494 41.6558 71.6571 41.218 70.4602C40.8305 70.4738 40.4429 70.4829 40.0508 70.4966C39.1435 70.0232 38.2316 69.5499 37.3243 69.0766C36.8364 68.8309 36.3531 68.5851 35.8653 68.3394C35.1677 66.8831 34.4701 65.4267 33.7725 63.9704C33.7725 63.9659 33.7725 63.9568 33.7725 63.9522C34.6844 64.1297 35.6008 64.3072 36.5173 64.4847C38.5097 64.8488 40.5068 65.2174 42.4992 65.5815C42.7227 65.6224 46.2152 64.8533 51.6911 63.6792Z" fill="black"/>
<path d="M112.4 32.5416C113.386 32.5416 114.503 33.0113 115.092 33.8978L136.082 60.9381L136.11 60.984L136.111 60.986C136.115 60.9893 136.12 60.9933 136.126 60.9968C136.137 61.0036 136.145 61.0043 136.148 61.0043C136.343 61.0043 136.422 60.8703 136.422 60.7839V34.2364C136.422 33.3394 137.114 32.648 138.011 32.648C138.909 32.648 139.601 33.3394 139.601 34.2364V60.7839C139.601 62.6386 138.057 64.1812 136.201 64.1812C135.215 64.1812 134.098 63.7114 133.509 62.825L112.559 35.8359C112.5 35.7625 112.461 35.7307 112.443 35.7186C112.256 35.7233 112.18 35.8541 112.18 35.9389V62.4863C112.18 63.3834 111.488 64.0748 110.59 64.0748C109.692 64.0748 109 63.3834 109 62.4863V35.9389C109 33.8585 110.719 32.5416 112.4 32.5416Z" fill="black"/>
<path d="M148.683 45.9939C148.683 38.7179 154.747 32.5416 162.146 32.5416H172.636C173.54 32.5416 174.332 33.2408 174.332 34.1832C174.332 35.1335 173.587 35.8781 172.636 35.8781H162.146C156.602 35.8781 152.022 40.4537 152.022 45.9939V46.6931H170.772C171.67 46.6931 172.415 47.4377 172.415 48.3348C172.415 49.2386 171.716 50.0296 170.772 50.0296H152.022V50.7288C152.022 56.2691 156.602 60.8447 162.146 60.8447H172.636C173.587 60.8447 174.332 61.5892 174.332 62.5395C174.332 63.482 173.54 64.1812 172.636 64.1812H162.146C154.806 64.1812 148.683 58.0633 148.683 50.7288V45.9939Z" fill="black"/>
<path d="M182.334 45.9939C182.334 38.6595 188.457 32.5416 195.798 32.5416H206.287C207.192 32.5416 207.983 33.2408 207.983 34.1832C207.983 35.1335 207.238 35.8781 206.287 35.8781H195.798C190.253 35.8781 185.673 40.4537 185.673 45.9939V50.7288C185.673 56.2691 190.253 60.8447 195.798 60.8447H206.287C207.238 60.8447 207.983 61.5892 207.983 62.5395C207.983 63.482 207.192 64.1812 206.287 64.1812H195.798C188.401 64.1812 182.334 58.0607 182.334 50.7288V45.9939Z" fill="black"/>
<path d="M242.174 35.8781H231.571V62.5395C231.571 63.4366 230.826 64.1812 229.928 64.1812C229.023 64.1812 228.232 63.482 228.232 62.5395V35.8781H217.628C216.685 35.8781 215.985 35.087 215.985 34.1832C215.985 33.2862 216.73 32.5416 217.628 32.5416H242.174C243.072 32.5416 243.817 33.2862 243.817 34.1832C243.817 35.087 243.118 35.8781 242.174 35.8781Z" fill="black"/>
<path d="M260.679 33.3928H260.729L260.977 33.5698C261.871 34.2082 262.562 35.0928 262.999 36.0901L263.002 36.0974L273.888 62.1363V62.5395C273.888 63.3345 273.292 64.1812 272.298 64.1812C272.05 64.1812 271.733 64.1333 271.438 63.9438C271.149 63.7586 270.952 63.4818 270.861 63.1592L260.018 37.296L260.01 37.2744C259.86 36.8639 259.558 36.4564 259.168 36.2084L259.08 36.1524L259.032 36.1046C258.614 35.8586 258.128 35.7185 257.602 35.7185C257.319 35.7185 256.954 35.793 256.605 35.924L256.342 36.0224L256.176 36.1328C255.699 36.483 255.359 36.8831 255.178 37.3151L244.375 63.2116L244.371 63.2196C244.249 63.5218 244.041 63.7835 243.748 63.9593C243.463 64.1301 243.162 64.1812 242.906 64.1812C242.113 64.1812 241.316 63.5403 241.316 62.5927L241.316 62.5833C241.316 62.5394 241.316 62.4255 241.336 62.3036C241.359 62.1632 241.403 62.0428 241.453 61.9363L252.25 36.1092L252.251 36.1072C252.678 35.0729 253.355 34.188 254.34 33.5449L254.457 33.4288L254.557 33.3686C255.515 32.7942 256.539 32.5416 257.602 32.5416C258.668 32.5416 259.748 32.8201 260.679 33.3928Z" fill="black"/>
<path d="M317.885 37.8465V45.2263H331.984V50.3868H317.885V59.0206H333.741V64.1812H312.469V32.686H332.988V37.8465H317.885Z" fill="black"/>
<path d="M362.533 41.0594L361.972 40.3062C361.173 39.2328 360.198 38.4472 359.042 37.9311L359.035 37.9277L359.027 37.9241C357.84 37.369 356.611 37.0941 355.33 37.0941C353.819 37.0941 352.442 37.4 351.185 38.0023C349.932 38.6158 348.849 39.444 347.928 40.4912L347.925 40.4956L347.921 40.4999C347.003 41.5192 346.282 42.7235 345.763 44.1236L345.761 44.1291C345.244 45.4963 344.985 46.9291 344.985 48.4336C344.985 50.0564 345.247 51.5593 345.762 52.95C346.28 54.3221 346.988 55.5141 347.879 56.5349C348.796 57.5244 349.877 58.3123 351.129 58.9001C352.387 59.4778 353.783 59.7731 355.33 59.7731C357.016 59.7731 358.485 59.4504 359.758 58.8283C361.048 58.1702 362.182 57.2311 363.161 55.9951L363.769 55.2277L367.842 58.6516L367.303 59.3703C365.875 61.2731 364.132 62.6908 362.076 63.5976C360.067 64.4956 357.813 64.9336 355.33 64.9336C353.091 64.9336 350.983 64.5207 349.018 63.6877C347.069 62.8615 345.362 61.721 343.906 60.2662L343.899 60.2594L343.892 60.2524C342.466 58.7681 341.343 57.0218 340.52 55.0237L340.517 55.0181L340.515 55.0125C339.713 52.9946 339.318 50.798 339.318 48.4336C339.318 46.1523 339.699 44.0022 340.469 41.9914L340.471 41.9857L340.473 41.9801C341.269 39.9773 342.38 38.2271 343.809 36.7402C345.237 35.2534 346.931 34.0823 348.882 33.2261C350.854 32.3601 353.008 31.9336 355.33 31.9336C357.455 31.9336 359.498 32.3174 361.451 33.086C363.487 33.8761 365.188 35.1697 366.545 36.9474L367.136 37.7208L362.533 41.0594Z" fill="black"/>
<path d="M379.672 45.2263H393.584V32.686H399V64.1812H393.584V50.3868H379.672V64.1812H374.256V32.686H379.672V45.2263Z" fill="black"/>
<path d="M306.455 37.8465H296.665V64.1812H291.249V37.8465H281.459V32.686H306.455V37.8465Z" fill="black"/>
<path d="M267.891 56.068H247.353L248.68 52.8379H266.559L267.891 56.068Z" fill="black"/>
</svg>
