<svg  viewBox="0 0 321 68" fill="none" xmlns="http://www.w3.org/2000/svg">
<circle cx="34.9167" cy="34" r="34" fill="#0F4C81"/>
<path d="M20.0299 23.7491C20.0299 20.904 22.3363 18.5976 25.1814 18.5976C28.0265 18.5976 30.3329 20.904 30.3329 23.7491C30.3329 25.3414 29.6105 26.7649 28.4756 27.7099L32.2587 35.2432C33.0693 34.8752 33.9696 34.6703 34.9178 34.6703C36.3778 34.6703 37.7244 35.1562 38.8046 35.9752L52.0118 23.7045C51.6897 23.1405 51.5057 22.4875 51.5057 21.7915C51.5057 19.6577 53.2355 17.9279 55.3693 17.9279C57.5031 17.9279 59.233 19.6577 59.233 21.7915C59.233 23.9253 57.5031 25.6551 55.3693 25.6551C54.5848 25.6551 53.8548 25.4213 53.2454 25.0195L40.0763 37.2547C40.8807 38.3295 41.3572 39.6639 41.3572 41.1097C41.3572 42.3071 41.0304 43.4281 40.4611 44.3885L49.548 50.4695C49.9269 50.2503 50.3668 50.1248 50.836 50.1248C52.2585 50.1248 53.4117 51.2781 53.4117 52.7006C53.4117 54.1232 52.2585 55.2764 50.836 55.2764C49.4134 55.2764 48.2602 54.1232 48.2602 52.7006C48.2602 52.4096 48.3085 52.1299 48.3974 51.869L39.3293 45.8006C38.1769 46.8848 36.6249 47.5491 34.9178 47.5491C31.3614 47.5491 28.4784 44.6661 28.4784 41.1097C28.4784 39.1521 29.3519 37.3986 30.7304 36.2175L26.9072 28.6044C26.3677 28.7962 25.7867 28.9006 25.1814 28.9006C24.1773 28.9006 23.2403 28.6133 22.448 28.1164L14.864 35.9107C15.2006 36.4839 15.3935 37.1515 15.3935 37.8642C15.3935 39.9981 13.6637 41.7279 11.5299 41.7279C9.39607 41.7279 7.66626 39.9981 7.66626 37.8642C7.66626 35.7304 9.39607 34.0006 11.5299 34.0006C12.2973 34.0006 13.0125 34.2243 13.6138 34.6102L21.1102 26.9059C20.4331 26.0339 20.0299 24.9386 20.0299 23.7491Z" fill="white"/>
<path d="M114.017 49.0987H111.523L94.5516 23.8328V49.0987H92.0374V19.5745H94.5516L111.543 44.8607V19.5745H114.017V49.0987Z" fill="#0F4C81"/>
<path d="M131.524 49.5043C129.658 49.5043 127.968 49.0446 126.454 48.1254C124.954 47.2061 123.785 45.9286 122.947 44.2929C122.109 42.6437 121.689 40.7984 121.689 38.7571V37.8852C121.689 35.7763 122.095 33.877 122.906 32.1872C123.731 30.4974 124.873 29.1726 126.333 28.2128C127.793 27.2394 129.374 26.7528 131.077 26.7528C133.74 26.7528 135.849 27.6653 137.404 29.4902C138.972 31.3017 139.756 33.7823 139.756 36.9321V38.2907H124.102V38.7571C124.102 41.2445 124.812 43.3196 126.231 44.9824C127.664 46.6316 129.462 47.4562 131.625 47.4562C132.923 47.4562 134.065 47.2197 135.052 46.7465C136.052 46.2734 136.958 45.5163 137.769 44.4754L139.289 45.6312C137.505 48.2133 134.916 49.5043 131.524 49.5043ZM131.077 28.8211C129.253 28.8211 127.712 29.4902 126.454 30.8286C125.211 32.1669 124.454 33.9648 124.183 36.2224H137.343V35.9588C137.275 33.8499 136.674 32.1331 135.538 30.8083C134.403 29.4835 132.916 28.8211 131.077 28.8211Z" fill="#0F4C81"/>
<path d="M154.667 47.4562C156.357 47.4562 157.769 46.9831 158.905 46.0368C160.054 45.077 160.675 43.84 160.77 42.326H163.102C163.034 43.6643 162.615 44.8877 161.845 45.9962C161.074 47.0912 160.047 47.9496 158.763 48.5715C157.492 49.1933 156.127 49.5043 154.667 49.5043C151.788 49.5043 149.503 48.5039 147.814 46.5032C146.137 44.5025 145.299 41.8123 145.299 38.4327V37.7027C145.299 35.5397 145.678 33.6269 146.435 31.9641C147.192 30.3013 148.273 29.0171 149.679 28.1114C151.098 27.2056 152.754 26.7528 154.647 26.7528C157.053 26.7528 159.033 27.4692 160.588 28.9022C162.156 30.3351 162.994 32.221 163.102 34.5597H160.77C160.662 32.8428 160.04 31.4572 158.905 30.4027C157.783 29.3483 156.363 28.8211 154.647 28.8211C152.457 28.8211 150.754 29.6119 149.537 31.1936C148.334 32.7752 147.732 34.9922 147.732 37.8446V38.5543C147.732 41.3527 148.334 43.5359 149.537 45.104C150.754 46.6722 152.464 47.4562 154.667 47.4562Z" fill="#0F4C81"/>
<path d="M173.816 21.5414V27.1583H178.358V29.1455H173.816V43.7657C173.816 44.9824 174.032 45.8881 174.465 46.4829C174.911 47.0777 175.648 47.3751 176.675 47.3751C177.08 47.3751 177.736 47.3075 178.642 47.1723L178.743 49.1595C178.108 49.3894 177.243 49.5043 176.148 49.5043C174.485 49.5043 173.275 49.0244 172.518 48.0646C171.761 47.0912 171.383 45.665 171.383 43.786V29.1455H167.348V27.1583H171.383V21.5414H173.816Z" fill="#0F4C81"/>
<path d="M199.311 49.0987C199.068 48.4093 198.913 47.3886 198.845 46.0368C197.993 47.1453 196.905 48.0037 195.581 48.6121C194.269 49.2069 192.877 49.5043 191.404 49.5043C189.295 49.5043 187.585 48.9162 186.274 47.7401C184.976 46.564 184.327 45.077 184.327 43.279C184.327 41.1431 185.213 39.4533 186.983 38.2096C188.768 36.9659 191.248 36.3441 194.425 36.3441H198.825V33.8499C198.825 32.2818 198.338 31.0516 197.365 30.1594C196.405 29.2537 194.999 28.8008 193.147 28.8008C191.458 28.8008 190.059 29.2334 188.95 30.0986C187.842 30.9638 187.287 32.0047 187.287 33.2213L184.854 33.2011C184.854 31.4572 185.665 29.9499 187.287 28.6791C188.91 27.3949 190.903 26.7528 193.269 26.7528C195.716 26.7528 197.642 27.3679 199.048 28.598C200.467 29.8147 201.197 31.518 201.238 33.708V44.0901C201.238 46.2125 201.461 47.8009 201.907 48.8554V49.0987H199.311ZM191.687 47.3548C193.31 47.3548 194.756 46.9628 196.027 46.1787C197.311 45.3947 198.243 44.347 198.825 43.0357V38.2096H194.486C192.066 38.2367 190.174 38.6828 188.808 39.548C187.443 40.3996 186.76 41.5757 186.76 43.0763C186.76 44.3064 187.213 45.3271 188.119 46.1382C189.038 46.9493 190.228 47.3548 191.687 47.3548Z" fill="#0F4C81"/>
<path d="M231.498 24.5019H222.455V49.0987H216.372V24.5019H207.45V19.5745H231.498V24.5019Z" fill="#0F4C81"/>
<path d="M247.666 32.6536C246.869 32.5454 246.166 32.4913 245.558 32.4913C243.341 32.4913 241.888 33.2416 241.198 34.7422V49.0987H235.338V27.1583H240.874L241.036 29.7741C242.212 27.7599 243.841 26.7528 245.923 26.7528C246.571 26.7528 247.18 26.8406 247.747 27.0164L247.666 32.6536Z" fill="#0F4C81"/>
<path d="M264.686 49.0987C264.416 48.5715 264.22 47.9159 264.098 47.1318C262.679 48.7134 260.834 49.5043 258.563 49.5043C256.414 49.5043 254.629 48.8824 253.21 47.6387C251.804 46.395 251.101 44.8269 251.101 42.9343C251.101 40.6091 251.96 38.8247 253.676 37.581C255.407 36.3373 257.901 35.7087 261.158 35.6952H263.855V34.438C263.855 33.4241 263.591 32.613 263.064 32.0047C262.551 31.3963 261.733 31.0922 260.611 31.0922C259.624 31.0922 258.847 31.3287 258.279 31.8019C257.725 32.275 257.448 32.9239 257.448 33.7485H251.588C251.588 32.4778 251.98 31.3017 252.764 30.2202C253.548 29.1388 254.656 28.2939 256.089 27.6855C257.522 27.0637 259.131 26.7528 260.915 26.7528C263.618 26.7528 265.761 27.4354 267.343 28.8008C268.938 30.1526 269.735 32.0587 269.735 34.5191V44.0293C269.749 46.1111 270.039 47.686 270.607 48.754V49.0987H264.686ZM259.84 45.0229C260.705 45.0229 261.503 44.8337 262.233 44.4551C262.963 44.0631 263.504 43.5426 263.855 42.8938V39.1221H261.665C258.732 39.1221 257.171 40.136 256.981 42.1638L256.961 42.5085C256.961 43.2385 257.218 43.84 257.732 44.3132C258.245 44.7863 258.948 45.0229 259.84 45.0229Z" fill="#0F4C81"/>
<path d="M285.437 44.7796C286.519 44.7796 287.397 44.4822 288.073 43.8874C288.749 43.2926 289.1 42.5017 289.127 41.5149H294.622C294.609 43.0019 294.203 44.3673 293.406 45.611C292.608 46.8411 291.513 47.8009 290.121 48.4904C288.742 49.1663 287.215 49.5043 285.539 49.5043C282.402 49.5043 279.929 48.5107 278.117 46.5235C276.306 44.5227 275.4 41.765 275.4 38.2502V37.8649C275.4 34.4853 276.299 31.7884 278.097 29.7741C279.895 27.7599 282.362 26.7528 285.498 26.7528C288.242 26.7528 290.439 27.5368 292.088 29.105C293.75 30.6596 294.595 32.7347 294.622 35.3302H289.127C289.1 34.1947 288.749 33.2754 288.073 32.5724C287.397 31.856 286.505 31.4977 285.397 31.4977C284.031 31.4977 282.997 31.9979 282.294 32.9983C281.605 33.9851 281.26 35.5938 281.26 37.8244V38.4327C281.26 40.6903 281.605 42.3125 282.294 43.2993C282.984 44.2862 284.031 44.7796 285.437 44.7796Z" fill="#0F4C81"/>
<path d="M308.013 40.2982L305.904 42.4071V49.0987H300.044V17.9523H305.904V35.2085L307.04 33.7485L312.656 27.1583H319.692L311.764 36.3035L320.381 49.0987H313.65L308.013 40.2982Z" fill="#0F4C81"/>
</svg>
