<svg viewBox="0 0 341 68" fill="none" xmlns="http://www.w3.org/2000/svg">
<path d="M97.507 38.3343V53.9698H92.1992V14.0305H107.044C111.449 14.0305 114.896 15.146 117.384 17.3771C119.89 19.6081 121.143 22.5615 121.143 26.2372C121.143 30.1141 119.918 33.1041 117.467 35.2071C115.034 37.2919 111.541 38.3343 106.989 38.3343H97.507ZM97.507 34.0276H107.044C109.883 34.0276 112.057 33.3693 113.569 32.0526C115.08 30.7176 115.836 28.7975 115.836 26.2921C115.836 23.9148 115.08 22.0129 113.569 20.5865C112.057 19.1601 109.984 18.4194 107.349 18.3646H97.507V34.0276Z" fill="#3ECC80"/>
<path d="M131.505 49.6632H150.579V53.9698H126.169V14.0305H131.505V49.6632Z" fill="#3ECC80"/>
<path d="M181.422 43.5461H164.559L160.771 53.9698H155.298L170.668 14.0305H175.312L190.71 53.9698H185.264L181.422 43.5461ZM166.162 39.212H179.846L172.99 20.5316L166.162 39.212Z" fill="#3ECC80"/>
<path d="M204.811 34.0825L215.316 14.0305H221.342L207.464 39.0749V53.9698H202.157V39.0749L188.279 14.0305H194.361L204.811 34.0825Z" fill="#3ECC80"/>
<path d="M238.439 40.419L236.062 53.9698H226.608L233.574 14.0305L248.032 14.0579C252.511 14.0579 256.031 15.2923 258.593 17.7611C261.173 20.2299 262.306 23.4301 261.993 27.3619C261.772 30.0501 260.905 32.3818 259.394 34.3568C257.883 36.3318 255.883 37.8405 253.395 38.8829C250.926 39.9252 248.152 40.4464 245.074 40.4464L238.439 40.419ZM239.739 32.9852L245.434 33.0401C247.83 32.9852 249.663 32.2172 250.935 30.7359C252.207 29.2363 252.713 27.3985 252.455 25.2223C252.308 24.1068 251.875 23.229 251.156 22.5889C250.456 21.9306 249.525 21.5648 248.364 21.4917L241.757 21.4643L239.739 32.9852Z" fill="#3ECC80"/>
<path d="M282.491 39.8704H277.238L274.75 53.9698H265.295L272.262 14.0305L286.471 14.0579C291.024 14.0579 294.525 15.1186 296.976 17.2399C299.446 19.3429 300.552 22.2232 300.294 25.8806C300.091 28.77 299.252 31.1657 297.778 33.0675C296.304 34.9511 294.24 36.4415 291.586 37.5388L297.004 53.5035V53.9698H286.914L282.491 39.8704ZM278.51 32.4366L284.039 32.4915C285.55 32.4915 286.858 32.1257 287.964 31.3942C289.088 30.6628 289.89 29.6661 290.369 28.4043C290.848 27.1242 290.987 25.8898 290.784 24.7011C290.415 22.6712 289.107 21.6014 286.858 21.4917L280.445 21.4643L278.51 32.4366Z" fill="#3ECC80"/>
<path d="M320.597 54.5185C316.414 54.427 313.06 53.0555 310.535 50.4038C308.01 47.7522 306.581 44.2045 306.25 39.7607C306.065 37.5662 306.24 34.9877 306.775 32.0252C307.309 29.0443 308.259 26.3012 309.622 23.7959C310.986 21.2905 312.691 19.2058 314.737 17.5416C318.165 14.7437 322.109 13.3904 326.569 13.4819C329.315 13.5367 331.711 14.1677 333.756 15.3746C335.82 16.5633 337.47 18.2823 338.705 20.5316C339.939 22.7809 340.658 25.3412 340.861 28.2123C341.008 30.2421 340.879 32.5555 340.474 35.1523C340.087 37.7308 339.359 40.1996 338.29 42.5586C337.239 44.8994 335.876 46.9658 334.199 48.758C332.521 50.5501 330.54 51.9765 328.255 53.0372C325.988 54.0796 323.436 54.5733 320.597 54.5185ZM331.379 28.13C331.195 23.5582 329.407 21.1808 326.016 20.9979C323.399 20.8699 321.233 21.9032 319.519 24.0976C317.805 26.2738 316.672 29.4924 316.119 33.7533C315.769 36.3867 315.64 38.4257 315.732 39.8704C315.916 44.5153 317.722 46.9018 321.15 47.0298C323.399 47.1396 325.334 46.3441 326.956 44.6434C328.577 42.9244 329.748 40.4373 330.467 37.1822C331.185 33.9087 331.489 30.8913 331.379 28.13Z" fill="#3ECC80"/>
<path d="M1.88766 5.5434C6.27757 17.3087 11.3985 23.6852 21.1257 33.8828C22.0697 43.327 25.8826 59.2069 38.2746 68C34.3782 53.6965 37.6331 37.9315 39.9078 34.7034C56.0996 21.3817 61.9563 7.50345 61.9563 7.50345C61.9563 7.50345 62.3615 6.57844 62.4229 6.33103C62.6072 5.58881 62.8699 4.8069 62.773 4.43472C62.6562 3.98621 61.6717 3.16766 61.6717 3.16766L59.9411 2.85089H59.4691L58.9971 3.48442H58.2105C58.1581 3.6956 58.0532 4.14963 58.0532 4.27634V6.17693L58.8065 7.50345C53.2069 17.1172 42.0222 27.6525 34.0782 28.2387C31.4934 28.4294 30.2603 28.3333 27.3745 27.669C20.9844 25.9268 6.9381 14.6202 4.88633 5.5434L5.97815 4.27634L6.45013 3.16766V2.21736L5.50617 1.42545L5.19152 0.791914L4.24756 0L3.3036 0.475149L2.51697 0.791914L1.73034 1.26706L1.41568 1.42545C1.41568 1.42545 1.06029 1.52414 0.943706 2.05898C0.827123 2.59382 1.17702 3.51724 1.17702 3.51724C1.17702 3.51724 1.6779 4.90987 1.88766 5.5434Z" fill="#3ECC80"/>
<path d="M37.188 20.611C37.188 23.6584 34.7289 26.1289 31.6953 26.1289C28.6618 26.1289 26.2026 23.6584 26.2026 20.611C26.2026 17.5635 28.6618 15.0931 31.6953 15.0931C34.7289 15.0931 37.188 17.5635 37.188 20.611Z" fill="#3ECC80"/>
</svg>
